<svg width="19" height="20" viewBox="0 0 19 20" fill="none" xmlns="http://www.w3.org/2000/svg">
<g filter="url(#filter0_d_219_6295)">
<circle cx="9.22937" cy="9.22937" r="9.22937" fill="#B169FA"/>
<circle cx="9.22937" cy="9.22937" r="8.53169" stroke="white" stroke-width="1.39535"/>
</g>
<mask id="path-3-inside-1_219_6295" fill="white">
<path fill-rule="evenodd" clip-rule="evenodd" d="M9.19429 3.73279C8.35082 3.73279 7.66704 4.41656 7.66704 5.26004V7.96297H5.05588C4.2124 7.96297 3.52863 8.64675 3.52863 9.49022C3.52863 10.3337 4.2124 11.0175 5.05588 11.0175H7.66704V13.7204C7.66704 14.5638 8.35082 15.2476 9.19429 15.2476C10.0378 15.2476 10.7215 14.5638 10.7215 13.7204V11.0175H13.5162C14.3597 11.0175 15.0434 10.3337 15.0434 9.49022C15.0434 8.64675 14.3597 7.96297 13.5162 7.96297H10.7215V5.26004C10.7215 4.41656 10.0378 3.73279 9.19429 3.73279Z"/>
</mask>
<path fill-rule="evenodd" clip-rule="evenodd" d="M9.19429 3.73279C8.35082 3.73279 7.66704 4.41656 7.66704 5.26004V7.96297H5.05588C4.2124 7.96297 3.52863 8.64675 3.52863 9.49022C3.52863 10.3337 4.2124 11.0175 5.05588 11.0175H7.66704V13.7204C7.66704 14.5638 8.35082 15.2476 9.19429 15.2476C10.0378 15.2476 10.7215 14.5638 10.7215 13.7204V11.0175H13.5162C14.3597 11.0175 15.0434 10.3337 15.0434 9.49022C15.0434 8.64675 14.3597 7.96297 13.5162 7.96297H10.7215V5.26004C10.7215 4.41656 10.0378 3.73279 9.19429 3.73279Z" fill="white"/>
<path d="M7.66704 7.96297V8.42809H8.13216V7.96297H7.66704ZM7.66704 11.0175H8.13216V10.5524H7.66704V11.0175ZM10.7215 11.0175V10.5524H10.2564V11.0175H10.7215ZM10.7215 7.96297H10.2564V8.42809H10.7215V7.96297ZM8.13216 5.26004C8.13216 4.67344 8.60769 4.1979 9.19429 4.1979V3.26767C8.09394 3.26767 7.20193 4.15968 7.20193 5.26004H8.13216ZM8.13216 7.96297V5.26004H7.20193V7.96297H8.13216ZM7.66704 7.49786H5.05588V8.42809H7.66704V7.49786ZM5.05588 7.49786C3.95552 7.49786 3.06351 8.38987 3.06351 9.49022H3.99374C3.99374 8.90362 4.46928 8.42809 5.05588 8.42809V7.49786ZM3.06351 9.49022C3.06351 10.5906 3.95552 11.4826 5.05588 11.4826V10.5524C4.46928 10.5524 3.99374 10.0768 3.99374 9.49022H3.06351ZM5.05588 11.4826H7.66704V10.5524H5.05588V11.4826ZM8.13216 13.7204V11.0175H7.20193V13.7204H8.13216ZM9.19429 14.7825C8.60769 14.7825 8.13216 14.307 8.13216 13.7204H7.20193C7.20193 14.8207 8.09394 15.7127 9.19429 15.7127V14.7825ZM10.2564 13.7204C10.2564 14.307 9.7809 14.7825 9.19429 14.7825V15.7127C10.2946 15.7127 11.1867 14.8207 11.1867 13.7204H10.2564ZM10.2564 11.0175V13.7204H11.1867V11.0175H10.2564ZM10.7215 11.4826H13.5162V10.5524H10.7215V11.4826ZM13.5162 11.4826C14.6165 11.4826 15.5086 10.5906 15.5086 9.49022H14.5783C14.5783 10.0768 14.1028 10.5524 13.5162 10.5524V11.4826ZM15.5086 9.49022C15.5086 8.38987 14.6165 7.49786 13.5162 7.49786V8.42809C14.1028 8.42809 14.5783 8.90362 14.5783 9.49022H15.5086ZM13.5162 7.49786H10.7215V8.42809H13.5162V7.49786ZM10.2564 5.26004V7.96297H11.1867V5.26004H10.2564ZM9.19429 4.1979C9.7809 4.1979 10.2564 4.67344 10.2564 5.26004H11.1867C11.1867 4.15969 10.2946 3.26767 9.19429 3.26767V4.1979Z" fill="#8014EE" mask="url(#path-3-inside-1_219_6295)"/>
<defs>
<filter id="filter0_d_219_6295" x="0" y="0" width="18.4587" height="19.8541" filterUnits="userSpaceOnUse" color-interpolation-filters="sRGB">
<feFlood flood-opacity="0" result="BackgroundImageFix"/>
<feColorMatrix in="SourceAlpha" type="matrix" values="0 0 0 0 0 0 0 0 0 0 0 0 0 0 0 0 0 0 127 0" result="hardAlpha"/>
<feOffset dy="1.39535"/>
<feComposite in2="hardAlpha" operator="out"/>
<feColorMatrix type="matrix" values="0 0 0 0 0.501961 0 0 0 0 0.0784314 0 0 0 0 0.933333 0 0 0 1 0"/>
<feBlend mode="normal" in2="BackgroundImageFix" result="effect1_dropShadow_219_6295"/>
<feBlend mode="normal" in="SourceGraphic" in2="effect1_dropShadow_219_6295" result="shape"/>
</filter>
</defs>
</svg>
