<svg width="19" height="20" viewBox="0 0 19 20" fill="none" xmlns="http://www.w3.org/2000/svg">
<g filter="url(#filter0_d_219_6350)">
<circle cx="9.43884" cy="9.22937" r="9.22937" fill="#FFF635"/>
<circle cx="9.43884" cy="9.22937" r="8.53169" stroke="white" stroke-width="1.39535"/>
</g>
<mask id="path-3-inside-1_219_6350" fill="white">
<path fill-rule="evenodd" clip-rule="evenodd" d="M9.40383 3.73279C8.56035 3.73279 7.87658 4.41656 7.87658 5.26004V7.96297H5.26541C4.42193 7.96297 3.73816 8.64675 3.73816 9.49022C3.73816 10.3337 4.42193 11.0175 5.26541 11.0175H7.87658V13.7204C7.87658 14.5638 8.56035 15.2476 9.40383 15.2476C10.2473 15.2476 10.9311 14.5638 10.9311 13.7204V11.0175H13.7257C14.5692 11.0175 15.253 10.3337 15.253 9.49022C15.253 8.64675 14.5692 7.96297 13.7257 7.96297H10.9311V5.26004C10.9311 4.41656 10.2473 3.73279 9.40383 3.73279Z"/>
</mask>
<path fill-rule="evenodd" clip-rule="evenodd" d="M9.40383 3.73279C8.56035 3.73279 7.87658 4.41656 7.87658 5.26004V7.96297H5.26541C4.42193 7.96297 3.73816 8.64675 3.73816 9.49022C3.73816 10.3337 4.42193 11.0175 5.26541 11.0175H7.87658V13.7204C7.87658 14.5638 8.56035 15.2476 9.40383 15.2476C10.2473 15.2476 10.9311 14.5638 10.9311 13.7204V11.0175H13.7257C14.5692 11.0175 15.253 10.3337 15.253 9.49022C15.253 8.64675 14.5692 7.96297 13.7257 7.96297H10.9311V5.26004C10.9311 4.41656 10.2473 3.73279 9.40383 3.73279Z" fill="white"/>
<path d="M7.87658 7.96297V8.42809H8.34169V7.96297H7.87658ZM7.87658 11.0175H8.34169V10.5524H7.87658V11.0175ZM10.9311 11.0175V10.5524H10.466V11.0175H10.9311ZM10.9311 7.96297H10.466V8.42809H10.9311V7.96297ZM8.34169 5.26004C8.34169 4.67344 8.81723 4.1979 9.40383 4.1979V3.26767C8.30347 3.26767 7.41146 4.15968 7.41146 5.26004H8.34169ZM8.34169 7.96297V5.26004H7.41146V7.96297H8.34169ZM7.87658 7.49786H5.26541V8.42809H7.87658V7.49786ZM5.26541 7.49786C4.16505 7.49786 3.27304 8.38987 3.27304 9.49022H4.20328C4.20328 8.90362 4.67881 8.42809 5.26541 8.42809V7.49786ZM3.27304 9.49022C3.27304 10.5906 4.16506 11.4826 5.26541 11.4826V10.5524C4.67881 10.5524 4.20328 10.0768 4.20328 9.49022H3.27304ZM5.26541 11.4826H7.87658V10.5524H5.26541V11.4826ZM8.34169 13.7204V11.0175H7.41146V13.7204H8.34169ZM9.40383 14.7825C8.81723 14.7825 8.34169 14.307 8.34169 13.7204H7.41146C7.41146 14.8207 8.30347 15.7127 9.40383 15.7127V14.7825ZM10.466 13.7204C10.466 14.307 9.99043 14.7825 9.40383 14.7825V15.7127C10.5042 15.7127 11.3962 14.8207 11.3962 13.7204H10.466ZM10.466 11.0175V13.7204H11.3962V11.0175H10.466ZM10.9311 11.4826H13.7257V10.5524H10.9311V11.4826ZM13.7257 11.4826C14.8261 11.4826 15.7181 10.5906 15.7181 9.49022H14.7879C14.7879 10.0768 14.3123 10.5524 13.7257 10.5524V11.4826ZM15.7181 9.49022C15.7181 8.38987 14.8261 7.49786 13.7257 7.49786V8.42809C14.3123 8.42809 14.7879 8.90362 14.7879 9.49022H15.7181ZM13.7257 7.49786H10.9311V8.42809H13.7257V7.49786ZM10.466 5.26004V7.96297H11.3962V5.26004H10.466ZM9.40383 4.1979C9.99043 4.1979 10.466 4.67344 10.466 5.26004H11.3962C11.3962 4.15969 10.5042 3.26767 9.40383 3.26767V4.1979Z" fill="#FFCC18" mask="url(#path-3-inside-1_219_6350)"/>
<defs>
<filter id="filter0_d_219_6350" x="0.209473" y="0" width="18.4587" height="19.8541" filterUnits="userSpaceOnUse" color-interpolation-filters="sRGB">
<feFlood flood-opacity="0" result="BackgroundImageFix"/>
<feColorMatrix in="SourceAlpha" type="matrix" values="0 0 0 0 0 0 0 0 0 0 0 0 0 0 0 0 0 0 127 0" result="hardAlpha"/>
<feOffset dy="1.39535"/>
<feComposite in2="hardAlpha" operator="out"/>
<feColorMatrix type="matrix" values="0 0 0 0 1 0 0 0 0 0.8 0 0 0 0 0.0941176 0 0 0 1 0"/>
<feBlend mode="normal" in2="BackgroundImageFix" result="effect1_dropShadow_219_6350"/>
<feBlend mode="normal" in="SourceGraphic" in2="effect1_dropShadow_219_6350" result="shape"/>
</filter>
</defs>
</svg>
