<svg width="14" height="17" viewBox="0 0 14 17" fill="none" xmlns="http://www.w3.org/2000/svg">
<path d="M9.44999 2.92497C9.76503 2.56186 10.0052 2.14011 10.1568 1.68391C10.3084 1.22772 10.3684 0.746072 10.3333 0.266632C9.36613 0.344705 8.46832 0.799596 7.83332 1.5333C7.52924 1.88495 7.2988 2.29403 7.15566 2.73634C7.01252 3.17864 6.95958 3.64517 6.99999 4.1083C7.47178 4.11223 7.93814 4.00755 8.36299 3.80235C8.78783 3.59715 9.15976 3.29694 9.44999 2.92497ZM11.55 9.12497C11.5556 8.48641 11.7238 7.85982 12.0387 7.3043C12.3536 6.74879 12.8049 6.28268 13.35 5.94997C13.006 5.45433 12.5513 5.04566 12.0219 4.75636C11.4924 4.46706 10.9029 4.30509 10.3 4.2833C8.99999 4.14997 7.79999 5.04163 7.10832 5.04163C6.41665 5.04163 5.44165 4.29997 4.35832 4.31663C3.65009 4.33996 2.96 4.54645 2.35536 4.91595C1.75072 5.28546 1.25216 5.80537 0.908321 6.42497C-0.558346 8.97497 0.533321 12.7666 1.99999 14.825C2.66665 15.8333 3.49999 16.975 4.59999 16.9333C5.69999 16.8916 6.05832 16.25 7.33332 16.25C8.60832 16.25 8.99999 16.9333 10.0833 16.9083C11.1667 16.8833 11.9333 15.875 12.6333 14.8666C13.1292 14.1346 13.5165 13.3346 13.7833 12.4916C13.1229 12.21 12.5594 11.741 12.1625 11.1427C11.7656 10.5444 11.5527 9.84295 11.55 9.12497Z" fill="black"/>
</svg>
