<svg width="49" height="51" viewBox="0 0 49 51" fill="none" xmlns="http://www.w3.org/2000/svg">
<path fill-rule="evenodd" clip-rule="evenodd" d="M7.35061 7.08232L24.1265 23.342L16.6172 1.33208C16.7311 1.29286 16.8454 1.25445 16.96 1.21686L22.3614 0.0993253C22.948 0.0454222 23.5405 0.0120715 24.1382 0L25.13 22.5637L35.1484 2.3384C36.5825 3.01495 37.9409 3.82577 39.2072 4.75462L27.7585 22.5637L46.5335 13.3014C47.7385 15.6226 48.585 18.1597 48.9999 20.8395L27.7585 24.3797L48.8783 29.1568C48.5604 30.8734 48.0646 32.5274 47.4108 34.0993L27.7585 25.6769L40.7696 43.2802C39.0617 44.7589 37.1484 46.0069 35.0784 46.9755L26.7208 26.7146L23.391 49.2547C22.4481 49.2074 21.5192 49.1071 20.6071 48.9568L19.7162 48.7659L25.1642 26.7146L8.42713 43.198C6.14403 41.2011 4.23272 38.7896 2.81063 36.081L24.1265 25.6769H0.0213968C0.00717904 25.3332 0 24.9877 0 24.6405C0 23.3445 0.100025 22.0719 0.292776 20.83L24.1265 24.3797L3.60049 11.8076C4.6555 10.0811 5.91698 8.49458 7.35061 7.08232Z" fill="url(#paint0_radial_54_2540)" fill-opacity="0.5"/>
<rect x="0.288121" y="-0.49904" width="18.7434" height="28.5225" rx="2.03732" transform="matrix(-0.965926 0.258819 0.258819 0.965926 28.0139 17.9084)" fill="#53C1FF" stroke="#043E5F" stroke-width="0.814929" stroke-linecap="round" stroke-linejoin="round"/>
<path fill-rule="evenodd" clip-rule="evenodd" d="M34.0811 43.978C33.9492 44.5454 33.5167 45.0234 32.9147 45.1847L18.7458 48.9812C17.8763 49.2142 16.9826 48.6982 16.7497 47.8287L10.4221 24.2139C10.1891 23.3444 10.7051 22.4507 11.5746 22.2177L11.6306 22.2027C11.572 22.4549 11.5728 22.7247 11.6445 22.9922L17.9721 46.607C18.205 47.4765 19.0988 47.9925 19.9682 47.7595L34.0811 43.978Z" fill="#9BDBFF"/>
<rect x="21.2824" y="19.1796" width="18.7434" height="28.5225" rx="2.03732" transform="rotate(7.30662 21.2824 19.1796)" fill="#A6FF35" stroke="#345E00" stroke-width="0.814929" stroke-linecap="round" stroke-linejoin="round"/>
<path fill-rule="evenodd" clip-rule="evenodd" d="M18.3457 46.0739C18.4944 46.7199 19.0313 47.2357 19.7272 47.3249L34.2768 49.1905C35.1696 49.305 35.9862 48.674 36.1007 47.7811L39.21 23.5318C39.3175 22.693 38.7671 21.9215 37.9597 21.7362C38.0018 21.919 38.0128 22.1122 37.9876 22.3091L34.8783 46.5585C34.7638 47.4513 33.9472 48.0823 33.0544 47.9678L18.5048 46.1023C18.4508 46.0953 18.3977 46.0858 18.3457 46.0739Z" fill="#6EC500"/>
<rect x="16.1326" y="21.8853" width="18.7434" height="28.5225" rx="2.03732" fill="#FFBA35" stroke="#501D01" stroke-width="0.814929" stroke-linecap="round" stroke-linejoin="round"/>
<path fill-rule="evenodd" clip-rule="evenodd" d="M16.6836 49.04C16.9392 49.6058 17.5085 49.9996 18.1697 49.9996H32.8384C33.7386 49.9996 34.4683 49.2699 34.4683 48.3697V23.9218C34.4683 23.261 34.075 22.692 33.5096 22.4362C33.602 22.6406 33.6534 22.8675 33.6534 23.1064V48.3692C33.6534 48.8193 33.2885 49.1841 32.8384 49.1841H17.3548C17.1155 49.1841 16.8883 49.1326 16.6836 49.04Z" fill="#CB8C12"/>
<path d="M32.8386 22.2928H18.1699C17.2698 22.2928 16.54 23.0225 16.54 23.9226V45.1108L34.4685 29.6271V23.9226C34.4685 23.0225 33.7388 22.2928 32.8386 22.2928Z" fill="#FFCD6B"/>
<path d="M16.54 34.9245L26.7267 25.742L16.54 32.8872V34.9245Z" fill="#FFBA35"/>
<path d="M32.0232 23.1072H18.1694C17.7193 23.1072 17.3545 23.4721 17.3545 23.9222V47.5551" stroke="#FFE6B5" stroke-width="0.814929" stroke-linecap="round" stroke-linejoin="round"/>
<path d="M17.3545 25.9598V30.0344" stroke="#FFFDFA" stroke-width="0.814929" stroke-linecap="round" stroke-linejoin="round"/>
<path d="M21.3488 34.9589C21.2021 34.9886 21.0836 35.0963 21.0399 35.2394C20.9963 35.3825 21.0346 35.538 21.1397 35.6445L23.0255 37.5554L22.5579 39.9245C22.5278 40.0773 22.5874 40.234 22.7116 40.3281C22.8358 40.4222 23.0028 40.4373 23.1418 40.3668L25.5043 39.1698L27.8668 40.3668C28.0058 40.4373 28.1728 40.4222 28.297 40.3281C28.4213 40.234 28.4809 40.0773 28.4507 39.9245L27.9832 37.5554L29.869 35.6445C29.9741 35.538 30.0124 35.3825 29.9687 35.2394C29.9251 35.0963 29.8065 34.9886 29.6599 34.9589L27.2907 34.4788L25.8549 32.0539C25.7816 31.93 25.6483 31.8541 25.5043 31.8541C25.3604 31.8541 25.2271 31.93 25.1537 32.0539L24.3897 33.3442L23.718 34.4788L21.3488 34.9589Z" fill="#FFCC45" stroke="#C37808" stroke-width="0.814929" stroke-linecap="round" stroke-linejoin="round"/>
<path d="M23.0596 35.725L24.6894 35.3175L25.5044 33.8914" stroke="#FFF8E5" stroke-width="0.814929" stroke-linecap="round" stroke-linejoin="round"/>
<circle cx="18.1702" cy="24.1124" r="0.814929" fill="#FFE6B5" stroke="#F0AA23" stroke-width="0.814929" stroke-linejoin="round"/>
<circle cx="18.1702" cy="48.1524" r="0.814929" fill="#FFBA35" stroke="#CB8C12" stroke-width="0.814929" stroke-linejoin="round"/>
<circle cx="32.8391" cy="24.1124" r="0.814929" fill="#FFE6B5" stroke="#F0AA23" stroke-width="0.814929" stroke-linejoin="round"/>
<circle cx="32.8391" cy="48.1524" r="0.814929" fill="#FFBA35" stroke="#CB8C12" stroke-width="0.814929" stroke-linejoin="round"/>
<circle cx="27.3378" cy="45.9118" r="0.611197" fill="#DE9E23"/>
<circle cx="31.2085" cy="46.5228" r="0.814929" fill="#DE9E23"/>
<circle cx="31.2082" cy="43.671" r="0.407465" fill="#DE9E23"/>
<circle cx="29.1711" cy="47.7452" r="0.407465" fill="#DE9E23"/>
<circle cx="24.2815" cy="48.1524" r="0.407465" fill="#DE9E23"/>
<circle cx="26.3186" cy="47.7452" r="0.407465" fill="#DE9E23"/>
<circle cx="29.5784" cy="45.7081" r="0.407465" fill="#DE9E23"/>
<circle cx="29.3746" cy="43.8744" r="0.203732" fill="#DE9E23"/>
<circle cx="28.5602" cy="45.0971" r="0.203732" fill="#DE9E23"/>
<circle cx="25.3004" cy="46.3188" r="0.203732" fill="#DE9E23"/>
<circle cx="30.1901" cy="42.2446" r="0.203732" fill="#DE9E23"/>
<circle cx="32.6344" cy="42.6518" r="0.203732" fill="#DE9E23"/>
<circle cx="32.2272" cy="40.6147" r="0.203732" fill="#DE9E23"/>
<circle cx="32.6344" cy="46.727" r="0.203732" fill="#DE9E23"/>
<circle cx="31.4127" cy="48.3569" r="0.203732" fill="#DE9E23"/>
<circle cx="28.5602" cy="46.727" r="0.203732" fill="#DE9E23"/>
<circle cx="27.7447" cy="47.9487" r="0.203732" fill="#DE9E23"/>
<circle cx="23.6705" cy="46.727" r="0.203732" fill="#DE9E23"/>
<circle cx="31.8199" cy="41.8373" r="0.203732" fill="#DE9E23"/>
<circle cx="32.4309" cy="44.4854" r="0.407465" fill="#DE9E23"/>
<defs>
<radialGradient id="paint0_radial_54_2540" cx="0" cy="0" r="1" gradientUnits="userSpaceOnUse" gradientTransform="translate(24.5 24.6273) rotate(90) scale(24.6273 24.5)">
<stop offset="0.53125" stop-color="#F9F9F9"/>
<stop offset="1" stop-color="white" stop-opacity="0"/>
</radialGradient>
</defs>
</svg>
