<svg width="26" height="26" viewBox="0 0 26 26" fill="none" xmlns="http://www.w3.org/2000/svg">
<rect x="0.21121" y="-0.366475" width="15.162" height="21.5189" rx="1.52797" transform="matrix(-0.970978 0.239171 0.279833 0.960049 15.4614 0.934859)" fill="#53C1FF" stroke="#043E5F" stroke-width="0.61119" stroke-linecap="round" stroke-linejoin="round"/>
<path fill-rule="evenodd" clip-rule="evenodd" d="M20.4603 20.4834C20.3527 20.9089 19.9999 21.2674 19.5088 21.3883L7.9491 24.2357C7.23974 24.4105 6.5106 24.0235 6.32053 23.3714L1.15818 5.66045C0.968107 5.00836 1.38907 4.33808 2.09843 4.16335L2.14445 4.15202C2.09662 4.34116 2.09725 4.54355 2.15574 4.74421L7.31809 22.4551C7.50816 23.1072 8.2373 23.4942 8.94666 23.3195L20.4603 20.4834Z" fill="#9BDBFF"/>
<rect x="-0.261278" y="-0.338438" width="15.2198" height="21.4224" rx="1.52797" transform="matrix(0.993125 0.11706 -0.138142 0.990412 10.2575 2.25401)" fill="#A6FF35" stroke="#345E00" stroke-width="0.61119" stroke-linecap="round" stroke-linejoin="round"/>
<path fill-rule="evenodd" clip-rule="evenodd" d="M7.62335 22.0553C7.74471 22.5397 8.18267 22.9265 8.75042 22.9935L20.6207 24.3926C21.3491 24.4785 22.0154 24.0052 22.1088 23.3356L24.6454 5.14882C24.7332 4.51963 24.284 3.94093 23.6251 3.80212C23.6595 3.93922 23.6685 4.08413 23.6479 4.23183L21.1112 22.4186C21.0178 23.0883 20.3516 23.5615 19.6232 23.4756L7.75286 22.0765C7.70888 22.0713 7.66569 22.0642 7.62335 22.0553Z" fill="#6EC500"/>
<rect x="5.84382" y="3.91396" width="15.2381" height="21.3916" rx="1.52797" fill="#FFBA35" stroke="#501D01" stroke-width="0.61119" stroke-linecap="round" stroke-linejoin="round"/>
<path fill-rule="evenodd" clip-rule="evenodd" d="M6.27014 24.3075C6.46765 24.7169 6.88671 24.9994 7.37175 24.9994H19.5539C20.229 24.9994 20.7763 24.4522 20.7763 23.7771V5.44136C20.7763 4.92019 20.4501 4.47519 19.9908 4.29936C20.0682 4.4598 20.1115 4.63973 20.1115 4.82979V23.7767C20.1115 24.1142 19.8379 24.3879 19.5003 24.3879H6.707C6.55308 24.3879 6.4058 24.3594 6.27014 24.3075Z" fill="#CB8C12"/>
<path d="M19.4466 4.21956H7.47913C6.74475 4.21956 6.14941 4.76684 6.14941 5.44194V21.3329L20.7763 9.72027V5.44194C20.7763 4.76684 20.181 4.21956 19.4466 4.21956Z" fill="#FFCD6B"/>
<path d="M6.14941 13.6932L14.4602 6.80645L6.14941 12.1653V13.6932Z" fill="#FFBA35"/>
<path d="M18.7819 4.83039H7.42564C7.08809 4.83039 6.81445 5.10403 6.81445 5.44158V23.1661" stroke="#FFE6B5" stroke-width="0.61119" stroke-linecap="round" stroke-linejoin="round"/>
<path d="M6.81445 6.96978V10.0257" stroke="#FFFDFA" stroke-width="0.61119" stroke-linecap="round" stroke-linejoin="round"/>
<path d="M10.0828 13.7181C9.96934 13.7393 9.87749 13.8225 9.84528 13.9333C9.81308 14.044 9.84602 14.1635 9.93044 14.2422L11.4657 15.6723L11.0866 17.4382C11.0622 17.5516 11.1041 17.669 11.1948 17.7413C11.2855 17.8136 11.4093 17.8283 11.5144 17.7794L13.463 16.8717L15.4117 17.7794C15.5168 17.8283 15.6406 17.8136 15.7313 17.7413C15.8219 17.669 15.8638 17.5516 15.8395 17.4382L15.4604 15.6723L16.9956 14.2422C17.08 14.1635 17.113 14.044 17.0808 13.9333C17.0486 13.8225 16.9567 13.7393 16.8433 13.7181L14.8952 13.3552L13.7199 11.5306C13.6637 11.4432 13.5669 11.3904 13.463 11.3904C13.3591 11.3904 13.2624 11.4432 13.2061 11.5306L12.5828 12.4983L12.0309 13.3552L10.0828 13.7181Z" fill="#FFCC45" stroke="#C37808" stroke-width="0.61119" stroke-linecap="round" stroke-linejoin="round"/>
<path d="M11.4683 14.2936L12.798 13.988L13.4628 12.9184" stroke="#FFF8E5" stroke-width="0.61119" stroke-linecap="round" stroke-linejoin="round"/>
</svg>
