<svg width="48" height="48" viewBox="0 0 48 48" fill="none" xmlns="http://www.w3.org/2000/svg">
<rect x="0.857143" y="0.857143" width="46.2857" height="46.2857" rx="6" fill="#FFDB5B"/>
<rect x="0.857143" y="0.857143" width="46.2857" height="46.2857" rx="6" stroke="#D79F11" stroke-width="1.71429"/>
<path d="M36.5425 11.2924C38.5812 11.3944 40.1064 13.2026 39.8632 15.2292L38.2462 28.7046C38.0338 30.4746 36.5323 31.8067 34.7496 31.8067H14.4023C12.6567 31.8067 11.1745 30.5279 10.9187 28.8011L8.7435 14.1188C8.4179 11.921 10.1839 9.9745 12.403 10.0855L36.5425 11.2924Z" fill="#D9802E" stroke="#8F3400" stroke-width="0.782583" stroke-linejoin="round"/>
<path d="M25.8297 32.034C25.7236 32.0794 25.643 32.1695 25.6095 32.2799C25.5759 32.3904 25.5929 32.5101 25.6558 32.6069L28.1844 36.497C28.3633 36.876 28.638 37.3123 28.9847 37.6333C29.3352 37.9579 29.8353 38.2275 30.4048 38.0495C30.4163 38.0459 30.4276 38.0418 30.4387 38.0372L31.4765 37.6045C31.8595 37.4817 32.158 37.2867 32.3818 36.9712C32.5968 36.6681 32.7214 36.2829 32.8219 35.8288C32.822 35.8283 32.8221 35.8278 32.8223 35.8273L33.9954 30.7204C34.0195 30.6155 33.9994 30.5053 33.9397 30.4157L33.1571 29.2419C33.0524 29.0849 32.8507 29.025 32.6774 29.0993L25.8297 32.034Z" fill="#D9802E" stroke="#8F3400" stroke-width="0.782583" stroke-linejoin="round"/>
<mask id="path-4-outside-1_215_3635" maskUnits="userSpaceOnUse" x="23.9077" y="29.3994" width="10" height="10" fill="black">
<rect fill="white" x="23.9077" y="29.3994" width="10" height="10"/>
<path fill-rule="evenodd" clip-rule="evenodd" d="M24.9077 30.6326L28.9655 37.125C29.1797 37.4678 29.5554 37.676 29.9596 37.676C30.4976 37.676 30.9665 37.3099 31.097 36.788L32.6942 30.3994C32.3273 30.5499 31.9262 30.6326 31.507 30.6326H24.9077Z"/>
</mask>
<path fill-rule="evenodd" clip-rule="evenodd" d="M24.9077 30.6326L28.9655 37.125C29.1797 37.4678 29.5554 37.676 29.9596 37.676C30.4976 37.676 30.9665 37.3099 31.097 36.788L32.6942 30.3994C32.3273 30.5499 31.9262 30.6326 31.507 30.6326H24.9077Z" fill="#D79F11"/>
<path d="M24.9077 30.6326V29.85C24.6232 29.85 24.3611 30.0044 24.2232 30.2532C24.0853 30.5021 24.0933 30.8061 24.2441 31.0474L24.9077 30.6326ZM28.9655 37.125L29.6291 36.7102L29.6291 36.7102L28.9655 37.125ZM31.097 36.788L30.3378 36.5982L31.097 36.788ZM32.6942 30.3994L33.4534 30.5892C33.525 30.3028 33.4294 30.0006 33.2062 29.8075C32.983 29.6144 32.6702 29.5633 32.3971 29.6753L32.6942 30.3994ZM24.2441 31.0474L28.3018 37.5398L29.6291 36.7102L25.5713 30.2178L24.2441 31.0474ZM28.3018 37.5398C28.6591 38.1114 29.2856 38.4586 29.9596 38.4586V36.8934C29.8252 36.8934 29.7003 36.8242 29.6291 36.7102L28.3018 37.5398ZM29.9596 38.4586C30.8567 38.4586 31.6387 37.8481 31.8562 36.9778L30.3378 36.5982C30.2944 36.7717 30.1385 36.8934 29.9596 36.8934V38.4586ZM31.8562 36.9778L33.4534 30.5892L31.935 30.2095L30.3378 36.5982L31.8562 36.9778ZM32.3971 29.6753C32.1228 29.7879 31.8225 29.85 31.507 29.85V31.4152C32.0298 31.4152 32.5318 31.3119 32.9912 31.1234L32.3971 29.6753ZM31.507 29.85H24.9077V31.4152H31.507V29.85Z" fill="#8F3400" mask="url(#path-4-outside-1_215_3635)"/>
<path d="M29.5057 36.8935L26.1797 31.2197" stroke="#FFD232" stroke-width="0.782583" stroke-linecap="round" stroke-linejoin="round"/>
<path d="M36.7667 11.2253L36.7667 11.2251L36.7542 11.2246L12.4778 10.1862C10.2369 10.0221 8.41674 11.971 8.73466 14.1965L10.9303 29.5656C11.0344 30.2943 11.6009 30.8651 12.3249 30.9815C12.4965 31.009 12.6725 31.024 12.8513 31.024H33.0717C34.9044 31.024 36.4302 29.6185 36.5813 27.7932L38.4465 13.472C38.4473 13.4656 38.448 13.4591 38.4485 13.4527C38.4632 13.2688 38.4635 13.0869 38.4503 12.9081C38.384 12.0114 37.6615 11.2924 36.7667 11.2253Z" fill="#FFD232" stroke="#8F3400" stroke-width="0.782583" stroke-linejoin="round"/>
<path fill-rule="evenodd" clip-rule="evenodd" d="M11.3774 29.7548C11.5315 30.1927 11.9151 30.5194 12.387 30.5952C12.5392 30.6197 12.6944 30.6328 12.8514 30.6328H33.0718C34.7038 30.6328 36.062 29.3789 36.1921 27.7521L38.0586 13.4216C38.0717 13.2578 38.0719 13.0959 38.0602 12.9371C38.0195 12.3878 37.6635 11.922 37.1744 11.7196C37.2305 11.8555 37.2662 12.0018 37.2775 12.1545C37.2893 12.3134 37.289 12.4752 37.2759 12.639L35.4095 26.9695C35.2793 28.5964 33.9212 29.8502 32.2891 29.8502H12.0687C11.9118 29.8502 11.7565 29.8371 11.6044 29.8126C11.5261 29.8001 11.4502 29.7806 11.3774 29.7548Z" fill="#D79F11"/>
<path d="M9.12202 14.1411C8.83915 12.1611 10.4604 10.4273 12.455 10.5769L24.5962 11.0962C22.7037 19.7269 14.2234 21.8454 10.2198 21.8257L9.12202 14.1411Z" fill="#FFDB5B"/>
<path d="M17.9627 11.2967L12.6734 11.0763C10.9381 10.9421 9.5275 12.4974 9.7736 14.2736L10.2511 17.7202" stroke="#FFEBA6" stroke-width="0.782583" stroke-linecap="round" stroke-linejoin="round"/>
<path d="M9.7736 14.2736C9.5275 12.4974 10.9381 10.9421 12.6734 11.0763" stroke="#F3FCFF" stroke-width="0.782583" stroke-linecap="round" stroke-linejoin="round"/>
<circle cx="31.4619" cy="27.3069" r="0.586937" fill="#EFAF09"/>
<circle cx="33.8096" cy="27.3069" r="0.586937" fill="#EFAF09"/>
<circle cx="28.7227" cy="28.0895" r="0.586937" fill="#EFAF09"/>
<circle cx="32.2447" cy="21.8288" r="0.586937" fill="#EFAF09"/>
<circle cx="34.0051" cy="25.5461" r="0.391291" fill="#EFAF09"/>
<circle cx="31.2663" cy="25.1548" r="0.391291" fill="#EFAF09"/>
<circle cx="33.6139" cy="23.5896" r="0.391291" fill="#EFAF09"/>
<circle cx="29.7013" cy="25.9374" r="0.391291" fill="#EFAF09"/>
<circle cx="26.571" cy="27.5026" r="0.391291" fill="#EFAF09"/>
<circle cx="24.0272" cy="28.4808" r="0.195646" fill="#EFAF09"/>
<circle cx="25.5926" cy="28.4808" r="0.195646" fill="#EFAF09"/>
<circle cx="27.1576" cy="28.872" r="0.195646" fill="#EFAF09"/>
<circle cx="29.8968" cy="27.3069" r="0.195646" fill="#EFAF09"/>
<circle cx="30.6795" cy="28.872" r="0.195646" fill="#EFAF09"/>
<circle cx="32.6356" cy="28.4808" r="0.195646" fill="#EFAF09"/>
<circle cx="33.0272" cy="26.133" r="0.195646" fill="#EFAF09"/>
<circle cx="34.5921" cy="24.1765" r="0.195646" fill="#EFAF09"/>
<circle cx="33.4183" cy="20.6549" r="0.195646" fill="#EFAF09"/>
<circle cx="32.6356" cy="24.5679" r="0.195646" fill="#EFAF09"/>
<circle cx="30.6795" cy="24.1765" r="0.195646" fill="#EFAF09"/>
<circle cx="31.8534" cy="23.3939" r="0.195646" fill="#EFAF09"/>
<circle cx="33.4183" cy="22.2201" r="0.195646" fill="#EFAF09"/>
<circle cx="31.8534" cy="19.8723" r="0.195646" fill="#EFAF09"/>
<circle cx="27.9403" cy="26.5243" r="0.195646" fill="#EFAF09"/>
<circle cx="15.6147" cy="20.068" r="2.34775" fill="#FFE6A5" stroke="#8F3400" stroke-width="0.782583" stroke-linejoin="round"/>
<path fill-rule="evenodd" clip-rule="evenodd" d="M17.4504 19.3899C17.1257 19.0411 16.6625 18.8229 16.1483 18.8229C15.166 18.8229 14.3697 19.6192 14.3697 20.6015C14.3697 21.1158 14.588 21.5792 14.9371 21.9039C14.1905 21.6283 13.6582 20.9103 13.6582 20.068C13.6582 18.9874 14.5341 18.1115 15.6147 18.1115C16.4568 18.1115 17.1747 18.6436 17.4504 19.3899Z" fill="#EA9F2F"/>
<path d="M16.8731 20.1955C16.6633 20.9787 15.8802 21.4493 15.124 21.2467" stroke="#FFF7E3" stroke-width="0.782583" stroke-linecap="round" stroke-linejoin="round"/>
<circle cx="23.4407" cy="20.068" r="3.13033" fill="#FFE6A5" stroke="#8F3400" stroke-width="0.782583" stroke-linejoin="round"/>
<path fill-rule="evenodd" clip-rule="evenodd" d="M26.0109 19.119C25.5563 18.6305 24.9077 18.3249 24.1877 18.3249C22.8125 18.3249 21.6977 19.4398 21.6977 20.815C21.6977 21.5349 22.0032 22.1835 22.4918 22.6382C21.4467 22.2522 20.7017 21.2471 20.7017 20.068C20.7017 18.5552 21.928 17.3289 23.4407 17.3289C24.6198 17.3289 25.6249 18.074 26.0109 19.119Z" fill="#EA9F2F"/>
<path d="M25.2024 20.2466C24.9086 21.343 23.8122 22.0019 22.7536 21.7183" stroke="#FFF7E3" stroke-width="0.782583" stroke-linecap="round" stroke-linejoin="round"/>
<circle cx="30.8749" cy="20.4593" r="2.34775" fill="#FFE6A5" stroke="#8F3400" stroke-width="0.782583" stroke-linejoin="round"/>
<path fill-rule="evenodd" clip-rule="evenodd" d="M32.7106 19.7811C32.3859 19.4323 31.9227 19.2141 31.4086 19.2141C30.4263 19.2141 29.63 20.0105 29.63 20.9927C29.63 21.5071 29.8484 21.9705 30.1975 22.2953C29.4508 22.0197 28.9185 21.3016 28.9185 20.4593C28.9185 19.3787 29.7944 18.5028 30.8749 18.5028C31.717 18.5028 32.4348 19.0348 32.7106 19.7811Z" fill="#EA9F2F"/>
<path d="M32.1334 20.5868C31.9235 21.37 31.1404 21.8406 30.3843 21.638" stroke="#FFF7E3" stroke-width="0.782583" stroke-linecap="round" stroke-linejoin="round"/>
</svg>
