<svg width="94" height="100" viewBox="0 0 94 100" fill="none" xmlns="http://www.w3.org/2000/svg">
<g filter="url(#filter0_d_22_203)">
<path d="M3.46667 22.6672L17.4144 43.4592H77.6904L90.0067 22.037L3.46667 22.6672Z" fill="url(#paint0_linear_22_203)"/>
<path d="M77.6923 12.3081H17.4139V43.4592H77.6923V12.3081Z" fill="url(#paint1_linear_22_203)"/>
<path d="M16.6551 44.6768L2.87146 23.9371H5.66814L19.6182 44.6768H16.6551Z" fill="#ED920D"/>
<path d="M78.5772 44.6763L91.4238 23.1875H88.6271L75.614 44.6763H78.5772Z" fill="#ED920D"/>
<path d="M77.693 42.2415H16.656V44.6743H77.693V42.2415Z" fill="#ED920D"/>
<path d="M86.147 52.0396H9.91138V59.6852H86.147V52.0396Z" fill="#3B276F"/>
<path d="M13.395 0.74339C13.395 0.74339 45.7066 -0.852333 79.6924 0.74339L84.1895 1.69464L86.765 22.8433L4.11316 22.206L7.93481 2.65065L13.395 0.74339Z" fill="url(#paint2_linear_22_203)"/>
<path d="M2.64392 58.2628L16.6559 44.6765V53.3924L11.4668 58.0226L2.64392 58.2628Z" fill="#DA6313"/>
<path d="M92.1143 58.3507L78.578 44.6765L78.5804 53.3923L83.2296 58.0226L92.1143 58.3507Z" fill="#DA6313"/>
<path d="M78.5801 44.6765H16.656V53.3947H78.5801V44.6765Z" fill="#DA5917"/>
<path d="M88.192 1.77277C87.8773 1.24152 87.4294 0.801537 86.8927 0.496255C86.3559 0.190973 85.7489 0.030952 85.1314 0.0319874H80.2776C80.1516 0.0319538 80.028 0.0666815 79.9205 0.132351C79.813 0.19802 79.7256 0.292086 79.6681 0.404194C79.6105 0.516302 79.5851 0.642105 79.5944 0.767764C79.6038 0.893423 79.6476 1.01407 79.7211 1.11641C87.0743 11.3424 84.7152 20.7621 84.7152 20.7621H9.40229C9.40229 20.7621 7.0527 11.3376 14.3964 1.11641C14.47 1.0139 14.5138 0.893042 14.5231 0.767173C14.5324 0.641303 14.5067 0.515319 14.4489 0.403131C14.3911 0.290942 14.3034 0.196913 14.1955 0.131418C14.0876 0.0659242 13.9637 0.0315148 13.8375 0.0319874H8.99562C8.37849 0.0311296 7.77181 0.191246 7.23548 0.496531C6.69914 0.801815 6.25171 1.24171 5.93736 1.77277C3.74948 5.47314 -0.749938 13.378 1.29287 22.3483C1.4504 23.0318 1.83564 23.6413 2.38533 24.077C2.93502 24.5126 3.61649 24.7483 4.31785 24.7455H89.8115C90.5128 24.7476 91.194 24.5113 91.7432 24.0753C92.2925 23.6392 92.6772 23.0294 92.8341 22.346C94.8793 13.378 90.3775 5.48265 88.192 1.77277Z" fill="url(#paint3_linear_22_203)"/>
<path d="M78.5799 44.6765H16.6559L2.64392 58.2628H92.1138L78.5799 44.6765ZM18.8651 45.535H75.6833C76.9688 45.5382 78.2005 46.0514 79.1079 46.9619L88.3397 56.1962C88.4358 56.2916 88.5015 56.4132 88.5287 56.5459C88.5558 56.6785 88.5432 56.8162 88.4924 56.9417C88.4416 57.0671 88.3549 57.1748 88.2431 57.2512C88.1313 57.3276 87.9995 57.3692 87.8641 57.371H7.03157C6.85711 57.3704 6.68676 57.3179 6.54216 57.2203C6.39757 57.1227 6.28525 56.9843 6.21949 56.8227C6.15374 56.6611 6.1375 56.4836 6.17284 56.3128C6.20819 56.1419 6.29353 55.9855 6.41801 55.8632L15.6618 46.8477C16.5177 46.0095 17.6671 45.5385 18.8651 45.535Z" fill="#FFEE39"/>
<path d="M84.1897 60.7959H7.9541V92.9529H84.1897V60.7959Z" fill="url(#paint4_linear_22_203)"/>
<path d="M90.7181 58.0225H3.89264C3.65342 58.0225 3.41654 58.0696 3.19553 58.1611C2.97452 58.2527 2.7737 58.3869 2.60454 58.556C2.43539 58.7252 2.30121 58.926 2.20966 59.147C2.11812 59.368 2.07099 59.6049 2.07099 59.8441V64.3625C2.06748 64.3918 2.06748 64.4213 2.07099 64.4505L7.46697 94.0392C7.59642 94.7496 7.97156 95.3918 8.52674 95.8535C9.08191 96.3152 9.78177 96.567 10.5038 96.5648H84.1901C84.9106 96.5648 85.6081 96.312 86.1613 95.8504C86.7146 95.3889 87.0883 94.748 87.2175 94.0392L92.6158 64.4601C92.6182 64.4308 92.6182 64.4013 92.6158 64.3721V59.9273C92.6165 59.4232 92.4169 58.9394 92.0611 58.5822C91.7053 58.225 91.2222 58.0237 90.7181 58.0225ZM79.0652 90.1819H15.6287C15.5126 90.1829 15.4001 90.1413 15.3125 90.0651C15.2249 89.9889 15.1682 89.8832 15.1531 89.7681L11.2625 64.9713C11.2494 64.902 11.2519 64.8305 11.2699 64.7622C11.2879 64.6939 11.3208 64.6305 11.3664 64.5765C11.4119 64.5226 11.4689 64.4794 11.5332 64.4502C11.5975 64.421 11.6675 64.4065 11.7381 64.4077H82.9487C83.0193 64.4065 83.0893 64.421 83.1536 64.4502C83.2179 64.4794 83.2749 64.5226 83.3204 64.5765C83.366 64.6305 83.3989 64.6939 83.4169 64.7622C83.4349 64.8305 83.4374 64.902 83.4244 64.9713L79.5456 89.7681C79.5304 89.8841 79.4731 89.9904 79.3844 90.0667C79.2958 90.143 79.1822 90.184 79.0652 90.1819Z" fill="url(#paint5_linear_22_203)"/>
<path d="M84.1896 92.7145C84.1896 93.0245 84.0976 93.3275 83.9254 93.5852C83.7532 93.8429 83.5085 94.0438 83.2221 94.1624C82.9357 94.281 82.6206 94.3121 82.3166 94.2516C82.0126 94.1911 81.7334 94.0419 81.5142 93.8227C81.295 93.6035 81.1458 93.3243 81.0853 93.0203C81.0248 92.7163 81.0559 92.4012 81.1745 92.1148C81.2931 91.8284 81.494 91.5837 81.7517 91.4115C82.0094 91.2393 82.3124 91.1473 82.6224 91.1473C82.8282 91.1473 83.032 91.1879 83.2221 91.2666C83.4122 91.3454 83.585 91.4608 83.7305 91.6064C83.8761 91.7519 83.9915 91.9246 84.0703 92.1148C84.149 92.3049 84.1896 92.5087 84.1896 92.7145Z" fill="#FFD217"/>
<path d="M86.5269 82.0582C86.5274 82.3687 86.4358 82.6724 86.2636 82.9308C86.0914 83.1892 85.8464 83.3908 85.5597 83.5099C85.2729 83.6291 84.9573 83.6605 84.6526 83.6002C84.348 83.5399 84.0681 83.3906 83.8484 83.1712C83.6286 82.9518 83.4789 82.6721 83.4182 82.3676C83.3574 82.0631 83.3883 81.7474 83.5071 81.4604C83.6258 81.1735 83.827 80.9282 84.0851 80.7557C84.3433 80.5831 84.6468 80.491 84.9574 80.491C85.3732 80.491 85.7721 80.656 86.0664 80.9498C86.3607 81.2437 86.5263 81.6423 86.5269 82.0582Z" fill="#FFD217"/>
<path d="M88.1209 71.3897C88.1209 71.6997 88.029 72.0027 87.8568 72.2604C87.6846 72.5181 87.4399 72.719 87.1535 72.8376C86.8671 72.9562 86.552 72.9872 86.248 72.9268C85.944 72.8663 85.6648 72.717 85.4456 72.4979C85.2264 72.2787 85.0772 71.9994 85.0167 71.6954C84.9562 71.3914 84.9872 71.0763 85.1059 70.79C85.2245 70.5036 85.4253 70.2588 85.6831 70.0866C85.9408 69.9144 86.2438 69.8225 86.5538 69.8225C86.9694 69.8225 87.368 69.9876 87.6619 70.2815C87.9558 70.5754 88.1209 70.9741 88.1209 71.3897Z" fill="#FFD217"/>
<path d="M89.343 61.4378C89.343 61.7478 89.2511 62.0507 89.0789 62.3085C88.9067 62.5662 88.6619 62.7671 88.3755 62.8857C88.0892 63.0043 87.7741 63.0353 87.4701 62.9749C87.1661 62.9144 86.8868 62.7651 86.6676 62.546C86.4485 62.3268 86.2992 62.0475 86.2387 61.7435C86.1783 61.4395 86.2093 61.1244 86.3279 60.8381C86.4465 60.5517 86.6474 60.3069 86.9051 60.1347C87.1628 59.9625 87.4658 59.8706 87.7758 59.8706C88.1914 59.8706 88.5901 60.0357 88.884 60.3296C89.1779 60.6235 89.343 61.0221 89.343 61.4378Z" fill="#FFD217"/>
<path d="M10.0275 92.7145C10.0275 93.0245 10.1194 93.3275 10.2916 93.5852C10.4638 93.8429 10.7085 94.0438 10.9949 94.1624C11.2813 94.281 11.5964 94.3121 11.9004 94.2516C12.2044 94.1911 12.4836 94.0419 12.7028 93.8227C12.922 93.6035 13.0713 93.3243 13.1317 93.0203C13.1922 92.7163 13.1612 92.4012 13.0425 92.1148C12.9239 91.8284 12.7231 91.5837 12.4653 91.4115C12.2076 91.2393 11.9046 91.1473 11.5947 91.1473C11.179 91.1473 10.7804 91.3125 10.4865 91.6064C10.1926 91.9003 10.0275 92.2989 10.0275 92.7145Z" fill="#FFD217"/>
<path d="M24.0109 92.7145C24.0109 93.0245 24.1028 93.3275 24.275 93.5852C24.4472 93.8429 24.6919 94.0438 24.9783 94.1624C25.2647 94.281 25.5798 94.3121 25.8838 94.2516C26.1878 94.1911 26.4671 94.0419 26.6862 93.8227C26.9054 93.6035 27.0547 93.3243 27.1151 93.0203C27.1756 92.7163 27.1446 92.4012 27.026 92.1148C26.9073 91.8284 26.7065 91.5837 26.4487 91.4115C26.191 91.2393 25.888 91.1473 25.5781 91.1473C25.3723 91.1473 25.1685 91.1879 24.9783 91.2666C24.7882 91.3454 24.6154 91.4608 24.4699 91.6064C24.3244 91.7519 24.2089 91.9246 24.1302 92.1148C24.0514 92.3049 24.0109 92.5087 24.0109 92.7145Z" fill="#FFD217"/>
<path d="M37.9944 92.7145C37.9944 93.0245 38.0863 93.3275 38.2585 93.5852C38.4307 93.8429 38.6755 94.0438 38.9618 94.1624C39.2482 94.281 39.5633 94.3121 39.8673 94.2516C40.1713 94.1911 40.4506 94.0419 40.6697 93.8227C40.8889 93.6035 41.0382 93.3243 41.0986 93.0203C41.1591 92.7163 41.1281 92.4012 41.0095 92.1148C40.8908 91.8284 40.69 91.5837 40.4322 91.4115C40.1745 91.2393 39.8715 91.1473 39.5616 91.1473C39.3558 91.1473 39.152 91.1879 38.9618 91.2666C38.7717 91.3454 38.5989 91.4608 38.4534 91.6064C38.3079 91.7519 38.1924 91.9246 38.1137 92.1148C38.0349 92.3049 37.9944 92.5087 37.9944 92.7145Z" fill="#FFD217"/>
<path d="M51.9778 92.7145C51.9778 93.0245 52.0697 93.3275 52.2419 93.5852C52.4141 93.8429 52.6589 94.0438 52.9452 94.1624C53.2316 94.281 53.5467 94.3121 53.8507 94.2516C54.1547 94.1911 54.434 94.0419 54.6531 93.8227C54.8723 93.6035 55.0216 93.3243 55.082 93.0203C55.1425 92.7163 55.1115 92.4012 54.9929 92.1148C54.8742 91.8284 54.6734 91.5837 54.4157 91.4115C54.1579 91.2393 53.8549 91.1473 53.545 91.1473C53.3392 91.1473 53.1354 91.1879 52.9452 91.2666C52.7551 91.3454 52.5823 91.4608 52.4368 91.6064C52.2913 91.7519 52.1758 91.9246 52.0971 92.1148C52.0183 92.3049 51.9778 92.5087 51.9778 92.7145Z" fill="#FFD217"/>
<path d="M65.9612 92.7145C65.9612 93.0245 66.0531 93.3275 66.2253 93.5852C66.3975 93.8429 66.6423 94.0438 66.9286 94.1624C67.215 94.281 67.5301 94.3121 67.8341 94.2516C68.1381 94.1911 68.4174 94.0419 68.6365 93.8227C68.8557 93.6035 69.005 93.3243 69.0654 93.0203C69.1259 92.7163 69.0949 92.4012 68.9763 92.1148C68.8576 91.8284 68.6568 91.5837 68.3991 91.4115C68.1413 91.2393 67.8383 91.1473 67.5284 91.1473C67.3226 91.1473 67.1188 91.1879 66.9286 91.2666C66.7385 91.3454 66.5657 91.4608 66.4202 91.6064C66.2747 91.7519 66.1592 91.9246 66.0805 92.1148C66.0017 92.3049 65.9612 92.5087 65.9612 92.7145Z" fill="#FFD217"/>
<path d="M17.4185 61.214C17.4185 61.524 17.5104 61.827 17.6826 62.0847C17.8548 62.3424 18.0995 62.5433 18.3859 62.6619C18.6723 62.7805 18.9874 62.8116 19.2914 62.7511C19.5954 62.6906 19.8746 62.5414 20.0938 62.3222C20.313 62.103 20.4622 61.8238 20.5227 61.5198C20.5832 61.2158 20.5521 60.9007 20.4335 60.6143C20.3149 60.3279 20.1141 60.0832 19.8563 59.911C19.5986 59.7388 19.2956 59.6469 18.9856 59.6469C18.57 59.6469 18.1714 59.812 17.8775 60.1059C17.5836 60.3998 17.4185 60.7984 17.4185 61.214Z" fill="#FFD217"/>
<path d="M32.9646 62.7812C33.8302 62.7812 34.5318 62.0796 34.5318 61.214C34.5318 60.3485 33.8302 59.6469 32.9646 59.6469C32.0991 59.6469 31.3975 60.3485 31.3975 61.214C31.3975 62.0796 32.0991 62.7812 32.9646 62.7812Z" fill="#FFD217"/>
<path d="M60.9314 62.7812C61.797 62.7812 62.4986 62.0796 62.4986 61.214C62.4986 60.3485 61.797 59.6469 60.9314 59.6469C60.0659 59.6469 59.3643 60.3485 59.3643 61.214C59.3643 62.0796 60.0659 62.7812 60.9314 62.7812Z" fill="#FFD217"/>
<path d="M73.5074 61.214C73.5074 61.524 73.5994 61.827 73.7716 62.0847C73.9438 62.3424 74.1885 62.5433 74.4749 62.6619C74.7613 62.7805 75.0764 62.8116 75.3804 62.7511C75.6844 62.6906 75.9636 62.5414 76.1828 62.3222C76.402 62.103 76.5512 61.8238 76.6117 61.5198C76.6722 61.2158 76.6411 60.9007 76.5225 60.6143C76.4039 60.3279 76.203 60.0832 75.9453 59.911C75.6876 59.7388 75.3846 59.6469 75.0746 59.6469C74.659 59.6469 74.2604 59.812 73.9665 60.1059C73.6726 60.3998 73.5074 60.7984 73.5074 61.214Z" fill="#FFD217"/>
<path d="M7.69031 82.0582C7.69031 82.3681 7.78222 82.6711 7.95443 82.9288C8.12663 83.1866 8.37139 83.3874 8.65776 83.5061C8.94412 83.6247 9.25923 83.6557 9.56324 83.5952C9.86724 83.5348 10.1465 83.3855 10.3657 83.1663C10.5848 82.9472 10.7341 82.6679 10.7946 82.3639C10.855 82.0599 10.824 81.7448 10.7054 81.4584C10.5868 81.1721 10.3859 80.9273 10.1282 80.7551C9.87046 80.5829 9.56745 80.491 9.25749 80.491C8.84185 80.491 8.44323 80.6561 8.14933 80.95C7.85542 81.2439 7.69031 81.6425 7.69031 82.0582Z" fill="#FFD217"/>
<path d="M6.0946 71.3897C6.0946 71.6997 6.18651 72.0027 6.35872 72.2604C6.53092 72.5181 6.77569 72.719 7.06205 72.8376C7.34842 72.9562 7.66353 72.9872 7.96753 72.9268C8.27154 72.8663 8.55078 72.717 8.76995 72.4979C8.98913 72.2787 9.13839 71.9994 9.19886 71.6954C9.25933 71.3914 9.2283 71.0763 9.10968 70.79C8.99107 70.5036 8.79019 70.2588 8.53247 70.0866C8.27475 69.9144 7.97175 69.8225 7.66179 69.8225C7.24615 69.8225 6.84753 69.9876 6.55362 70.2815C6.25972 70.5754 6.0946 70.9741 6.0946 71.3897Z" fill="#FFD217"/>
<path d="M4.87256 61.4378C4.87256 61.7478 4.96448 62.0507 5.13668 62.3085C5.30888 62.5662 5.55364 62.7671 5.84001 62.8857C6.12637 63.0043 6.44148 63.0353 6.74549 62.9749C7.04949 62.9144 7.32874 62.7651 7.54792 62.546C7.76709 62.3268 7.91635 62.0475 7.97682 61.7435C8.03729 61.4395 8.00625 61.1244 7.88764 60.8381C7.76902 60.5517 7.56815 60.3069 7.31043 60.1347C7.05271 59.9625 6.7497 59.8706 6.43974 59.8706C6.0241 59.8706 5.62548 60.0357 5.33158 60.3296C5.03767 60.6235 4.87256 61.0221 4.87256 61.4378Z" fill="#FFD217"/>
<path d="M81.3592 76.8738H13.3709L13.1616 75.6871H81.5661L81.3592 76.8738Z" fill="#4A30AA"/>
<path d="M84.0943 10.7335H10.2083L10.6268 9.44214H83.5735L84.0943 10.7335Z" fill="#4A30AA"/>
<path d="M43.2353 44.6905V42.2957H42.548C41.359 40.3052 38.6907 38.9211 35.6087 38.9211C32.5266 38.9211 29.8726 40.3052 28.6717 42.2957H27.9844V44.6905C27.9844 47.8772 31.3994 50.4598 35.6087 50.4598C39.8179 50.4598 43.2353 47.8772 43.2353 44.6905Z" fill="#E86124"/>
<path d="M30.2365 44.6905V42.2957H30.9237C31.9772 40.5525 34.1437 39.2755 36.7359 38.9854C36.3617 38.9422 35.9853 38.9207 35.6087 38.9211C32.5171 38.9211 29.8726 40.3052 28.6717 42.2957H27.9844V44.6905C27.9844 47.8772 31.3994 50.4598 35.6087 50.4598C35.9852 50.4598 36.3615 50.4391 36.7359 50.398C33.0593 49.9842 30.2365 47.587 30.2365 44.6905Z" fill="#DC4A26"/>
<path d="M35.6087 48.0654C39.8194 48.0654 43.2329 45.4824 43.2329 42.2961C43.2329 39.1097 39.8194 36.5267 35.6087 36.5267C31.3979 36.5267 27.9844 39.1097 27.9844 42.2961C27.9844 45.4824 31.3979 48.0654 35.6087 48.0654Z" fill="#F0E92D"/>
<path d="M35.6098 46.4722C38.6569 46.4722 41.127 44.6026 41.127 42.2962C41.127 39.9899 38.6569 38.1202 35.6098 38.1202C32.5627 38.1202 30.0925 39.9899 30.0925 42.2962C30.0925 44.6026 32.5627 46.4722 35.6098 46.4722Z" fill="#EF8521"/>
<path d="M31.712 43.0188C31.712 40.6953 33.4671 38.7381 35.8619 38.127C35.7786 38.127 35.6954 38.127 35.6098 38.127C32.5634 38.127 30.0925 39.9962 30.0925 42.3006C30.0925 43.7845 31.1175 45.0877 32.6585 45.8273C32.0471 45.0184 31.7149 44.0328 31.712 43.0188Z" fill="#E86124"/>
<path d="M58.5604 50.7338V48.339H57.8755C56.6579 46.3462 54.0063 44.9597 50.9242 44.9597C47.8422 44.9597 45.1882 46.3414 43.9848 48.3343H43.2999V50.7291C43.2999 53.9134 46.7125 56.496 50.9242 56.496C55.1359 56.496 58.5604 53.9181 58.5604 50.7338Z" fill="#E86124"/>
<path d="M45.552 50.7336V48.3388H46.2393C47.2928 46.5933 49.4593 45.3162 52.0514 45.0261C51.6771 44.9849 51.3008 44.9643 50.9242 44.9642C47.8326 44.9642 45.1882 46.3459 43.9848 48.3388H43.2999V50.7336C43.2999 53.9179 46.7125 56.5005 50.9242 56.5005C51.3008 56.5005 51.6771 56.4798 52.0514 56.4387C48.3748 56.0273 45.552 53.6301 45.552 50.7336Z" fill="#DC4A26"/>
<path d="M50.9242 54.1078C55.135 54.1078 58.5485 51.5247 58.5485 48.3384C58.5485 45.1521 55.135 42.5691 50.9242 42.5691C46.7134 42.5691 43.2999 45.1521 43.2999 48.3384C43.2999 51.5247 46.7134 54.1078 50.9242 54.1078Z" fill="#F0E92D"/>
<path d="M50.9252 52.5146C53.9723 52.5146 56.4425 50.6449 56.4425 48.3386C56.4425 46.0323 53.9723 44.1626 50.9252 44.1626C47.8781 44.1626 45.408 46.0323 45.408 48.3386C45.408 50.6449 47.8781 52.5146 50.9252 52.5146Z" fill="#EF8521"/>
<path d="M47.0275 49.062C47.0275 46.7362 48.7801 44.7814 51.1773 44.1678H50.9252C47.8788 44.1678 45.408 46.0371 45.408 48.3438C45.408 49.8278 46.4305 51.1286 47.974 51.8682C47.3619 51.0605 47.0297 50.0754 47.0275 49.062Z" fill="#E86124"/>
<path d="M61.1772 43.7708V41.3713H60.4899C59.289 39.3808 56.635 37.9967 53.5529 37.9967C50.4709 37.9967 47.8169 39.3808 46.6136 41.3713H45.9263V43.7708C45.9263 46.9575 49.3413 49.5401 53.5529 49.5401C57.7646 49.5401 61.1772 46.9527 61.1772 43.7708Z" fill="#E86124"/>
<path d="M48.1733 43.7708V41.3713H48.8606C49.9117 39.6281 52.0782 38.351 54.6703 38.0609C54.2969 38.0177 53.9213 37.9963 53.5455 37.9967C50.4539 37.9967 47.8094 39.3808 46.6061 41.3713H45.9188V43.7708C45.9188 46.9575 49.3338 49.5401 53.5455 49.5401C53.9213 49.5402 54.2968 49.5195 54.6703 49.4783C50.9937 49.0598 48.1733 46.6626 48.1733 43.7708Z" fill="#DC4A26"/>
<path d="M53.5446 47.1402C57.7553 47.1402 61.1688 44.5572 61.1688 41.3709C61.1688 38.1846 57.7553 35.6016 53.5446 35.6016C49.3338 35.6016 45.9203 38.1846 45.9203 41.3709C45.9203 44.5572 49.3338 47.1402 53.5446 47.1402Z" fill="#F0E92D"/>
<path d="M53.5456 45.5471C56.5927 45.5471 59.0628 43.6774 59.0628 41.3711C59.0628 39.0647 56.5927 37.1951 53.5456 37.1951C50.4985 37.1951 48.0283 39.0647 48.0283 41.3711C48.0283 43.6774 50.4985 45.5471 53.5456 45.5471Z" fill="#EF8521"/>
<path d="M49.6449 42.1057C49.6449 39.7799 51.3999 37.8251 53.7971 37.2115C53.7139 37.2115 53.6282 37.2115 53.545 37.2115C50.4963 37.2115 48.0254 39.0808 48.0254 41.3852C48.0254 42.8691 49.0504 44.1723 50.5914 44.9119C49.9803 44.1037 49.6482 43.1189 49.6449 42.1057Z" fill="#E86124"/>
<path d="M45.5761 42.3625V39.9654H44.8912C43.6878 37.9749 41.0338 36.5908 37.9518 36.5908C34.8697 36.5908 32.2157 37.9749 31.0124 39.9654H30.3275V42.3602C30.3275 45.5469 33.7401 48.1295 37.9518 48.1295C42.1635 48.1295 45.5761 45.5492 45.5761 42.3625Z" fill="#E86124"/>
<path d="M32.5796 42.3625V39.9654H33.2669C34.318 38.2222 36.4869 36.9428 39.079 36.6527C38.7047 36.6115 38.3284 36.5909 37.9518 36.5908C34.8602 36.5908 32.2157 37.9749 31.0124 39.9654H30.3275V42.3602C30.3275 45.5469 33.7401 48.1295 37.9518 48.1295C38.3285 48.1298 38.7048 48.1084 39.079 48.0653C35.4024 47.6562 32.5796 45.2591 32.5796 42.3625Z" fill="#DC4A26"/>
<path d="M37.9518 45.7374C42.1626 45.7374 45.5761 43.1544 45.5761 39.9681C45.5761 36.7818 42.1626 34.1987 37.9518 34.1987C33.741 34.1987 30.3275 36.7818 30.3275 39.9681C30.3275 43.1544 33.741 45.7374 37.9518 45.7374Z" fill="#F0E92D"/>
<path d="M37.9513 44.1441C40.9984 44.1441 43.4686 42.2744 43.4686 39.9681C43.4686 37.6618 40.9984 35.7921 37.9513 35.7921C34.9042 35.7921 32.4341 37.6618 32.4341 39.9681C32.4341 42.2744 34.9042 44.1441 37.9513 44.1441Z" fill="#EF8521"/>
<path d="M34.0512 40.6908C34.0512 38.365 35.8063 36.4102 38.2034 35.7966H37.9513C34.9026 35.7966 32.4341 37.6658 32.4341 39.9726C32.4341 41.4566 33.4567 42.7574 35.0001 43.4994C34.3869 42.6912 34.0538 41.7053 34.0512 40.6908Z" fill="#E86124"/>
<path d="M48.7534 51.5442V49.1495H48.0661C46.877 47.159 44.2112 45.7749 41.1291 45.7749C38.047 45.7749 35.3931 47.159 34.1897 49.1495H33.5024V51.5442C33.5024 54.7286 36.9198 57.3255 41.1291 57.3255C45.3384 57.3255 48.7534 54.7286 48.7534 51.5442Z" fill="#E86124"/>
<path d="M35.7576 51.5442V49.1495H36.4449C37.4984 47.4063 39.6648 46.1269 42.257 45.8367C41.8835 45.7955 41.508 45.7749 41.1322 45.7749C38.0406 45.7749 35.3961 47.159 34.1928 49.1495H33.5055V51.5442C33.5031 54.7286 36.9205 57.3255 41.1298 57.3255C41.5056 57.3247 41.8811 57.3033 42.2546 57.2613C38.5852 56.8498 35.7576 54.4408 35.7576 51.5442Z" fill="#DC4A26"/>
<path d="M41.1298 54.9193C45.3405 54.9193 48.754 52.3363 48.754 49.15C48.754 45.9636 45.3405 43.3806 41.1298 43.3806C36.919 43.3806 33.5055 45.9636 33.5055 49.15C33.5055 52.3363 36.919 54.9193 41.1298 54.9193Z" fill="#F0E92D"/>
<path d="M41.1293 53.326C44.1764 53.326 46.6466 51.4563 46.6466 49.15C46.6466 46.8437 44.1764 44.974 41.1293 44.974C38.0822 44.974 35.6121 46.8437 35.6121 49.15C35.6121 51.4563 38.0822 53.326 41.1293 53.326Z" fill="#EF8521"/>
<path d="M37.2285 49.8727C37.2285 47.5469 38.9836 45.5921 41.3807 44.9785H41.1286C38.0799 44.9785 35.609 46.8477 35.609 49.1545C35.609 50.6385 36.634 51.9393 38.175 52.6813C37.5639 51.8722 37.2318 50.8867 37.2285 49.8727Z" fill="#E86124"/>
<path d="M68.9411 51.6587V49.2616H68.2562C67.0528 47.2711 64.3988 45.8894 61.3168 45.8894C58.2347 45.8894 55.5807 47.2711 54.3774 49.2616H53.6925V51.6587C53.6925 54.8431 57.1051 57.4257 61.3168 57.4257C65.5284 57.4257 68.9411 54.8431 68.9411 51.6587Z" fill="#E86124"/>
<path d="M55.9446 51.6587V49.2616H56.6319C57.6854 47.5184 59.8519 46.2414 62.444 45.9512C62.0697 45.9101 61.6934 45.8895 61.3168 45.8894C58.2252 45.8894 55.5807 47.2711 54.3774 49.2616H53.6925V51.6587C53.6925 54.8431 57.1051 57.4257 61.3168 57.4257C61.6934 57.4257 62.0697 57.405 62.444 57.3639C58.7674 56.9525 55.9446 54.5553 55.9446 51.6587Z" fill="#DC4A26"/>
<path d="M61.3168 55.0307C65.5276 55.0307 68.9411 52.4477 68.9411 49.2614C68.9411 46.0751 65.5276 43.4921 61.3168 43.4921C57.106 43.4921 53.6925 46.0751 53.6925 49.2614C53.6925 52.4477 57.106 55.0307 61.3168 55.0307Z" fill="#F0E92D"/>
<path d="M61.3179 53.4376C64.365 53.4376 66.8352 51.5679 66.8352 49.2616C66.8352 46.9552 64.365 45.0856 61.3179 45.0856C58.2708 45.0856 55.8007 46.9552 55.8007 49.2616C55.8007 51.5679 58.2708 53.4376 61.3179 53.4376Z" fill="#EF8521"/>
<path d="M57.4178 49.9865C57.4178 47.6607 59.1728 45.7058 61.57 45.0923H61.3179C58.2715 45.0923 55.8007 46.9615 55.8007 49.2659C55.8007 50.7522 56.8232 52.0531 58.3667 52.7927C57.7539 51.9852 57.4209 51.0001 57.4178 49.9865Z" fill="#E86124"/>
<path d="M76.5681 47.0855V44.6907H75.8808C74.6798 42.7002 72.0235 41.3162 68.9414 41.3162C65.8594 41.3162 63.2054 42.7002 62.0044 44.6907H61.3171V47.0855C61.3171 50.2722 64.7321 52.8548 68.9414 52.8548C73.1507 52.8548 76.5681 50.2722 76.5681 47.0855Z" fill="#E86124"/>
<path d="M63.5694 47.0855V44.6907H64.2686C65.3221 42.9476 67.4886 41.6705 70.0807 41.3804C69.7065 41.3372 69.3302 41.3157 68.9535 41.3162C65.8619 41.3162 63.2175 42.7002 62.0165 44.6907H61.3292V47.0855C61.3292 50.2722 64.7442 52.8548 68.9535 52.8548C69.3301 52.8548 69.7064 52.8342 70.0807 52.793C66.3923 52.3792 63.5694 49.9821 63.5694 47.0855Z" fill="#DC4A26"/>
<path d="M68.9414 50.4598C73.1522 50.4598 76.5657 47.8768 76.5657 44.6905C76.5657 41.5042 73.1522 38.9211 68.9414 38.9211C64.7306 38.9211 61.3171 41.5042 61.3171 44.6905C61.3171 47.8768 64.7306 50.4598 68.9414 50.4598Z" fill="#F0E92D"/>
<path d="M68.941 48.8665C71.9881 48.8665 74.4582 46.9969 74.4582 44.6905C74.4582 42.3842 71.9881 40.5145 68.941 40.5145C65.8939 40.5145 63.4237 42.3842 63.4237 44.6905C63.4237 46.9969 65.8939 48.8665 68.941 48.8665Z" fill="#EF8521"/>
<path d="M65.0432 45.4163C65.0432 43.0905 66.7983 41.1357 69.193 40.5221C69.1098 40.5221 69.0266 40.5221 68.941 40.5221C65.8946 40.5221 63.4237 42.3913 63.4237 44.6957C63.4237 46.1797 64.4487 47.4829 65.9897 48.2225C65.3786 47.4143 65.0465 46.4295 65.0432 45.4163Z" fill="#E86124"/>
<path d="M29.4071 51.5442V49.1495H28.7198C27.5307 47.159 24.8648 45.7749 21.7828 45.7749C18.7007 45.7749 16.0467 47.159 14.8434 49.1495H14.1561V51.5442C14.1561 54.7286 17.5711 57.3136 21.7828 57.3136C25.9944 57.3136 29.4071 54.7286 29.4071 51.5442Z" fill="#E86124"/>
<path d="M16.4106 51.5442V49.1495H17.0955C18.149 47.4063 20.3155 46.1269 22.9076 45.8367C22.5341 45.7955 22.1586 45.7749 21.7828 45.7749C18.6912 45.7749 16.0467 47.159 14.8434 49.1495H14.1561V51.5442C14.1561 54.7286 17.5711 57.3136 21.7828 57.3136C22.1586 57.3128 22.5342 57.2914 22.9076 57.2494C19.2311 56.8498 16.4106 54.4408 16.4106 51.5442Z" fill="#DC4A26"/>
<path d="M21.7834 54.9193C25.9942 54.9193 29.4077 52.3363 29.4077 49.15C29.4077 45.9636 25.9942 43.3806 21.7834 43.3806C17.5727 43.3806 14.1592 45.9636 14.1592 49.15C14.1592 52.3363 17.5727 54.9193 21.7834 54.9193Z" fill="#F0E92D"/>
<path d="M21.783 53.326C24.8301 53.326 27.3003 51.4563 27.3003 49.15C27.3003 46.8437 24.8301 44.974 21.783 44.974C18.7359 44.974 16.2657 46.8437 16.2657 49.15C16.2657 51.4563 18.7359 53.326 21.783 53.326Z" fill="#EF8521"/>
<path d="M17.8943 49.8727C17.8943 47.5469 19.6493 45.5921 22.0465 44.9785H21.7944C18.7457 44.9785 16.2748 46.8477 16.2748 49.1545C16.2748 50.6385 17.2997 51.9393 18.8408 52.6813C18.2297 51.8722 17.8975 50.8867 17.8943 49.8727Z" fill="#E86124"/>
<path d="M33.2028 43.4397V41.045H32.5156C31.3146 39.0545 28.6606 37.6704 25.5786 37.6704C22.4965 37.6704 19.8401 39.0545 18.6392 41.045H17.9519V43.4397C17.9519 46.6264 21.3669 49.2091 25.5786 49.2091C29.7902 49.2091 33.2028 46.6241 33.2028 43.4397Z" fill="#E86124"/>
<path d="M20.2064 43.4397V41.045H20.8913C21.9448 39.3018 24.1113 38.0224 26.7034 37.7322C26.3299 37.691 25.9544 37.6704 25.5786 37.6704C22.487 37.6704 19.8401 39.0545 18.6392 41.045H17.9519V43.4397C17.9519 46.6264 21.3669 49.2091 25.5786 49.2091C25.9544 49.2095 26.33 49.1881 26.7034 49.1449C23.0268 48.7335 20.2064 46.3363 20.2064 43.4397Z" fill="#DC4A26"/>
<path d="M25.5792 46.8147C29.79 46.8147 33.2035 44.2317 33.2035 41.0453C33.2035 37.859 29.79 35.276 25.5792 35.276C21.3685 35.276 17.955 37.859 17.955 41.0453C17.955 44.2317 21.3685 46.8147 25.5792 46.8147Z" fill="#F0E92D"/>
<path d="M25.5788 45.2215C28.6259 45.2215 31.096 43.3518 31.096 41.0455C31.096 38.7392 28.6259 36.8695 25.5788 36.8695C22.5317 36.8695 20.0615 38.7392 20.0615 41.0455C20.0615 43.3518 22.5317 45.2215 25.5788 45.2215Z" fill="#EF8521"/>
<path d="M21.678 41.7682C21.678 39.4424 23.433 37.4876 25.8302 36.874H25.5781C22.5294 36.874 20.0585 38.7432 20.0585 41.05C20.0585 42.534 21.0835 43.8348 22.6245 44.5768C22.0131 43.7678 21.6809 42.7822 21.678 41.7682Z" fill="#E86124"/>
<path d="M38.6083 51.93V49.5352H37.921C36.7177 47.5447 34.0637 46.1606 30.9817 46.1606C27.8996 46.1606 25.2456 47.5447 24.0446 49.5352H23.3645V51.93C23.3645 55.1167 26.7795 57.6993 30.9888 57.6993C35.1981 57.6993 38.6083 55.1167 38.6083 51.93Z" fill="#E86124"/>
<path d="M25.6095 51.93V49.5352H26.2967C27.3502 47.792 29.5167 46.515 32.1089 46.2249C31.7347 46.1817 31.3583 46.1603 30.9817 46.1606C27.8901 46.1606 25.2456 47.5447 24.0446 49.5352H23.3645V51.93C23.3645 55.1167 26.7795 57.6993 30.9888 57.6993C31.3654 57.6993 31.7417 57.6786 32.116 57.6375C28.4323 57.2237 25.6095 54.8265 25.6095 51.93Z" fill="#DC4A26"/>
<path d="M30.9812 55.3043C35.192 55.3043 38.6055 52.7213 38.6055 49.535C38.6055 46.3486 35.192 43.7656 30.9812 43.7656C26.7705 43.7656 23.3569 46.3486 23.3569 49.535C23.3569 52.7213 26.7705 55.3043 30.9812 55.3043Z" fill="#F0E92D"/>
<path d="M30.9808 53.711C34.0279 53.711 36.498 51.8413 36.498 49.535C36.498 47.2287 34.0279 45.359 30.9808 45.359C27.9337 45.359 25.4635 47.2287 25.4635 49.535C25.4635 51.8413 27.9337 53.711 30.9808 53.711Z" fill="#EF8521"/>
<path d="M27.083 50.2584C27.083 47.935 28.8381 45.9778 31.2328 45.3666C31.1496 45.3666 31.0664 45.3666 30.9808 45.3666C27.9344 45.3666 25.4635 47.2334 25.4635 49.5402C25.4635 51.0241 26.4885 52.3274 28.0295 53.067C27.4181 52.258 27.0859 51.2724 27.083 50.2584Z" fill="#E86124"/>
<path d="M81.3123 51.93V49.5352H80.6274C79.424 47.5447 76.77 46.1606 73.688 46.1606C70.6059 46.1606 67.952 47.5447 66.7486 49.5352H66.0637V51.93C66.0637 55.1167 69.4763 57.6993 73.688 57.6993C77.8997 57.6993 81.3123 55.1167 81.3123 51.93Z" fill="#E86124"/>
<path d="M68.3113 51.93V49.5352H68.9986C70.0497 47.792 72.2186 46.515 74.8107 46.2249C74.4365 46.1817 74.0601 46.1603 73.6835 46.1606C70.5919 46.1606 67.9474 47.5447 66.7441 49.5352H66.0592V51.93C66.0592 55.1167 69.4718 57.6993 73.6835 57.6993C74.0601 57.6993 74.4364 57.6786 74.8107 57.6375C71.1389 57.2237 68.3113 54.8265 68.3113 51.93Z" fill="#DC4A26"/>
<path d="M73.688 55.3043C77.8988 55.3043 81.3123 52.7213 81.3123 49.535C81.3123 46.3486 77.8988 43.7656 73.688 43.7656C69.4772 43.7656 66.0637 46.3486 66.0637 49.535C66.0637 52.7213 69.4772 55.3043 73.688 55.3043Z" fill="#F0E92D"/>
<path d="M73.6875 53.711C76.7346 53.711 79.2048 51.8413 79.2048 49.535C79.2048 47.2287 76.7346 45.359 73.6875 45.359C70.6405 45.359 68.1703 47.2287 68.1703 49.535C68.1703 51.8413 70.6405 53.711 73.6875 53.711Z" fill="#EF8521"/>
<path d="M69.7874 50.2584C69.7874 47.935 71.5425 45.9778 73.9396 45.3666C73.8564 45.3666 73.7732 45.3666 73.6875 45.3666C70.6388 45.3666 68.1703 47.2334 68.1703 49.5402C68.1703 51.0241 69.1929 52.3274 70.7363 53.067C70.1231 52.2588 69.79 51.2728 69.7874 50.2584Z" fill="#E86124"/>
<path d="M89.5859 57.6992H6.0946V54.9192H88.7821L89.5859 57.6992Z" fill="#FFEE39"/>
<path d="M51.8392 57.5328H41.3944C40.6609 57.5328 39.9574 57.8242 39.4387 58.3429C38.9201 58.8616 38.6287 59.5651 38.6287 60.2986V66.0204C38.6287 67.5471 39.0781 68.1821 41.3944 68.1821H51.8392C53.7964 68.1821 54.6049 67.5471 54.6049 66.0204V60.2986C54.6049 59.5651 54.3135 58.8616 53.7948 58.3429C53.2762 57.8242 52.5727 57.5328 51.8392 57.5328Z" fill="#EF8412"/>
<path d="M51.8392 56.0869H41.3944C39.8669 56.0869 38.6287 57.3252 38.6287 58.8527V64.5745C38.6287 66.1019 39.8669 67.3402 41.3944 67.3402H51.8392C53.3666 67.3402 54.6049 66.1019 54.6049 64.5745V58.8527C54.6049 57.3252 53.3666 56.0869 51.8392 56.0869Z" fill="#FDCB08"/>
<path d="M48.3459 59.8017C48.3463 60.1438 48.2453 60.4783 48.0556 60.7629C47.866 61.0475 47.5961 61.2695 47.2802 61.4007C46.9643 61.5319 46.6167 61.5665 46.2811 61.5001C45.9456 61.4336 45.6373 61.2692 45.3953 61.0275C45.1533 60.7858 44.9884 60.4777 44.9215 60.1423C44.8546 59.8068 44.8886 59.4591 45.0194 59.143C45.1502 58.827 45.3718 58.5568 45.6562 58.3667C45.9406 58.1767 46.2749 58.0752 46.617 58.0752C47.0751 58.0752 47.5145 58.257 47.8386 58.5807C48.1628 58.9045 48.3452 59.3436 48.3459 59.8017Z" fill="#3B276F"/>
<path d="M46.6174 59.8036L45.1096 64.6502H48.3462L46.6174 59.8036Z" fill="#3B276F"/>
</g>
<defs>
<filter id="filter0_d_22_203" x="0.773926" y="0.0319824" width="92.5801" height="99.6188" filterUnits="userSpaceOnUse" color-interpolation-filters="sRGB">
<feFlood flood-opacity="0" result="BackgroundImageFix"/>
<feColorMatrix in="SourceAlpha" type="matrix" values="0 0 0 0 0 0 0 0 0 0 0 0 0 0 0 0 0 0 127 0" result="hardAlpha"/>
<feOffset dy="3.086"/>
<feComposite in2="hardAlpha" operator="out"/>
<feColorMatrix type="matrix" values="0 0 0 0 0 0 0 0 0 0 0 0 0 0 0 0 0 0 0.15 0"/>
<feBlend mode="normal" in2="BackgroundImageFix" result="effect1_dropShadow_22_203"/>
<feBlend mode="normal" in="SourceGraphic" in2="effect1_dropShadow_22_203" result="shape"/>
</filter>
<linearGradient id="paint0_linear_22_203" x1="46.7367" y1="22.037" x2="46.7367" y2="43.4592" gradientUnits="userSpaceOnUse">
<stop stop-color="#5015CD"/>
<stop offset="1" stop-color="#4E3ADD"/>
</linearGradient>
<linearGradient id="paint1_linear_22_203" x1="47.5531" y1="12.3081" x2="47.5531" y2="43.4592" gradientUnits="userSpaceOnUse">
<stop stop-color="#994FFF"/>
<stop offset="1" stop-color="#2611A6"/>
</linearGradient>
<linearGradient id="paint2_linear_22_203" x1="45.4391" y1="0.0341797" x2="45.4391" y2="22.8433" gradientUnits="userSpaceOnUse">
<stop stop-color="#7954FD"/>
<stop offset="1" stop-color="#7B2CEF"/>
</linearGradient>
<linearGradient id="paint3_linear_22_203" x1="47.0639" y1="0.0319824" x2="47.0639" y2="24.7455" gradientUnits="userSpaceOnUse">
<stop stop-color="#FEF270"/>
<stop offset="1" stop-color="#FFD217"/>
</linearGradient>
<linearGradient id="paint4_linear_22_203" x1="46.0719" y1="60.7959" x2="46.0719" y2="92.9529" gradientUnits="userSpaceOnUse">
<stop stop-color="#641FEE"/>
<stop offset="1" stop-color="#A85AFF"/>
</linearGradient>
<linearGradient id="paint5_linear_22_203" x1="47.343" y1="58.0225" x2="47.343" y2="96.5648" gradientUnits="userSpaceOnUse">
<stop stop-color="#FED903"/>
<stop offset="1" stop-color="#EF8521"/>
</linearGradient>
</defs>
</svg>
