<svg width="28" height="31" viewBox="0 0 28 31" fill="none" xmlns="http://www.w3.org/2000/svg">
<g filter="url(#filter0_d_44_1569)">
<circle cx="14" cy="14" r="14" fill="#FF4672"/>
<circle cx="14" cy="14" r="12.9417" stroke="white" stroke-width="2.1166"/>
</g>
<mask id="path-3-inside-1_44_1569" fill="white">
<path fill-rule="evenodd" clip-rule="evenodd" d="M20.2484 8.3487C19.3626 7.42549 17.896 7.39521 16.9728 8.28106L14.0164 11.1179L11.0599 8.28106C10.1367 7.39521 8.67018 7.42549 7.78433 8.3487C6.89848 9.27191 6.92877 10.7384 7.85198 11.6243L10.6703 14.3286L7.71281 17.1664C6.7896 18.0522 6.75931 19.5188 7.64516 20.442C8.53101 21.3652 9.99754 21.3955 10.9208 20.5096L14.0164 17.5392L17.112 20.5096C18.0352 21.3955 19.5017 21.3652 20.3876 20.442C21.2734 19.5188 21.2432 18.0522 20.3199 17.1664L17.3625 14.3286L20.1808 11.6243C21.104 10.7384 21.1343 9.27191 20.2484 8.3487Z"/>
</mask>
<path fill-rule="evenodd" clip-rule="evenodd" d="M20.2484 8.3487C19.3626 7.42549 17.896 7.39521 16.9728 8.28106L14.0164 11.1179L11.0599 8.28106C10.1367 7.39521 8.67018 7.42549 7.78433 8.3487C6.89848 9.27191 6.92877 10.7384 7.85198 11.6243L10.6703 14.3286L7.71281 17.1664C6.7896 18.0522 6.75931 19.5188 7.64516 20.442C8.53101 21.3652 9.99754 21.3955 10.9208 20.5096L14.0164 17.5392L17.112 20.5096C18.0352 21.3955 19.5017 21.3652 20.3876 20.442C21.2734 19.5188 21.2432 18.0522 20.3199 17.1664L17.3625 14.3286L20.1808 11.6243C21.104 10.7384 21.1343 9.27191 20.2484 8.3487Z" fill="white"/>
<path d="M16.9728 8.28106L17.4613 8.79014L17.4613 8.79014L16.9728 8.28106ZM20.2484 8.3487L20.7575 7.86022L20.7575 7.86022L20.2484 8.3487ZM14.0164 11.1179L13.5279 11.627L14.0164 12.0957L14.5049 11.627L14.0164 11.1179ZM11.0599 8.28106L10.5714 8.79014V8.79014L11.0599 8.28106ZM7.78433 8.3487L8.29341 8.83718L7.78433 8.3487ZM7.85198 11.6243L7.36349 12.1334H7.36349L7.85198 11.6243ZM10.6703 14.3286L11.1588 14.8376L11.6893 14.3286L11.1588 13.8195L10.6703 14.3286ZM7.71281 17.1664L7.22433 16.6573L7.71281 17.1664ZM7.64516 20.442L8.15425 19.9535L7.64516 20.442ZM10.9208 20.5096L11.4092 21.0187L10.9208 20.5096ZM14.0164 17.5392L14.5049 17.0302L14.0164 16.5615L13.5279 17.0302L14.0164 17.5392ZM17.112 20.5096L17.6005 20.0005L17.6005 20.0005L17.112 20.5096ZM20.3199 17.1664L19.8315 17.6755V17.6755L20.3199 17.1664ZM17.3625 14.3286L16.874 13.8195L16.3434 14.3286L16.874 14.8376L17.3625 14.3286ZM20.1808 11.6243L19.6923 11.1152L20.1808 11.6243ZM17.4613 8.79014C18.1034 8.17407 19.1233 8.19513 19.7393 8.83718L20.7575 7.86022C19.6019 6.65585 17.6887 6.61635 16.4844 7.77198L17.4613 8.79014ZM14.5049 11.627L17.4613 8.79014L16.4844 7.77198L13.5279 10.6088L14.5049 11.627ZM14.5049 10.6088L11.5484 7.77198L10.5714 8.79014L13.5279 11.627L14.5049 10.6088ZM11.5484 7.77198C10.344 6.61635 8.43088 6.65585 7.27525 7.86022L8.29341 8.83718C8.90948 8.19513 9.92939 8.17407 10.5714 8.79014L11.5484 7.77198ZM7.27525 7.86022C6.11962 9.06459 6.15913 10.9777 7.36349 12.1334L8.34046 11.1152C7.69841 10.4991 7.67734 9.47923 8.29341 8.83718L7.27525 7.86022ZM7.36349 12.1334L10.1818 14.8376L11.1588 13.8195L8.34046 11.1152L7.36349 12.1334ZM8.20129 17.6755L11.1588 14.8376L10.1818 13.8195L7.22433 16.6573L8.20129 17.6755ZM8.15425 19.9535C7.53818 19.3114 7.55924 18.2915 8.20129 17.6755L7.22433 16.6573C6.01996 17.8129 5.98045 19.7261 7.13608 20.9304L8.15425 19.9535ZM10.4323 20.0005C9.79022 20.6166 8.77031 20.5955 8.15425 19.9535L7.13608 20.9304C8.29171 22.1348 10.2049 22.1743 11.4092 21.0187L10.4323 20.0005ZM13.5279 17.0302L10.4323 20.0005L11.4092 21.0187L14.5049 18.0483L13.5279 17.0302ZM13.5279 18.0483L16.6235 21.0187L17.6005 20.0005L14.5049 17.0302L13.5279 18.0483ZM16.6235 21.0187C17.8279 22.1743 19.741 22.1348 20.8967 20.9304L19.8785 19.9535C19.2624 20.5955 18.2425 20.6166 17.6005 20.0005L16.6235 21.0187ZM20.8967 20.9304C22.0523 19.7261 22.0128 17.8129 20.8084 16.6573L19.8315 17.6755C20.4735 18.2915 20.4946 19.3114 19.8785 19.9535L20.8967 20.9304ZM20.8084 16.6573L17.8509 13.8195L16.874 14.8376L19.8315 17.6755L20.8084 16.6573ZM19.6923 11.1152L16.874 13.8195L17.8509 14.8376L20.6693 12.1334L19.6923 11.1152ZM19.7393 8.83718C20.3554 9.47923 20.3343 10.4991 19.6923 11.1152L20.6693 12.1334C21.8736 10.9777 21.9131 9.06459 20.7575 7.86022L19.7393 8.83718Z" fill="#E90038" mask="url(#path-3-inside-1_44_1569)"/>
<defs>
<filter id="filter0_d_44_1569" x="0" y="0" width="28" height="30.1166" filterUnits="userSpaceOnUse" color-interpolation-filters="sRGB">
<feFlood flood-opacity="0" result="BackgroundImageFix"/>
<feColorMatrix in="SourceAlpha" type="matrix" values="0 0 0 0 0 0 0 0 0 0 0 0 0 0 0 0 0 0 127 0" result="hardAlpha"/>
<feOffset dy="2.1166"/>
<feComposite in2="hardAlpha" operator="out"/>
<feColorMatrix type="matrix" values="0 0 0 0 1 0 0 0 0 0.15 0 0 0 0 0.352162 0 0 0 1 0"/>
<feBlend mode="normal" in2="BackgroundImageFix" result="effect1_dropShadow_44_1569"/>
<feBlend mode="normal" in="SourceGraphic" in2="effect1_dropShadow_44_1569" result="shape"/>
</filter>
</defs>
</svg>
