<svg width="113" height="83" viewBox="0 0 113 83" fill="none" xmlns="http://www.w3.org/2000/svg">
<path d="M74.7197 53.601V46.8069H72.7723C69.3618 41.158 61.8278 37.232 53.0843 37.232C44.3407 37.232 36.8047 41.158 33.3942 46.8069H31.4468V53.601C31.4468 62.6438 41.1339 69.972 53.0843 69.972C65.0347 69.972 74.7197 62.6542 74.7197 53.601Z" fill="#E86124"/>
<path d="M37.8397 53.601V46.8069H39.7871C42.7758 41.8584 48.9318 38.2338 56.2808 37.4087C55.2194 37.2907 54.1522 37.2317 53.0843 37.232C44.3387 37.232 36.8047 41.158 33.3942 46.8069H31.4468V53.601C31.4468 62.6438 41.1339 69.972 53.0843 69.972C54.1523 69.9727 55.2195 69.913 56.2808 69.7932C45.8455 68.6252 37.8397 61.8228 37.8397 53.601Z" fill="#DC4A26"/>
<path d="M53.0843 63.178C65.0343 63.178 74.7218 55.8485 74.7218 46.807C74.7218 37.7656 65.0343 30.436 53.0843 30.436C41.1342 30.436 31.4468 37.7656 31.4468 46.807C31.4468 55.8485 41.1342 63.178 53.0843 63.178Z" fill="#F0E92D"/>
<path d="M53.0851 58.6535C61.7329 58.6535 68.7433 53.3496 68.7433 46.807C68.7433 40.2644 61.7329 34.9605 53.0851 34.9605C44.4374 34.9605 37.427 40.2644 37.427 46.807C37.427 53.3496 44.4374 58.6535 53.0851 58.6535Z" fill="#EF8521"/>
<path d="M42.0194 48.8607C42.0194 42.262 47.0074 36.7024 53.7994 34.9733C53.5624 34.9733 53.3234 34.9587 53.0844 34.9587C44.4344 34.9587 37.4242 40.2626 37.4242 46.8052C37.4242 51.0159 40.3339 54.7029 44.6984 56.8124C42.9688 54.5213 42.0288 51.7312 42.0194 48.8607Z" fill="#E86124"/>
<path d="M72.4357 43.7642V36.968H70.4883C67.0756 31.3191 59.5438 27.3932 50.7982 27.3932C42.0525 27.3932 34.5207 31.3191 31.108 36.968H29.1606V43.7642C29.1606 52.8049 38.8477 60.1352 50.7982 60.1352C62.7486 60.1352 72.4357 52.8049 72.4357 43.7642Z" fill="#E86124"/>
<path d="M35.5557 43.7642V36.968H37.5031C40.4896 32.0216 46.6477 28.397 53.9946 27.5719C52.9333 27.4532 51.8661 27.3935 50.7981 27.3932C42.0525 27.3932 34.5207 31.3191 31.108 36.968H29.1606V43.7642C29.1606 52.8049 38.8477 60.1352 50.7981 60.1352C51.8661 60.1349 52.9333 60.0752 53.9946 59.9565C43.5614 58.7885 35.5557 51.984 35.5557 43.7642Z" fill="#DC4A26"/>
<path d="M50.7982 53.3392C62.7482 53.3392 72.4357 46.0096 72.4357 36.9682C72.4357 27.9267 62.7482 20.5972 50.7982 20.5972C38.8481 20.5972 29.1606 27.9267 29.1606 36.9682C29.1606 46.0096 38.8481 53.3392 50.7982 53.3392Z" fill="#F0E92D"/>
<path d="M50.7983 48.8146C59.446 48.8146 66.4564 43.5108 66.4564 36.9682C66.4564 30.4255 59.446 25.1217 50.7983 25.1217C42.1505 25.1217 35.1401 30.4255 35.1401 36.9682C35.1401 43.5108 42.1505 48.8146 50.7983 48.8146Z" fill="#EF8521"/>
<path d="M39.7353 39.0236C39.7353 32.4249 44.7233 26.8654 51.5153 25.1362C51.2763 25.1362 51.0394 25.1217 50.7983 25.1217C42.1503 25.1217 35.1401 30.4256 35.1401 36.9682C35.1401 41.1789 38.0498 44.8658 42.4143 46.9753C40.6833 44.6851 39.7431 41.8945 39.7353 39.0236Z" fill="#E86124"/>
<path d="M74.7197 33.8346V27.0384H72.7723C69.3618 21.3895 61.8278 17.4636 53.0843 17.4636C44.3407 17.4636 36.8047 21.3895 33.3942 27.0384H31.4468V33.8346C31.4468 42.8753 41.1339 50.2035 53.0843 50.2035C65.0347 50.2035 74.7197 42.8753 74.7197 33.8346Z" fill="#E86124"/>
<path d="M37.8397 33.8346V27.0384H39.7871C42.7758 22.0899 48.9318 18.4653 56.2808 17.6423C55.2195 17.5226 54.1523 17.4629 53.0843 17.4636C44.3387 17.4636 36.8047 21.3895 33.3942 27.0384H31.4468V33.8346C31.4468 42.8753 41.1339 50.2035 53.0843 50.2035C54.1522 50.2038 55.2194 50.1449 56.2808 50.0269C45.8455 48.8568 37.8397 42.0523 37.8397 33.8346Z" fill="#DC4A26"/>
<path d="M53.0843 43.4091C65.0343 43.4091 74.7218 36.0795 74.7218 27.038C74.7218 17.9966 65.0343 10.667 53.0843 10.667C41.1342 10.667 31.4468 17.9966 31.4468 27.038C31.4468 36.0795 41.1342 43.4091 53.0843 43.4091Z" fill="#F0E92D"/>
<path d="M53.0851 38.8845C61.7329 38.8845 68.7433 33.5807 68.7433 27.038C68.7433 20.4954 61.7329 15.1916 53.0851 15.1916C44.4374 15.1916 37.427 20.4954 37.427 27.038C37.427 33.5807 44.4374 38.8845 53.0851 38.8845Z" fill="#EF8521"/>
<path d="M42.0194 29.0914C42.0194 22.4948 47.0074 16.9332 53.7994 15.204C53.5624 15.204 53.3234 15.1916 53.0844 15.1916C44.4344 15.1916 37.4242 20.4955 37.4242 27.038C37.4242 31.2487 40.3339 34.9357 44.6984 37.0452C42.9684 34.7536 42.0284 31.9627 42.0194 29.0914Z" fill="#E86124"/>
<path d="M72.4357 23.9974V17.2013H70.4883C67.0756 11.5524 59.5438 7.6264 50.7982 7.6264C42.0525 7.6264 34.5207 11.5524 31.108 17.2013H29.1606V23.9974C29.1606 33.0382 38.8477 40.3664 50.7982 40.3664C62.7486 40.3664 72.4357 33.0382 72.4357 23.9974Z" fill="#E86124"/>
<path d="M35.5557 23.9974V17.2013H37.5031C40.4896 12.2528 46.6477 8.62817 53.9946 7.80307C52.9332 7.68501 51.8661 7.62602 50.7981 7.62641C42.0525 7.62641 34.5207 11.5524 31.108 17.2013H29.1606V23.9974C29.1606 33.0382 38.8477 40.3664 50.7981 40.3664C51.8662 40.3671 52.9333 40.3074 53.9946 40.1876C43.5614 39.0196 35.5557 32.2151 35.5557 23.9974Z" fill="#DC4A26"/>
<path d="M50.7981 33.5724C62.7482 33.5724 72.4356 26.2428 72.4356 17.2014C72.4356 8.1599 62.7482 0.830353 50.7981 0.830353C38.8481 0.830353 29.1606 8.1599 29.1606 17.2014C29.1606 26.2428 38.8481 33.5724 50.7981 33.5724Z" fill="#F0E92D"/>
<path d="M50.7983 29.0479C59.446 29.0479 66.4564 23.744 66.4564 17.2014C66.4564 10.6587 59.446 5.35489 50.7983 5.35489C42.1505 5.35489 35.1401 10.6587 35.1401 17.2014C35.1401 23.744 42.1505 29.0479 50.7983 29.0479Z" fill="#EF8521"/>
<path d="M39.7353 19.2545C39.7353 12.6558 44.7233 7.09629 51.5153 5.36712C51.2763 5.36712 51.0394 5.35257 50.7983 5.35257C42.1503 5.35257 35.1401 10.6565 35.1401 17.1991C35.1401 21.4098 38.0498 25.0967 42.4143 27.2062C40.684 24.9156 39.7439 22.1252 39.7353 19.2545Z" fill="#E86124"/>
<path d="M112.017 56.7377V49.9415H110.07C106.657 44.2926 99.1254 40.3666 90.3798 40.3666C81.6342 40.3666 74.1002 44.2926 70.6897 49.9415H68.7423V56.7377C68.7423 65.7784 78.4294 73.1087 90.3798 73.1087C102.33 73.1087 112.017 65.7722 112.017 56.7377Z" fill="#E86124"/>
<path d="M75.1353 56.7377V49.9415H77.0827C80.0713 44.9951 86.2273 41.3684 93.5763 40.5454C92.515 40.4256 91.4478 40.366 90.3798 40.3666C81.6342 40.3666 74.1002 44.2926 70.6897 49.9415H68.7423V56.7377C68.7423 65.7784 78.4294 73.1087 90.3798 73.1087C91.4478 73.1083 92.5149 73.0486 93.5763 72.9299C83.1431 71.7598 75.1353 64.9575 75.1353 56.7377Z" fill="#DC4A26"/>
<path d="M90.3798 66.3121C102.33 66.3121 112.017 58.9826 112.017 49.9411C112.017 40.8997 102.33 33.5701 90.3798 33.5701C78.4298 33.5701 68.7423 40.8997 68.7423 49.9411C68.7423 58.9826 78.4298 66.3121 90.3798 66.3121Z" fill="#F0E92D"/>
<path d="M90.3807 61.7876C99.0284 61.7876 106.039 56.4837 106.039 49.9411C106.039 43.3985 99.0284 38.0946 90.3807 38.0946C81.7329 38.0946 74.7225 43.3985 74.7225 49.9411C74.7225 56.4837 81.7329 61.7876 90.3807 61.7876Z" fill="#EF8521"/>
<path d="M79.3142 51.9945C79.3142 45.3979 84.3022 39.8362 91.0942 38.1071C90.8572 38.1071 90.6182 38.0946 90.3792 38.0946C81.7313 38.0946 74.719 43.3985 74.719 49.9411C74.719 54.1518 77.6287 57.8387 81.9932 59.9482C80.2629 57.6568 79.3229 54.8658 79.3142 51.9945Z" fill="#E86124"/>
<path d="M108.715 45.4189V38.6228H106.768C103.357 32.9739 95.8232 29.0479 87.0776 29.0479C78.3319 29.0479 70.8001 32.9739 67.3895 38.6228H65.4421V45.4189C65.4421 54.4597 75.1292 61.7879 87.0776 61.7879C99.0259 61.7879 108.715 54.4597 108.715 45.4189Z" fill="#E86124"/>
<path d="M71.8351 45.4189V38.6228H73.7762C76.7649 33.6743 82.9209 30.0497 90.2699 29.2246C89.2099 29.1067 88.1441 29.0478 87.0776 29.0479C78.334 29.0479 70.8001 32.9739 67.3895 38.6228H65.4421V45.4189C65.4421 54.4597 75.1292 61.7879 87.0776 61.7879C88.1462 61.7882 89.214 61.7293 90.2761 61.6112C79.8408 60.4411 71.8351 53.6367 71.8351 45.4189Z" fill="#DC4A26"/>
<path d="M87.0778 54.9938C99.0279 54.9938 108.715 47.6642 108.715 38.6228C108.715 29.5813 99.0279 22.2517 87.0778 22.2517C75.1277 22.2517 65.4403 29.5813 65.4403 38.6228C65.4403 47.6642 75.1277 54.9938 87.0778 54.9938Z" fill="#F0E92D"/>
<path d="M87.0768 50.4692C95.7246 50.4692 102.735 45.1654 102.735 38.6227C102.735 32.0801 95.7246 26.7762 87.0768 26.7762C78.4291 26.7762 71.4187 32.0801 71.4187 38.6227C71.4187 45.1654 78.4291 50.4692 87.0768 50.4692Z" fill="#EF8521"/>
<path d="M76.0139 40.6761C76.0139 34.0795 81.0019 28.5179 87.7939 26.7887C87.5569 26.7804 87.3179 26.7762 87.0768 26.7762C78.4289 26.7762 71.4187 32.0801 71.4187 38.6227C71.4187 42.8334 74.3284 46.5204 78.6929 48.6299C76.9629 46.3383 76.0229 43.5474 76.0139 40.6761Z" fill="#E86124"/>
<path d="M46.1178 43.9268L41.0529 39.3961L39.754 40.8509C33.2696 39.6268 25.322 42.6258 19.4923 49.1434C13.6626 55.6611 11.5656 63.9017 13.5046 70.2011L12.2057 71.6559L17.2706 76.1867C24.0106 82.2138 35.9319 79.8799 43.8982 70.9721C51.8644 62.0644 52.8578 49.954 46.1178 43.9268Z" fill="#E86124"/>
<path d="M21.5304 71.4169L16.4655 66.8862L17.7645 65.4313C16.0686 59.9051 17.4652 52.9052 21.7549 46.8739C20.9582 47.5878 20.2026 48.3463 19.4916 49.1455C13.6723 55.6653 11.5648 63.9017 13.5018 70.2053L12.2029 71.6601L17.2678 76.1909C24.0078 82.218 35.9291 79.8841 43.8953 70.9763C44.6075 70.1833 45.2743 69.3506 45.8926 68.4823C38.0656 75.4634 27.6573 76.8975 21.5304 71.4169Z" fill="#DC4A26"/>
<path d="M38.8295 66.4387C46.7962 57.5316 47.7913 45.4246 41.0521 39.397C34.313 33.3694 22.3916 35.7037 14.4249 44.6108C6.45825 53.5179 5.46316 65.6249 12.2023 71.6525C18.9414 77.6801 30.8628 75.3458 38.8295 66.4387Z" fill="#F0E92D"/>
<path d="M35.456 63.4229C41.2212 56.9772 41.9415 48.2161 37.0648 43.8543C32.1882 39.4926 23.5614 41.182 17.7962 47.6277C12.0311 54.0734 11.3108 62.8345 16.1874 67.1962C21.0641 71.558 29.6909 69.8686 35.456 63.4229Z" fill="#EF8521"/>
<path d="M20.7781 65.1483C15.8608 60.7506 15.0357 53.3309 18.2841 47.1105C18.1192 47.2809 17.9571 47.4555 17.7978 47.6342C12.0325 54.077 11.3113 62.8414 16.1892 67.2038C19.3275 70.0116 24.0203 70.3088 28.5033 68.4508C25.6383 68.2167 22.927 67.0576 20.7781 65.1483Z" fill="#E86124"/>
</svg>
