<svg width="17" height="16" viewBox="0 0 17 16" fill="none" xmlns="http://www.w3.org/2000/svg">
<path d="M6.1001 7.20001C6.1001 6.77566 6.26867 6.36869 6.56873 6.06864C6.86878 5.76858 7.27575 5.60001 7.7001 5.60001H12.5001C12.9244 5.60001 13.3314 5.76858 13.6315 6.06864C13.9315 6.36869 14.1001 6.77566 14.1001 7.20001V12C14.1001 12.4244 13.9315 12.8313 13.6315 13.1314C13.3314 13.4314 12.9244 13.6 12.5001 13.6H7.7001C7.27575 13.6 6.86878 13.4314 6.56873 13.1314C6.26867 12.8313 6.1001 12.4244 6.1001 12V7.20001Z" fill="white"/>
<path d="M4.4999 2.39999C4.07556 2.39999 3.66859 2.56856 3.36853 2.86862C3.06847 3.16868 2.8999 3.57565 2.8999 3.99999V8.79999C2.8999 9.22434 3.06847 9.63131 3.36853 9.93136C3.66859 10.2314 4.07556 10.4 4.4999 10.4V3.99999H10.8999C10.8999 3.57565 10.7313 3.16868 10.4313 2.86862C10.1312 2.56856 9.72425 2.39999 9.2999 2.39999H4.4999Z" fill="white"/>
</svg>
