<svg width="20" height="21" viewBox="0 0 20 21" fill="none" xmlns="http://www.w3.org/2000/svg">
<path d="M19.2734 10.6C19.2734 5.62941 15.244 1.59998 10.2734 1.59998C5.30288 1.59998 1.27344 5.62941 1.27344 10.6C1.27344 15.0921 4.56461 18.8155 8.86719 19.4906V13.2015H6.58203V10.6H8.86719V8.61716C8.86719 6.36154 10.2108 5.1156 12.2666 5.1156C13.2513 5.1156 14.2812 5.29138 14.2812 5.29138V7.50623H13.1464C12.0284 7.50623 11.6797 8.19998 11.6797 8.91172V10.6H14.1758L13.7768 13.2015H11.6797V19.4906C15.9823 18.8155 19.2734 15.0921 19.2734 10.6Z" fill="#3843FF"/>
<path d="M13.7768 13.2015L14.1758 10.6H11.6797V8.91172C11.6797 8.19998 12.0284 7.50623 13.1464 7.50623H14.2812V5.29138C14.2812 5.29138 13.2513 5.1156 12.2666 5.1156C10.2108 5.1156 8.86719 6.36154 8.86719 8.61716V10.6H6.58203V13.2015H8.86719V19.4906C9.79902 19.6364 10.7479 19.6364 11.6797 19.4906V13.2015H13.7768Z" fill="white"/>
</svg>
