<svg width="33" height="32" viewBox="0 0 33 32" fill="none" xmlns="http://www.w3.org/2000/svg">
<path d="M31.145 9.67669C31.2393 9.52026 31.2072 9.31861 31.069 9.19921L22.018 1.38279C21.9362 1.31211 21.8278 1.2802 21.7208 1.29525L8.35213 3.17409C8.24504 3.18914 8.14967 3.24968 8.09048 3.34018L1.54468 13.3486C1.44469 13.5015 1.46941 13.7041 1.60322 13.8285L18.591 29.6179C18.6737 29.6948 18.7867 29.7303 18.8985 29.7146C19.0103 29.6989 19.1091 29.6336 19.1674 29.5369L31.145 9.67669Z" fill="#EC8BEE" stroke="#1D0576" stroke-width="0.75" stroke-linecap="round" stroke-linejoin="round"/>
<path d="M21.7729 1.6666L30.8239 9.48302L1.85851 13.5538L8.40432 3.54544L21.7729 1.6666Z" fill="#FD9FFF"/>
<path d="M30.8239 9.48302L18.8463 29.3433L15.0886 2.60602L21.7729 1.6666L30.8239 9.48302Z" fill="#C86DFF"/>
<path d="M30.8239 9.48302L16.3412 11.5184L15.0886 2.60602L21.7729 1.6666L30.8239 9.48302Z" fill="#D289FF"/>
<path d="M1.85851 13.5538L18.8463 29.3433L8.91417 12.5622L15.0886 2.60602L8.40431 3.54544L1.85851 13.5538Z" fill="#DA9DFF"/>
<path d="M8.77566 3.49325L1.85851 13.5538L8.91417 12.5622L15.0886 2.60602L8.77566 3.49325Z" fill="#E5BBFF"/>
<path d="M1.85851 13.5538L18.8463 29.3433L4.45796 13.1885L11.0038 3.18011L8.40431 3.54544L1.85851 13.5538Z" fill="#E7C1FF"/>
<path d="M8.40451 3.54539L1.85871 13.5538L4.45816 13.1885L11.004 3.18006L8.40451 3.54539Z" fill="#EFD5FF"/>
<path d="M30.8239 9.48302L18.8463 29.3433L23.7682 10.4746L15.0886 2.60602L21.7729 1.6666L30.8239 9.48302Z" fill="#7233DA"/>
<path d="M21.7729 1.6666L30.8239 9.48302L23.7682 10.4746L15.0886 2.60602L21.7729 1.6666Z" fill="#8C4BF7"/>
<path d="M30.8239 9.48302L18.8463 29.3433L28.2244 9.84835L19.1735 2.03193L21.7729 1.6666L30.8239 9.48302Z" fill="#A653F9"/>
<path d="M21.7737 1.66652L30.8246 9.48294L28.2252 9.84827L19.1743 2.03185L21.7737 1.66652Z" fill="#BB77FF"/>
<path d="M3.24006 12.6023L7.28477 6.3536" stroke="white" stroke-width="0.75" stroke-linecap="round" stroke-linejoin="round"/>
<path d="M10.2958 11.6107L14.3405 5.36194" stroke="#FEB8FF" stroke-width="0.75" stroke-linecap="round" stroke-linejoin="round"/>
<circle cx="19.9899" cy="15.9286" r="0.375" transform="rotate(-8 19.9899 15.9286)" fill="#B053EA"/>
<circle cx="21.3136" cy="17.2574" r="0.375" transform="rotate(-8 21.3136 17.2574)" fill="#B053EA"/>
<circle cx="20.0888" cy="19.3229" r="0.375" transform="rotate(-8 20.0888 19.3229)" fill="#B053EA"/>
<circle cx="19.0792" cy="20.2221" r="0.375" transform="rotate(-8 19.0792 20.2221)" fill="#B053EA"/>
<circle cx="19.3923" cy="22.4502" r="0.375" transform="rotate(-8 19.3923 22.4502)" fill="#B053EA"/>
<circle cx="18.7202" cy="14.971" r="0.375" transform="rotate(-8 18.7202 14.971)" fill="#B053EA"/>
<circle cx="21.5861" cy="13.8109" r="0.375" transform="rotate(-8 21.5861 13.8109)" fill="#B053EA"/>
<circle cx="19.8885" cy="13.8601" r="0.5625" transform="rotate(-8 19.8885 13.8601)" fill="#B053EA"/>
<circle cx="19.668" cy="17.678" r="0.5625" transform="rotate(-8 19.668 17.678)" fill="#B053EA"/>
</svg>
