<svg width="37" height="34" viewBox="0 0 37 34" fill="none" xmlns="http://www.w3.org/2000/svg">
<path d="M36.0184 11.9469C36.155 11.7789 36.1506 11.5369 36.008 11.374L26.6747 0.707331C26.5903 0.61088 26.4683 0.555556 26.3402 0.555556H10.3402C10.212 0.555556 10.0901 0.61088 10.0057 0.707331L0.672357 11.374C0.529787 11.5369 0.525369 11.7789 0.661896 11.9469L17.9952 33.2803C18.0796 33.3841 18.2063 33.4444 18.3402 33.4444C18.474 33.4444 18.6007 33.3841 18.6851 33.2803L36.0184 11.9469Z" fill="#EC8BEE" stroke="#1D0576" stroke-width="0.888889" stroke-linecap="round" stroke-linejoin="round"/>
<path d="M26.3402 1L35.6735 11.6667H1.00684L10.3402 1H26.3402Z" fill="#FD9FFF"/>
<path d="M35.6761 11.6667L18.3428 33V1H26.3428L35.6761 11.6667Z" fill="#C86DFF"/>
<path d="M35.6761 11.6667H18.3428V1H26.3428L35.6761 11.6667Z" fill="#D289FF"/>
<path d="M1.00944 11.6667L18.3428 33L9.45388 11.6667L18.3428 1H10.3428L1.00944 11.6667Z" fill="#DA9DFF"/>
<path d="M10.7872 1L1.00944 11.6667H9.45388L18.3428 1H10.7872Z" fill="#E5BBFF"/>
<path d="M1.00944 11.6667L18.3428 33L4.12055 11.6667L13.4539 1H10.3428L1.00944 11.6667Z" fill="#E7C1FF"/>
<path d="M10.341 1L1.0077 11.6667H4.11882L13.4521 1H10.341Z" fill="#EFD5FF"/>
<path d="M35.6761 11.6667L18.3428 33L27.2317 11.6667L18.3428 1H26.3428L35.6761 11.6667Z" fill="#7233DA"/>
<path d="M26.3428 1L35.6761 11.6667H27.2317L18.3428 1H26.3428Z" fill="#8C4BF7"/>
<path d="M35.6761 11.6667L18.3428 33L32.565 11.6667L23.2317 1H26.3428L35.6761 11.6667Z" fill="#A653F9"/>
<path d="M26.3406 1L35.6739 11.6667H32.5628L23.2295 1H26.3406Z" fill="#BB77FF"/>
<path d="M2.78418 10.7779L8.56196 4.11121" stroke="white" stroke-width="0.888889" stroke-linecap="round" stroke-linejoin="round"/>
<path d="M11.2295 10.7779L17.0073 4.11121" stroke="#FEB8FF" stroke-width="0.888889" stroke-linecap="round" stroke-linejoin="round"/>
<circle cx="21.8888" cy="17.4441" r="0.444444" fill="#B053EA"/>
<circle cx="23.2286" cy="19.2219" r="0.444444" fill="#B053EA"/>
<circle cx="21.4474" cy="21.4441" r="0.444444" fill="#B053EA"/>
<circle cx="20.1153" cy="22.333" r="0.444444" fill="#B053EA"/>
<circle cx="20.1153" cy="24.9997" r="0.444444" fill="#B053EA"/>
<circle cx="20.5607" cy="16.1107" r="0.444444" fill="#B053EA"/>
<circle cx="24.1153" cy="15.2219" r="0.444444" fill="#B053EA"/>
<circle cx="22.111" cy="14.9997" r="0.666667" fill="#B053EA"/>
<circle cx="21.2243" cy="19.4441" r="0.666667" fill="#B053EA"/>
</svg>
