<svg width="49" height="50" viewBox="0 0 49 50" fill="none" xmlns="http://www.w3.org/2000/svg">
<path fill-rule="evenodd" clip-rule="evenodd" d="M7.35744 7.08232L24.1333 23.342L16.6241 1.33208C16.7379 1.29286 16.8522 1.25445 16.9668 1.21686L22.3683 0.0993253C22.9548 0.0454222 23.5473 0.0120715 24.145 0L25.1368 22.5637L35.1553 2.3384C36.5894 3.01495 37.9477 3.82577 39.214 4.75462L27.7653 22.5637L46.5404 13.3014C47.7453 15.6226 48.5919 18.1597 49.0067 20.8395L27.7653 24.3797L48.8851 29.1568C48.5672 30.8734 48.0714 32.5274 47.4176 34.0993L27.7653 25.6769L40.7765 43.2802C39.0685 44.7589 37.1553 46.0069 35.0852 46.9755L26.7276 26.7146L23.3978 49.2547C22.4549 49.2074 21.526 49.1071 20.6139 48.9568L19.7231 48.7659L25.171 26.7146L8.43397 43.198C6.15087 41.2011 4.23956 38.7896 2.81746 36.081L24.1333 25.6769H0.0282327C0.014015 25.3332 0.00683594 24.9877 0.00683594 24.6405C0.00683594 23.3445 0.106861 22.0719 0.299612 20.83L24.1333 24.3797L3.60733 11.8076C4.66234 10.0811 5.92382 8.49458 7.35744 7.08232Z" fill="url(#paint0_radial_2002_137)" fill-opacity="0.5"/>
<path d="M42.0184 27.9469C42.155 27.7789 42.1506 27.5369 42.008 27.374L32.6747 16.7073C32.5903 16.6109 32.4683 16.5556 32.3402 16.5556H16.3402C16.212 16.5556 16.0901 16.6109 16.0057 16.7073L6.67236 27.374C6.52979 27.5369 6.52537 27.7789 6.6619 27.9469L23.9952 49.2803C24.0796 49.3841 24.2063 49.4444 24.3402 49.4444C24.474 49.4444 24.6007 49.3841 24.6851 49.2803L42.0184 27.9469Z" fill="#EC8BEE" stroke="#1D0576" stroke-width="0.888889" stroke-linecap="round" stroke-linejoin="round"/>
<path d="M32.3402 17L41.6735 27.6667H7.00684L16.3402 17H32.3402Z" fill="#FD9FFF"/>
<path d="M41.6761 27.6667L24.3428 49V17H32.3428L41.6761 27.6667Z" fill="#C86DFF"/>
<path d="M41.6761 27.6667H24.3428V17H32.3428L41.6761 27.6667Z" fill="#D289FF"/>
<path d="M7.00944 27.6667L24.3428 49L15.4539 27.6667L24.3428 17H16.3428L7.00944 27.6667Z" fill="#DA9DFF"/>
<path d="M16.7872 17L7.00944 27.6667H15.4539L24.3428 17H16.7872Z" fill="#E5BBFF"/>
<path d="M7.00944 27.6667L24.3428 49L10.1206 27.6667L19.4539 17H16.3428L7.00944 27.6667Z" fill="#E7C1FF"/>
<path d="M16.341 17L7.0077 27.6667H10.1188L19.4521 17H16.341Z" fill="#EFD5FF"/>
<path d="M41.6761 27.6667L24.3428 49L33.2317 27.6667L24.3428 17H32.3428L41.6761 27.6667Z" fill="#7233DA"/>
<path d="M32.3428 17L41.6761 27.6667H33.2317L24.3428 17H32.3428Z" fill="#8C4BF7"/>
<path d="M41.6761 27.6667L24.3428 49L38.565 27.6667L29.2317 17H32.3428L41.6761 27.6667Z" fill="#A653F9"/>
<path d="M32.3406 17L41.6739 27.6667H38.5628L29.2295 17H32.3406Z" fill="#BB77FF"/>
<path d="M8.78418 26.7779L14.562 20.1112" stroke="white" stroke-width="0.888889" stroke-linecap="round" stroke-linejoin="round"/>
<path d="M17.2295 26.7779L23.0073 20.1112" stroke="#FEB8FF" stroke-width="0.888889" stroke-linecap="round" stroke-linejoin="round"/>
<circle cx="27.8888" cy="33.4441" r="0.444444" fill="#B053EA"/>
<circle cx="29.2286" cy="35.2219" r="0.444444" fill="#B053EA"/>
<circle cx="26.5607" cy="32.1107" r="0.444444" fill="#B053EA"/>
<circle cx="30.1153" cy="31.2219" r="0.444444" fill="#B053EA"/>
<circle cx="28.111" cy="30.9997" r="0.666667" fill="#B053EA"/>
<circle cx="27.2243" cy="35.4441" r="0.666667" fill="#B053EA"/>
<defs>
<radialGradient id="paint0_radial_2002_137" cx="0" cy="0" r="1" gradientUnits="userSpaceOnUse" gradientTransform="translate(24.5068 24.6273) rotate(90) scale(24.6273 24.5)">
<stop offset="0.53125" stop-color="#F9F9F9"/>
<stop offset="1" stop-color="white" stop-opacity="0"/>
</radialGradient>
</defs>
</svg>
