<svg width="153" height="154" viewBox="0 0 153 154" fill="none" xmlns="http://www.w3.org/2000/svg">
<path fill-rule="evenodd" clip-rule="evenodd" d="M22.8711 22.1947L75.0722 72.7896L51.7056 4.3014C52.0545 4.18123 52.4046 4.06351 52.7558 3.94826L69.5981 0.463652C71.4172 0.296904 73.2548 0.193691 75.1084 0.15625L78.1947 70.3679L109.369 7.43279C113.831 9.53806 118.058 12.0611 121.998 14.9514L86.3735 70.3679L144.795 41.5466C148.544 48.7694 151.178 56.6641 152.469 65.0027L86.3735 76.0186L152.09 90.883C151.1 96.224 149.558 101.371 147.523 106.262L86.3735 80.0547L126.858 134.828C121.544 139.429 115.591 143.312 109.149 146.326L83.1445 83.2837L72.7838 153.418C69.835 153.27 66.9302 152.955 64.0784 152.484L61.3491 151.899L78.3011 83.2837L26.223 134.573C19.1189 128.359 13.1716 120.856 8.74644 112.428L75.0722 80.0547H0.0666649C0.0223675 78.9846 0 77.9088 0 76.8278C0 72.796 0.311129 68.837 0.910686 64.9732L75.0722 76.0186L11.2024 36.8983C14.4851 31.5261 18.4103 26.5893 22.8711 22.1947Z" fill="url(#paint0_radial_125_12853)" fill-opacity="0.5"/>
<defs>
<radialGradient id="paint0_radial_125_12853" cx="0" cy="0" r="1" gradientUnits="userSpaceOnUse" gradientTransform="translate(76.2344 76.7869) rotate(90) scale(76.6307 76.2344)">
<stop offset="0.53125" stop-color="#F9F9F9"/>
<stop offset="1" stop-color="white" stop-opacity="0"/>
</radialGradient>
</defs>
</svg>
