<svg width="20" height="21" viewBox="0 0 20 21" fill="none" xmlns="http://www.w3.org/2000/svg">
<path d="M18.7263 10.8C18.7263 10.06 18.665 9.51998 18.5324 8.95998H9.90999V12.2999H14.9712C14.8692 13.13 14.3182 14.38 13.0936 15.2199L13.0765 15.3317L15.8027 17.4015L15.9916 17.42C17.7263 15.85 18.7263 13.54 18.7263 10.8Z" fill="#3843FF"/>
<path d="M9.90999 19.6C12.3895 19.6 14.4712 18.7999 15.9916 17.42L13.0936 15.2199C12.3181 15.7499 11.2773 16.1199 9.90999 16.1199C7.48144 16.1199 5.42023 14.55 4.68546 12.38L4.57776 12.3889L1.74296 14.5389L1.70589 14.6399C3.21607 17.5799 6.31812 19.6 9.90999 19.6Z" fill="#3BA935"/>
<path d="M4.68546 12.38C4.49159 11.82 4.37939 11.2199 4.37939 10.6C4.37939 9.97994 4.49159 9.37996 4.67526 8.81997L4.67013 8.7007L1.7998 6.51616L1.70589 6.55994C1.08347 7.77995 0.726318 9.14998 0.726318 10.6C0.726318 12.05 1.08347 13.4199 1.70589 14.6399L4.68546 12.38Z" fill="#FEA800"/>
<path d="M9.90999 5.07995C11.6345 5.07995 12.7977 5.80995 13.461 6.41999L16.0528 3.93998C14.461 2.48998 12.3895 1.59998 9.90999 1.59998C6.31812 1.59998 3.21607 3.61996 1.70589 6.55994L4.67526 8.81997C5.42023 6.64997 7.48144 5.07995 9.90999 5.07995Z" fill="#E3524F"/>
</svg>
