<svg width="20" height="22" viewBox="0 0 20 22" fill="none" xmlns="http://www.w3.org/2000/svg">
<g filter="url(#filter0_d_171_17279)">
<circle cx="10" cy="10" r="10" fill="#FF4672"/>
<circle cx="10" cy="10" r="9.09289" stroke="white" stroke-width="1.81423"/>
</g>
<path d="M9.99325 4.2315C9.63829 4.56344 9.42764 5.0211 9.40612 5.50625C9.38402 5.70803 9.4065 5.91227 9.47207 6.10452C9.53949 6.3022 9.65071 6.48208 9.79744 6.63073C9.94416 6.77937 10.1226 6.89293 10.3194 6.96291C10.5098 7.03065 10.7127 7.05587 10.9138 7.03691L10.9277 7.03713L10.9277 7.03717L10.9325 7.03716C11.4192 7.03691 11.8871 6.84921 12.239 6.51304C12.5876 6.18004 12.7959 5.72672 12.8217 5.24567C12.8219 5.24286 12.8221 5.24003 12.8222 5.23719C12.8332 5.03382 12.8006 4.83046 12.7267 4.64068C12.6528 4.45091 12.5392 4.27909 12.3936 4.13673C12.2479 3.99436 12.0736 3.88471 11.8822 3.81511C11.6998 3.74879 11.5059 3.72029 11.3124 3.73122C10.8241 3.71806 10.3501 3.89775 9.99325 4.2315ZM12.5318 13.3678C12.5202 13.3434 12.505 13.3201 12.4864 13.2988C12.3765 13.1731 12.1855 13.1603 12.0598 13.2701C11.7443 13.5458 11.3753 13.7517 10.9769 13.8756C10.9863 13.7959 11.0066 13.6861 11.045 13.5389L11.0451 13.5385L11.8843 10.3041C12.0475 9.70004 12.1156 9.15785 12.0355 8.74871C11.9946 8.53997 11.9104 8.34168 11.7561 8.19432C11.5963 8.04174 11.3908 7.972 11.1662 7.972C10.7113 7.972 10.0206 8.19187 9.27424 8.55492C8.51491 8.92427 7.65706 9.46194 6.85915 10.1399C6.74647 10.2356 6.71955 10.3988 6.79552 10.5257L7.05953 10.9665C7.06648 11.0057 7.08132 11.0441 7.10453 11.0795C7.19526 11.2177 7.38016 11.2574 7.51964 11.1687L7.53627 11.1581C7.54329 11.1536 7.55006 11.1489 7.55658 11.144C7.89607 10.9181 8.2641 10.7392 8.6506 10.6119C8.63639 10.6754 8.61779 10.7515 8.59414 10.8426L8.59408 10.8426L8.59267 10.8485L7.85956 13.9239C7.63376 14.8005 7.61407 15.4205 7.79995 15.8358C7.89836 16.0557 8.05157 16.2115 8.2416 16.3076C8.41606 16.3957 8.60615 16.4259 8.78608 16.4286C8.79506 16.4294 8.80411 16.4298 8.81322 16.4298C9.20048 16.4298 9.82232 16.2584 10.5225 15.9083C11.2327 15.5533 12.0515 15.0008 12.8331 14.2068C12.9372 14.101 12.9491 13.9352 12.8611 13.8156L12.5318 13.3678ZM8.68819 10.3698C8.68781 10.3673 8.68774 10.3659 8.6878 10.3659C8.68786 10.3658 8.68805 10.3671 8.68819 10.3698ZM10.9743 14.0324C10.9746 14.0334 10.9747 14.0339 10.9747 14.0339L10.9743 14.0324Z" fill="white" stroke="#E90038" stroke-width="0.604743" stroke-linejoin="round"/>
<defs>
<filter id="filter0_d_171_17279" x="0" y="0" width="20" height="21.8142" filterUnits="userSpaceOnUse" color-interpolation-filters="sRGB">
<feFlood flood-opacity="0" result="BackgroundImageFix"/>
<feColorMatrix in="SourceAlpha" type="matrix" values="0 0 0 0 0 0 0 0 0 0 0 0 0 0 0 0 0 0 127 0" result="hardAlpha"/>
<feOffset dy="1.81423"/>
<feComposite in2="hardAlpha" operator="out"/>
<feColorMatrix type="matrix" values="0 0 0 0 1 0 0 0 0 0.15 0 0 0 0 0.352162 0 0 0 1 0"/>
<feBlend mode="normal" in2="BackgroundImageFix" result="effect1_dropShadow_171_17279"/>
<feBlend mode="normal" in="SourceGraphic" in2="effect1_dropShadow_171_17279" result="shape"/>
</filter>
</defs>
</svg>
