<svg width="246" height="135" viewBox="0 0 246 135" fill="none" xmlns="http://www.w3.org/2000/svg">
<path d="M0.280935 102.711L104.114 109.95L107.872 109.94L246.001 118.966L243.101 89.3513L152.461 96.6525L236.945 71.5005L210.078 38.1897L144.917 86.3287L191.295 18.384L135.508 0.377535L125.657 86.3814L107.871 0.377251L59.7992 12.3426L107.816 89.7216L38.1305 30.1968L18.0003 55.1726L104.078 96.7849L5.85308 79.1861L0.280935 102.711Z" fill="url(#paint0_radial_215_4253)"/>
<g filter="url(#filter0_d_215_4253)">
<path d="M26.7349 83.1396H60.7799C62.989 83.1396 64.7799 84.9305 64.7799 87.1396V128C64.7799 130.209 62.989 132 60.7799 132H26.7349C23.1552 132 21.3779 127.658 23.9301 125.148L38.9035 110.422C40.497 108.854 40.497 106.285 38.9035 104.718L23.9301 89.9915C21.3779 87.4814 23.1552 83.1396 26.7349 83.1396Z" fill="#B30D78"/>
<path d="M26.7349 81.1453H60.7799C62.989 81.1453 64.7799 82.9362 64.7799 85.1453V126.006C64.7799 128.215 62.989 130.006 60.7799 130.006H26.7349C23.1552 130.006 21.3779 125.664 23.9301 123.154L38.9035 108.427C40.497 106.86 40.497 104.291 38.9035 102.724L23.9301 87.9972C21.3779 85.4871 23.1552 81.1453 26.7349 81.1453Z" fill="url(#paint1_linear_215_4253)"/>
<path d="M214.396 83.1396H180.351C178.142 83.1396 176.351 84.9305 176.351 87.1396V128C176.351 130.209 178.142 132 180.351 132H214.396C217.976 132 219.753 127.658 217.201 125.148L202.228 110.422C200.634 108.854 200.634 106.285 202.228 104.718L217.201 89.9915C219.753 87.4814 217.976 83.1396 214.396 83.1396Z" fill="#B30D78"/>
<path d="M214.396 81.1453H180.351C178.142 81.1453 176.351 82.9362 176.351 85.1453V126.006C176.351 128.215 178.142 130.006 180.351 130.006H214.396C217.976 130.006 219.753 125.664 217.201 123.154L202.228 108.427C200.634 106.86 200.634 104.291 202.228 102.724L217.201 87.9972C219.753 85.4871 217.976 81.1453 214.396 81.1453Z" fill="url(#paint2_linear_215_4253)"/>
<path d="M64.7798 126.516V117.043V114.051H52.8257V114.55L64.7798 126.516Z" fill="#B20D78"/>
<path d="M176.352 126.516V117.043V114.051L188.306 112.556C188.306 112.556 188.804 111.06 188.804 112.556L176.352 126.516Z" fill="#B20D78"/>
<rect x="48.8408" y="66.1881" width="142.453" height="50.8547" rx="12" fill="#D71095"/>
<rect x="48.8408" y="64.1938" width="142.453" height="50.8547" rx="12" fill="url(#paint3_linear_215_4253)"/>
</g>
<mask id="path-10-outside-1_215_4253" maskUnits="userSpaceOnUse" x="95.7881" y="19.3438" width="48" height="49" fill="black">
<rect fill="white" x="95.7881" y="19.3438" width="48" height="49"/>
<path fill-rule="evenodd" clip-rule="evenodd" d="M122.985 23.575C121.518 20.6001 117.277 20.6001 115.81 23.575L112.233 30.8294C111.651 32.0105 110.524 32.8294 109.221 33.0189L101.217 34.1832C98.6099 34.5623 97.2474 37.186 97.9892 39.4088C97.5472 40.7657 97.8123 42.3529 98.999 43.5108L104.796 49.167C105.286 49.6451 105.637 50.2326 105.83 50.869L104.577 58.182C104.464 58.8412 104.514 59.4688 104.689 60.038L104.577 60.6883C104.017 63.9565 107.448 66.4478 110.383 64.9036L117.535 61.1399C118.701 60.5263 120.094 60.5263 121.26 61.1399L128.412 64.9036C131.347 66.4478 134.778 63.9565 134.218 60.6883L134.106 60.038C134.281 59.4688 134.331 58.8412 134.218 58.182L132.965 50.869C133.158 50.2326 133.509 49.6451 133.999 49.167L139.796 43.5108C140.983 42.3529 141.248 40.7657 140.806 39.4088C141.548 37.186 140.185 34.5623 137.578 34.1832L129.574 33.0189C128.271 32.8294 127.144 32.0105 126.562 30.8294L122.985 23.575Z"/>
</mask>
<path fill-rule="evenodd" clip-rule="evenodd" d="M122.985 23.575C121.518 20.6001 117.277 20.6001 115.81 23.575L112.233 30.8294C111.651 32.0105 110.524 32.8294 109.221 33.0189L101.217 34.1832C98.6099 34.5623 97.2474 37.186 97.9892 39.4088C97.5472 40.7657 97.8123 42.3529 98.999 43.5108L104.796 49.167C105.286 49.6451 105.637 50.2326 105.83 50.869L104.577 58.182C104.464 58.8412 104.514 59.4688 104.689 60.038L104.577 60.6883C104.017 63.9565 107.448 66.4478 110.383 64.9036L117.535 61.1399C118.701 60.5263 120.094 60.5263 121.26 61.1399L128.412 64.9036C131.347 66.4478 134.778 63.9565 134.218 60.6883L134.106 60.038C134.281 59.4688 134.331 58.8412 134.218 58.182L132.965 50.869C133.158 50.2326 133.509 49.6451 133.999 49.167L139.796 43.5108C140.983 42.3529 141.248 40.7657 140.806 39.4088C141.548 37.186 140.185 34.5623 137.578 34.1832L129.574 33.0189C128.271 32.8294 127.144 32.0105 126.562 30.8294L122.985 23.575Z" fill="url(#paint4_linear_215_4253)"/>
<path d="M115.81 23.575L117.604 24.4594L115.81 23.575ZM122.985 23.575L124.779 22.6905V22.6905L122.985 23.575ZM112.233 30.8294L110.439 29.945L112.233 30.8294ZM109.221 33.0189L109.509 34.9981L109.221 33.0189ZM101.217 34.1832L101.505 36.1623L101.217 34.1832ZM97.9892 39.4088L99.8908 40.0283L100.095 39.4013L99.8863 38.7757L97.9892 39.4088ZM98.999 43.5108L97.6023 44.9423L97.6023 44.9423L98.999 43.5108ZM104.796 49.167L106.193 47.7355L104.796 49.167ZM105.83 50.869L107.802 51.2067L107.881 50.7408L107.744 50.2884L105.83 50.869ZM104.577 58.182L106.549 58.5198V58.5197L104.577 58.182ZM104.689 60.038L106.66 60.3758L106.741 59.906L106.6 59.4504L104.689 60.038ZM104.577 60.6883L102.606 60.3505H102.606L104.577 60.6883ZM110.383 64.9036L109.451 63.1337L109.451 63.1337L110.383 64.9036ZM117.535 61.1399L118.466 62.9098L117.535 61.1399ZM121.26 61.1399L120.329 62.9098L121.26 61.1399ZM128.412 64.9036L129.344 63.1337V63.1337L128.412 64.9036ZM134.218 60.6883L132.246 61.0261L134.218 60.6883ZM134.106 60.038L132.194 59.4504L132.054 59.906L132.135 60.3758L134.106 60.038ZM134.218 58.182L132.246 58.5197V58.5198L134.218 58.182ZM132.965 50.869L131.051 50.2884L130.913 50.7408L130.993 51.2067L132.965 50.869ZM133.999 49.167L132.602 47.7355L133.999 49.167ZM139.796 43.5108L141.193 44.9423L139.796 43.5108ZM140.806 39.4088L138.909 38.7757L138.7 39.4013L138.904 40.0283L140.806 39.4088ZM137.578 34.1832L137.866 32.204L137.578 34.1832ZM129.574 33.0189L129.286 34.9981L129.574 33.0189ZM126.562 30.8294L124.768 31.7139L126.562 30.8294ZM117.604 24.4594C118.337 22.972 120.458 22.972 121.191 24.4594L124.779 22.6905C122.579 18.2283 116.216 18.2283 114.016 22.6905L117.604 24.4594ZM114.027 31.7139L117.604 24.4594L114.016 22.6905L110.439 29.945L114.027 31.7139ZM109.509 34.9981C111.464 34.7138 113.153 33.4855 114.027 31.7139L110.439 29.945C110.148 30.5356 109.585 30.945 108.933 31.0397L109.509 34.9981ZM101.505 36.1623L109.509 34.9981L108.933 31.0397L100.929 32.204L101.505 36.1623ZM99.8863 38.7757C99.5084 37.6433 100.224 36.3485 101.505 36.1623L100.929 32.204C96.9954 32.7761 94.9863 36.7286 96.092 40.0419L99.8863 38.7757ZM100.396 42.0793C99.8003 41.4983 99.664 40.7247 99.8908 40.0283L96.0875 38.7893C95.4304 40.8067 95.8243 43.2075 97.6023 44.9423L100.396 42.0793ZM106.193 47.7355L100.396 42.0793L97.6023 44.9423L103.399 50.5985L106.193 47.7355ZM107.744 50.2884C107.455 49.3342 106.928 48.4526 106.193 47.7355L103.399 50.5985C103.644 50.8376 103.82 51.1311 103.916 51.4495L107.744 50.2884ZM106.549 58.5197L107.802 51.2067L103.859 50.5312L102.606 57.8442L106.549 58.5197ZM106.6 59.4504C106.517 59.1796 106.489 58.8689 106.549 58.5198L102.606 57.8442C102.44 58.8134 102.51 59.7579 102.777 60.6256L106.6 59.4504ZM106.549 61.0261L106.66 60.3758L102.717 59.7002L102.606 60.3505L106.549 61.0261ZM109.451 63.1337C107.984 63.9058 106.269 62.6602 106.549 61.0261L102.606 60.3505C101.766 65.2528 106.913 68.9897 111.314 66.6735L109.451 63.1337ZM116.603 59.37L109.451 63.1337L111.314 66.6735L118.466 62.9098L116.603 59.37ZM122.192 59.37C120.443 58.4496 118.352 58.4496 116.603 59.37L118.466 62.9098C119.049 62.603 119.746 62.603 120.329 62.9098L122.192 59.37ZM129.344 63.1337L122.192 59.37L120.329 62.9098L127.481 66.6735L129.344 63.1337ZM132.246 61.0261C132.526 62.6602 130.811 63.9058 129.344 63.1337L127.481 66.6735C131.882 68.9897 137.029 65.2528 136.189 60.3505L132.246 61.0261ZM132.135 60.3758L132.246 61.0261L136.189 60.3505L136.077 59.7002L132.135 60.3758ZM132.246 58.5198C132.306 58.8689 132.278 59.1796 132.194 59.4504L136.018 60.6256C136.285 59.7579 136.355 58.8134 136.189 57.8442L132.246 58.5198ZM130.993 51.2067L132.246 58.5197L136.189 57.8442L134.936 50.5312L130.993 51.2067ZM132.602 47.7355C131.867 48.4526 131.34 49.3342 131.051 50.2884L134.878 51.4495C134.975 51.1311 135.151 50.8376 135.396 50.5985L132.602 47.7355ZM138.399 42.0793L132.602 47.7355L135.396 50.5985L141.193 44.9423L138.399 42.0793ZM138.904 40.0283C139.131 40.7247 138.995 41.4983 138.399 42.0793L141.193 44.9423C142.971 43.2075 143.365 40.8067 142.707 38.7893L138.904 40.0283ZM137.29 36.1623C138.57 36.3485 139.286 37.6433 138.909 38.7757L142.703 40.0419C143.809 36.7286 141.8 32.7761 137.866 32.204L137.29 36.1623ZM129.286 34.9981L137.29 36.1623L137.866 32.204L129.862 31.0397L129.286 34.9981ZM124.768 31.7139C125.642 33.4855 127.331 34.7138 129.286 34.9981L129.862 31.0397C129.21 30.945 128.647 30.5356 128.356 29.945L124.768 31.7139ZM121.191 24.4594L124.768 31.7139L128.356 29.945L124.779 22.6905L121.191 24.4594Z" fill="white" mask="url(#path-10-outside-1_215_4253)"/>
<g filter="url(#filter1_d_215_4253)">
<path d="M115.982 23.607C117.449 20.6322 121.691 20.6322 123.157 23.607L126.734 30.8615C127.317 32.0426 128.443 32.8614 129.746 33.0509L137.751 34.2152C141.03 34.6922 142.34 38.722 139.968 41.0365L134.171 46.6927C133.23 47.6115 132.8 48.9346 133.022 50.2313L134.39 58.214C134.95 61.4822 131.519 63.9735 128.585 62.4293L121.433 58.6656C120.267 58.052 118.873 58.052 117.707 58.6656L110.555 62.4293C107.621 63.9735 104.19 61.4822 104.75 58.214L106.117 50.2313C106.34 48.9346 105.91 47.6115 104.968 46.6927L99.1714 41.0365C96.7992 38.722 98.1094 34.6922 101.389 34.2152L109.393 33.0509C110.697 32.8614 111.823 32.0426 112.405 30.8615L115.982 23.607Z" fill="url(#paint5_linear_215_4253)"/>
</g>
<mask id="path-13-outside-2_215_4253" maskUnits="userSpaceOnUse" x="60.3755" y="36.3009" width="39" height="40" fill="black">
<rect fill="white" x="60.3755" y="36.3009" width="39" height="40"/>
<path fill-rule="evenodd" clip-rule="evenodd" d="M83.2067 40.532C81.7399 37.5571 77.4981 37.5571 76.0314 40.532L73.8037 45.0502C73.2214 46.2313 72.095 47.0501 70.7918 47.2397L65.8041 47.9651C63.2776 48.3326 61.9199 50.8084 62.514 52.9843C62.1643 54.2922 62.4608 55.7767 63.5864 56.875L67.2005 60.4014C67.7309 60.9188 68.0988 61.5645 68.2793 62.2615L67.4971 66.8266C67.3945 67.4257 67.4259 67.9988 67.5639 68.5256L67.4971 68.9152C66.9371 72.1834 70.3682 74.6747 73.3025 73.1305L77.7562 70.7867C78.9223 70.1731 80.3158 70.1731 81.4818 70.7867L85.9356 73.1305C88.8699 74.6747 92.3009 72.1834 91.7409 68.9152L91.6742 68.5256C91.8121 67.9988 91.8436 67.4258 91.7409 66.8266L90.9587 62.2615C91.1393 61.5645 91.5072 60.9188 92.0375 60.4014L95.6517 56.875C96.7773 55.7767 97.0738 54.2922 96.7241 52.9843C97.3181 50.8084 95.9604 48.3326 93.434 47.9651L88.4462 47.2397C87.1431 47.0501 86.0167 46.2313 85.4344 45.0502L83.2067 40.532Z"/>
</mask>
<path fill-rule="evenodd" clip-rule="evenodd" d="M83.2067 40.532C81.7399 37.5571 77.4981 37.5571 76.0314 40.532L73.8037 45.0502C73.2214 46.2313 72.095 47.0501 70.7918 47.2397L65.8041 47.9651C63.2776 48.3326 61.9199 50.8084 62.514 52.9843C62.1643 54.2922 62.4608 55.7767 63.5864 56.875L67.2005 60.4014C67.7309 60.9188 68.0988 61.5645 68.2793 62.2615L67.4971 66.8266C67.3945 67.4257 67.4259 67.9988 67.5639 68.5256L67.4971 68.9152C66.9371 72.1834 70.3682 74.6747 73.3025 73.1305L77.7562 70.7867C78.9223 70.1731 80.3158 70.1731 81.4818 70.7867L85.9356 73.1305C88.8699 74.6747 92.3009 72.1834 91.7409 68.9152L91.6742 68.5256C91.8121 67.9988 91.8436 67.4258 91.7409 66.8266L90.9587 62.2615C91.1393 61.5645 91.5072 60.9188 92.0375 60.4014L95.6517 56.875C96.7773 55.7767 97.0738 54.2922 96.7241 52.9843C97.3181 50.8084 95.9604 48.3326 93.434 47.9651L88.4462 47.2397C87.1431 47.0501 86.0167 46.2313 85.4344 45.0502L83.2067 40.532Z" fill="url(#paint6_linear_215_4253)"/>
<path d="M76.0314 40.532L77.8252 41.4164V41.4164L76.0314 40.532ZM83.2067 40.532L81.4128 41.4164L83.2067 40.532ZM73.8037 45.0502L75.5975 45.9346L73.8037 45.0502ZM70.7918 47.2397L70.504 45.2605L70.7918 47.2397ZM65.8041 47.9651L65.5162 45.986H65.5162L65.8041 47.9651ZM62.514 52.9843L64.4461 53.5009L64.5857 52.9788L64.4434 52.4575L62.514 52.9843ZM63.5864 56.875L62.1897 58.3065H62.1897L63.5864 56.875ZM67.2005 60.4014L68.5972 58.9699L67.2005 60.4014ZM68.2793 62.2615L70.2506 62.5993L70.3232 62.1759L70.2154 61.76L68.2793 62.2615ZM67.4971 66.8266L69.4684 67.1644L67.4971 66.8266ZM67.5639 68.5256L69.5352 68.8634L69.6082 68.4372L69.4987 68.019L67.5639 68.5256ZM67.4971 68.9152L69.4684 69.253L67.4971 68.9152ZM73.3025 73.1305L74.2339 74.9004L73.3025 73.1305ZM77.7562 70.7867L78.6876 72.5566L77.7562 70.7867ZM81.4818 70.7867L82.4132 69.0168H82.4132L81.4818 70.7867ZM85.9356 73.1305L85.0042 74.9004H85.0042L85.9356 73.1305ZM91.7409 68.9152L93.7122 68.5774V68.5774L91.7409 68.9152ZM91.6742 68.5256L89.7394 68.019L89.6299 68.4372L89.7029 68.8634L91.6742 68.5256ZM91.7409 66.8266L93.7122 66.4889L91.7409 66.8266ZM90.9587 62.2615L89.0226 61.76L88.9149 62.1759L88.9875 62.5993L90.9587 62.2615ZM92.0375 60.4014L90.6408 58.9699L92.0375 60.4014ZM95.6517 56.875L94.2549 55.4436L94.2549 55.4436L95.6517 56.875ZM96.7241 52.9843L94.7947 52.4575L94.6524 52.9788L94.792 53.5009L96.7241 52.9843ZM93.434 47.9651L93.7218 45.986L93.434 47.9651ZM88.4462 47.2397L88.7341 45.2605L88.4462 47.2397ZM85.4344 45.0502L83.6405 45.9346L85.4344 45.0502ZM77.8252 41.4164C78.5586 39.929 80.6795 39.929 81.4128 41.4164L85.0005 39.6475C82.8004 35.1853 76.4377 35.1853 74.2376 39.6475L77.8252 41.4164ZM75.5975 45.9346L77.8252 41.4164L74.2376 39.6475L72.0099 44.1658L75.5975 45.9346ZM71.0797 49.2188C73.0344 48.9345 74.724 47.7063 75.5975 45.9346L72.0099 44.1658C71.7187 44.7563 71.1555 45.1657 70.504 45.2605L71.0797 49.2188ZM66.092 49.9443L71.0797 49.2188L70.504 45.2605L65.5162 45.986L66.092 49.9443ZM64.4434 52.4575C64.1391 51.343 64.852 50.1247 66.092 49.9443L65.5162 45.986C61.7033 46.5406 59.7008 50.2739 60.5846 53.5111L64.4434 52.4575ZM64.9831 55.4436C64.4159 54.8901 64.2679 54.1676 64.4461 53.5009L60.5819 52.4677C60.0607 54.4168 60.5056 56.6633 62.1897 58.3065L64.9831 55.4436ZM68.5972 58.9699L64.9831 55.4436L62.1897 58.3065L65.8038 61.8329L68.5972 58.9699ZM70.2154 61.76C69.9447 60.7149 69.3928 59.7461 68.5972 58.9699L65.8038 61.8329C66.0689 62.0916 66.2529 62.4141 66.3432 62.763L70.2154 61.76ZM69.4684 67.1644L70.2506 62.5993L66.3081 61.9238L65.5259 66.4889L69.4684 67.1644ZM69.4987 68.019C69.4329 67.7678 69.4139 67.4826 69.4684 67.1644L65.5259 66.4889C65.3751 67.3688 65.419 68.2297 65.6291 69.0322L69.4987 68.019ZM69.4684 69.253L69.5352 68.8634L65.5926 68.1878L65.5259 68.5774L69.4684 69.253ZM72.3711 71.3606C70.9039 72.1327 69.1884 70.887 69.4684 69.253L65.5259 68.5774C64.6859 73.4797 69.8324 77.2166 74.2339 74.9004L72.3711 71.3606ZM76.8248 69.0168L72.3711 71.3606L74.2339 74.9004L78.6876 72.5566L76.8248 69.0168ZM82.4132 69.0168C80.6641 68.0964 78.5739 68.0964 76.8248 69.0168L78.6876 72.5566C79.2707 72.2498 79.9674 72.2498 80.5504 72.5566L82.4132 69.0168ZM86.867 71.3606L82.4132 69.0168L80.5504 72.5566L85.0042 74.9004L86.867 71.3606ZM89.7697 69.253C90.0497 70.887 88.3341 72.1327 86.867 71.3606L85.0042 74.9004C89.4056 77.2166 94.5522 73.4797 93.7122 68.5774L89.7697 69.253ZM89.7029 68.8634L89.7697 69.253L93.7122 68.5774L93.6455 68.1878L89.7029 68.8634ZM89.7697 67.1644C89.8242 67.4826 89.8052 67.7678 89.7394 68.019L93.609 69.0322C93.8191 68.2297 93.863 67.3689 93.7122 66.4889L89.7697 67.1644ZM88.9875 62.5993L89.7697 67.1644L93.7122 66.4889L92.93 61.9238L88.9875 62.5993ZM90.6408 58.9699C89.8453 59.7461 89.2933 60.7149 89.0226 61.76L92.8948 62.763C92.9852 62.4141 93.1691 62.0916 93.4343 61.8329L90.6408 58.9699ZM94.2549 55.4436L90.6408 58.9699L93.4343 61.8329L97.0484 58.3065L94.2549 55.4436ZM94.792 53.5009C94.9702 54.1675 94.8221 54.8901 94.2549 55.4436L97.0484 58.3065C98.7325 56.6633 99.1774 54.4168 98.6562 52.4677L94.792 53.5009ZM93.1461 49.9443C94.3861 50.1247 95.099 51.343 94.7947 52.4575L98.6535 53.511C99.5373 50.2739 97.5348 46.5406 93.7218 45.986L93.1461 49.9443ZM88.1584 49.2188L93.1461 49.9443L93.7218 45.986L88.7341 45.2605L88.1584 49.2188ZM83.6405 45.9346C84.5141 47.7063 86.2036 48.9345 88.1584 49.2188L88.7341 45.2605C88.0825 45.1657 87.5193 44.7563 87.2282 44.1658L83.6405 45.9346ZM81.4128 41.4164L83.6405 45.9346L87.2282 44.1658L85.0005 39.6475L81.4128 41.4164Z" fill="white" mask="url(#path-13-outside-2_215_4253)"/>
<g filter="url(#filter2_d_215_4253)">
<path d="M76.1749 40.5585C77.6416 37.5837 81.8834 37.5837 83.3501 40.5585L85.5778 45.0768C86.1602 46.2579 87.2866 47.0767 88.5897 47.2662L93.5774 47.9917C96.8571 48.4687 98.1672 52.4985 95.7951 54.813L92.181 58.3394C91.2394 59.2581 90.8097 60.5812 91.0319 61.8779L91.8844 66.8532C92.4444 70.1213 89.0134 72.6126 86.0791 71.0685L81.6253 68.7247C80.4592 68.1111 79.0658 68.1111 77.8997 68.7247L73.4459 71.0685C70.5117 72.6126 67.0806 70.1213 67.6406 66.8532L68.4931 61.8779C68.7153 60.5812 68.2856 59.2581 67.344 58.3394L63.7299 54.813C61.3578 52.4985 62.6679 48.4687 65.9476 47.9917L70.9353 47.2662C72.2385 47.0767 73.3648 46.2579 73.9472 45.0768L76.1749 40.5585Z" fill="url(#paint7_linear_215_4253)"/>
</g>
<mask id="path-16-outside-3_215_4253" maskUnits="userSpaceOnUse" x="139.074" y="36.3009" width="39" height="40" fill="black">
<rect fill="white" x="139.074" y="36.3009" width="39" height="40"/>
<path fill-rule="evenodd" clip-rule="evenodd" d="M161.905 40.532C160.438 37.5571 156.196 37.5571 154.73 40.532L152.502 45.0502C151.92 46.2313 150.793 47.0501 149.49 47.2397L144.502 47.9651C141.976 48.3326 140.618 50.8084 141.212 52.9843C140.863 54.2922 141.159 55.7767 142.285 56.875L145.899 60.4014C146.429 60.9188 146.797 61.5645 146.978 62.2615L146.195 66.8266C146.093 67.4257 146.124 67.9988 146.262 68.5256L146.195 68.9152C145.635 72.1834 149.066 74.6747 152.001 73.1305L156.454 70.7867C157.621 70.1731 159.014 70.1731 160.18 70.7867L164.634 73.1305C167.568 74.6747 170.999 72.1834 170.439 68.9152L170.372 68.5256C170.51 67.9988 170.542 67.4258 170.439 66.8266L169.657 62.2615C169.838 61.5645 170.205 60.9188 170.736 60.4014L174.35 56.875C175.476 55.7767 175.772 54.2922 175.422 52.9843C176.016 50.8084 174.659 48.3326 172.132 47.9651L167.144 47.2397C165.841 47.0501 164.715 46.2313 164.133 45.0502L161.905 40.532Z"/>
</mask>
<path fill-rule="evenodd" clip-rule="evenodd" d="M161.905 40.532C160.438 37.5571 156.196 37.5571 154.73 40.532L152.502 45.0502C151.92 46.2313 150.793 47.0501 149.49 47.2397L144.502 47.9651C141.976 48.3326 140.618 50.8084 141.212 52.9843C140.863 54.2922 141.159 55.7767 142.285 56.875L145.899 60.4014C146.429 60.9188 146.797 61.5645 146.978 62.2615L146.195 66.8266C146.093 67.4257 146.124 67.9988 146.262 68.5256L146.195 68.9152C145.635 72.1834 149.066 74.6747 152.001 73.1305L156.454 70.7867C157.621 70.1731 159.014 70.1731 160.18 70.7867L164.634 73.1305C167.568 74.6747 170.999 72.1834 170.439 68.9152L170.372 68.5256C170.51 67.9988 170.542 67.4258 170.439 66.8266L169.657 62.2615C169.838 61.5645 170.205 60.9188 170.736 60.4014L174.35 56.875C175.476 55.7767 175.772 54.2922 175.422 52.9843C176.016 50.8084 174.659 48.3326 172.132 47.9651L167.144 47.2397C165.841 47.0501 164.715 46.2313 164.133 45.0502L161.905 40.532Z" fill="url(#paint8_linear_215_4253)"/>
<path d="M154.73 40.532L156.523 41.4164V41.4164L154.73 40.532ZM161.905 40.532L160.111 41.4164L161.905 40.532ZM152.502 45.0502L154.296 45.9346L152.502 45.0502ZM149.49 47.2397L149.202 45.2605L149.49 47.2397ZM144.502 47.9651L144.214 45.986H144.214L144.502 47.9651ZM141.212 52.9843L143.144 53.5009L143.284 52.9788L143.142 52.4575L141.212 52.9843ZM142.285 56.875L140.888 58.3065H140.888L142.285 56.875ZM145.899 60.4014L147.295 58.9699L145.899 60.4014ZM146.978 62.2615L148.949 62.5993L149.021 62.1759L148.914 61.76L146.978 62.2615ZM146.195 66.8266L148.167 67.1644L146.195 66.8266ZM146.262 68.5256L148.233 68.8634L148.306 68.4372L148.197 68.019L146.262 68.5256ZM146.195 68.9152L148.167 69.253L146.195 68.9152ZM152.001 73.1305L152.932 74.9004L152.001 73.1305ZM156.454 70.7867L157.386 72.5566L156.454 70.7867ZM160.18 70.7867L161.111 69.0168H161.111L160.18 70.7867ZM164.634 73.1305L163.702 74.9004H163.702L164.634 73.1305ZM170.439 68.9152L172.41 68.5774V68.5774L170.439 68.9152ZM170.372 68.5256L168.438 68.019L168.328 68.4372L168.401 68.8634L170.372 68.5256ZM170.439 66.8266L172.41 66.4889L170.439 66.8266ZM169.657 62.2615L167.721 61.76L167.613 62.1759L167.686 62.5993L169.657 62.2615ZM170.736 60.4014L169.339 58.9699L170.736 60.4014ZM174.35 56.875L172.953 55.4436L172.953 55.4436L174.35 56.875ZM175.422 52.9843L173.493 52.4575L173.351 52.9788L173.49 53.5009L175.422 52.9843ZM172.132 47.9651L172.42 45.986L172.132 47.9651ZM167.144 47.2397L167.432 45.2605L167.144 47.2397ZM164.133 45.0502L162.339 45.9346L164.133 45.0502ZM156.523 41.4164C157.257 39.929 159.378 39.929 160.111 41.4164L163.699 39.6475C161.499 35.1853 155.136 35.1853 152.936 39.6475L156.523 41.4164ZM154.296 45.9346L156.523 41.4164L152.936 39.6475L150.708 44.1658L154.296 45.9346ZM149.778 49.2188C151.733 48.9345 153.422 47.7063 154.296 45.9346L150.708 44.1658C150.417 44.7563 149.854 45.1657 149.202 45.2605L149.778 49.2188ZM144.79 49.9443L149.778 49.2188L149.202 45.2605L144.214 45.986L144.79 49.9443ZM143.142 52.4575C142.837 51.343 143.55 50.1247 144.79 49.9443L144.214 45.986C140.402 46.5406 138.399 50.2739 139.283 53.5111L143.142 52.4575ZM143.681 55.4436C143.114 54.8901 142.966 54.1676 143.144 53.5009L139.28 52.4677C138.759 54.4168 139.204 56.6633 140.888 58.3065L143.681 55.4436ZM147.295 58.9699L143.681 55.4436L140.888 58.3065L144.502 61.8329L147.295 58.9699ZM148.914 61.76C148.643 60.7149 148.091 59.7461 147.295 58.9699L144.502 61.8329C144.767 62.0916 144.951 62.4141 145.041 62.763L148.914 61.76ZM148.167 67.1644L148.949 62.5993L145.006 61.9238L144.224 66.4889L148.167 67.1644ZM148.197 68.019C148.131 67.7678 148.112 67.4826 148.167 67.1644L144.224 66.4889C144.073 67.3688 144.117 68.2297 144.327 69.0322L148.197 68.019ZM148.167 69.253L148.233 68.8634L144.291 68.1878L144.224 68.5774L148.167 69.253ZM151.069 71.3606C149.602 72.1327 147.887 70.887 148.167 69.253L144.224 68.5774C143.384 73.4797 148.531 77.2166 152.932 74.9004L151.069 71.3606ZM155.523 69.0168L151.069 71.3606L152.932 74.9004L157.386 72.5566L155.523 69.0168ZM161.111 69.0168C159.362 68.0964 157.272 68.0964 155.523 69.0168L157.386 72.5566C157.969 72.2498 158.666 72.2498 159.249 72.5566L161.111 69.0168ZM165.565 71.3606L161.111 69.0168L159.249 72.5566L163.702 74.9004L165.565 71.3606ZM168.468 69.253C168.748 70.887 167.032 72.1327 165.565 71.3606L163.702 74.9004C168.104 77.2166 173.25 73.4797 172.41 68.5774L168.468 69.253ZM168.401 68.8634L168.468 69.253L172.41 68.5774L172.344 68.1878L168.401 68.8634ZM168.468 67.1644C168.522 67.4826 168.503 67.7678 168.438 68.019L172.307 69.0322C172.517 68.2297 172.561 67.3689 172.41 66.4889L168.468 67.1644ZM167.686 62.5993L168.468 67.1644L172.41 66.4889L171.628 61.9238L167.686 62.5993ZM169.339 58.9699C168.544 59.7461 167.992 60.7149 167.721 61.76L171.593 62.763C171.683 62.4141 171.867 62.0916 172.133 61.8329L169.339 58.9699ZM172.953 55.4436L169.339 58.9699L172.133 61.8329L175.747 58.3065L172.953 55.4436ZM173.49 53.5009C173.668 54.1675 173.52 54.8901 172.953 55.4436L175.747 58.3065C177.431 56.6633 177.876 54.4168 177.354 52.4677L173.49 53.5009ZM171.844 49.9443C173.084 50.1247 173.797 51.343 173.493 52.4575L177.352 53.511C178.236 50.2739 176.233 46.5406 172.42 45.986L171.844 49.9443ZM166.857 49.2188L171.844 49.9443L172.42 45.986L167.432 45.2605L166.857 49.2188ZM162.339 45.9346C163.212 47.7063 164.902 48.9345 166.857 49.2188L167.432 45.2605C166.781 45.1657 166.218 44.7563 165.926 44.1658L162.339 45.9346ZM160.111 41.4164L162.339 45.9346L165.926 44.1658L163.699 39.6475L160.111 41.4164Z" fill="white" mask="url(#path-16-outside-3_215_4253)"/>
<g filter="url(#filter3_d_215_4253)">
<path d="M154.873 40.5585C156.34 37.5837 160.582 37.5837 162.048 40.5585L164.276 45.0768C164.858 46.2579 165.985 47.0767 167.288 47.2662L172.276 47.9917C175.555 48.4687 176.865 52.4985 174.493 54.813L170.879 58.3394C169.938 59.2581 169.508 60.5812 169.73 61.8779L170.583 66.8532C171.143 70.1213 167.712 72.6126 164.777 71.0685L160.324 68.7247C159.157 68.1111 157.764 68.1111 156.598 68.7247L152.144 71.0685C149.21 72.6126 145.779 70.1213 146.339 66.8532L147.191 61.8779C147.414 60.5812 146.984 59.2581 146.042 58.3394L142.428 54.813C140.056 52.4985 141.366 48.4687 144.646 47.9917L149.634 47.2662C150.937 47.0767 152.063 46.2579 152.645 45.0768L154.873 40.5585Z" fill="url(#paint9_linear_215_4253)"/>
</g>
<g filter="url(#filter4_d_215_4253)">
<mask id="path-19-outside-4_215_4253" maskUnits="userSpaceOnUse" x="93" y="87.1369" width="60" height="21" fill="black">
<rect fill="white" x="93" y="87.1369" width="60" height="21"/>
<path d="M97.86 106.717C97.1267 106.717 96.52 106.557 96.04 106.237C95.5733 105.93 95.2 105.504 94.92 104.957C94.6533 104.41 94.4533 103.784 94.32 103.077C94.2 102.37 94.12 101.617 94.08 100.817C94.0533 100.004 94.04 99.1902 94.04 98.3769C94.04 97.6702 94.06 96.8969 94.1 96.0569C94.14 95.2036 94.1867 94.3436 94.24 93.4769C94.3067 92.5969 94.3733 91.7702 94.44 90.9969C94.52 90.2236 94.5933 89.5502 94.66 88.9769L98.28 89.0169C98.1733 89.6969 98.0733 90.4702 97.98 91.3369C97.8867 92.1902 97.8067 93.0569 97.74 93.9369C97.6867 94.8169 97.64 95.6302 97.6 96.3769C97.5733 97.1236 97.56 97.7169 97.56 98.1569C97.56 99.3702 97.58 100.324 97.62 101.017C97.6733 101.71 97.7467 102.204 97.84 102.497C97.9467 102.777 98.0867 102.917 98.26 102.917C98.4867 102.917 98.7333 102.777 99 102.497C99.2667 102.204 99.5267 101.877 99.78 101.517L101.48 104.897C101.067 105.35 100.573 105.764 100 106.137C99.4267 106.524 98.7133 106.717 97.86 106.717ZM111.638 106.477C110.385 106.477 109.245 106.244 108.218 105.777C107.192 105.324 106.305 104.69 105.558 103.877C104.812 103.064 104.238 102.137 103.838 101.097C103.438 100.057 103.238 98.9569 103.238 97.7969C103.238 96.7302 103.398 95.6836 103.718 94.6569C104.038 93.6169 104.525 92.6769 105.178 91.8369C105.832 90.9836 106.658 90.3036 107.658 89.7969C108.672 89.2902 109.865 89.0369 111.238 89.0369C112.665 89.0369 113.905 89.2836 114.958 89.7769C116.012 90.2569 116.878 90.9036 117.558 91.7169C118.238 92.5302 118.745 93.4502 119.078 94.4769C119.412 95.5036 119.578 96.5569 119.578 97.6369C119.578 98.9302 119.385 100.117 118.998 101.197C118.612 102.277 118.065 103.217 117.358 104.017C116.652 104.804 115.812 105.41 114.838 105.837C113.865 106.264 112.798 106.477 111.638 106.477ZM111.638 103.137C112.438 103.137 113.178 102.944 113.858 102.557C114.538 102.157 115.085 101.537 115.498 100.697C115.912 99.8569 116.118 98.7636 116.118 97.4169C116.118 96.2569 115.892 95.3036 115.438 94.5569C114.985 93.8102 114.398 93.2569 113.678 92.8969C112.958 92.5369 112.205 92.3569 111.418 92.3569C110.525 92.3569 109.772 92.5169 109.158 92.8369C108.545 93.1569 108.052 93.5902 107.678 94.1369C107.305 94.6702 107.038 95.2702 106.878 95.9369C106.718 96.6036 106.638 97.2902 106.638 97.9969C106.638 98.6902 106.772 99.3502 107.038 99.9769C107.305 100.59 107.665 101.137 108.118 101.617C108.585 102.084 109.118 102.457 109.718 102.737C110.318 103.004 110.958 103.137 111.638 103.137ZM129.118 106.737C127.998 106.737 126.958 106.57 125.998 106.237C125.038 105.904 124.171 105.464 123.398 104.917C122.638 104.357 121.971 103.757 121.398 103.117L123.398 99.9369C123.571 100.39 123.858 100.824 124.258 101.237C124.671 101.65 125.151 102.017 125.698 102.337C126.245 102.657 126.818 102.91 127.418 103.097C128.031 103.284 128.631 103.377 129.218 103.377C130.098 103.377 130.798 103.237 131.318 102.957C131.838 102.664 132.098 102.277 132.098 101.797C132.098 101.424 131.978 101.117 131.738 100.877C131.511 100.624 131.245 100.424 130.938 100.277C130.645 100.117 130.391 99.9769 130.178 99.8569C130.018 99.7769 129.725 99.6569 129.298 99.4969C128.885 99.3236 128.418 99.1369 127.898 98.9369C127.378 98.7369 126.885 98.5502 126.418 98.3769C125.951 98.1902 125.585 98.0369 125.318 97.9169C123.331 97.0236 122.338 95.6436 122.338 93.7769C122.338 93.1769 122.451 92.5902 122.678 92.0169C122.918 91.4302 123.278 90.8969 123.758 90.4169C124.238 89.9369 124.851 89.5569 125.598 89.2769C126.345 88.9969 127.238 88.8569 128.278 88.8569C129.411 88.8569 130.418 88.9836 131.298 89.2369C132.178 89.4769 132.951 89.7836 133.618 90.1569C134.298 90.5302 134.878 90.9236 135.358 91.3369L133.518 94.4169C132.038 92.9502 130.365 92.2169 128.498 92.2169C127.711 92.2169 127.111 92.3036 126.698 92.4769C126.298 92.6369 126.025 92.8236 125.878 93.0369C125.745 93.2369 125.678 93.4036 125.678 93.5369C125.678 93.7636 125.758 93.9902 125.918 94.2169C126.091 94.4436 126.471 94.6836 127.058 94.9369C127.298 95.0436 127.618 95.1769 128.018 95.3369C128.431 95.4836 128.885 95.6502 129.378 95.8369C129.885 96.0236 130.378 96.2236 130.858 96.4369C131.351 96.6369 131.798 96.8436 132.198 97.0569C132.678 97.3236 133.171 97.6502 133.678 98.0369C134.185 98.4236 134.611 98.9036 134.958 99.4769C135.318 100.037 135.498 100.724 135.498 101.537C135.498 102.03 135.405 102.577 135.218 103.177C135.031 103.764 134.705 104.33 134.238 104.877C133.771 105.424 133.125 105.87 132.298 106.217C131.471 106.564 130.411 106.737 129.118 106.737ZM144.279 106.617C143.266 106.617 142.353 106.544 141.539 106.397C140.739 106.264 140.059 105.997 139.499 105.597C138.939 105.21 138.513 104.637 138.219 103.877C137.926 103.117 137.779 102.124 137.779 100.897C137.779 100.004 137.826 99.0769 137.919 98.1169C138.013 97.1569 138.126 96.2302 138.259 95.3369C138.406 94.4302 138.546 93.6236 138.679 92.9169C138.413 92.9569 138.186 92.9969 137.999 93.0369L137.619 89.8569C138.273 89.7369 139.026 89.6369 139.879 89.5569C140.746 89.4636 141.659 89.3836 142.619 89.3169C143.593 89.2502 144.559 89.2036 145.519 89.1769C146.479 89.1369 147.379 89.1169 148.219 89.1169C148.886 89.1169 149.493 89.1302 150.039 89.1569C150.599 89.1702 151.059 89.1969 151.419 89.2369L151.259 92.5769C150.899 92.5102 150.413 92.4636 149.799 92.4369C149.186 92.3969 148.499 92.3769 147.739 92.3769C146.846 92.3769 145.893 92.3969 144.879 92.4369C143.866 92.4769 142.899 92.5236 141.979 92.5769C141.873 93.1369 141.779 93.7102 141.699 94.2969C141.619 94.8836 141.546 95.4636 141.479 96.0369C142.253 95.9302 143.099 95.8502 144.019 95.7969C144.953 95.7302 145.879 95.6836 146.799 95.6569C147.719 95.6169 148.546 95.5969 149.279 95.5969C149.706 95.5969 150.086 95.6036 150.419 95.6169C150.753 95.6169 151.026 95.6302 151.239 95.6569L151.159 98.9369C150.986 98.9236 150.746 98.9169 150.439 98.9169C150.146 98.9036 149.799 98.8969 149.399 98.8969C148.826 98.8969 148.186 98.9102 147.479 98.9369C146.773 98.9502 146.039 98.9769 145.279 99.0169C144.533 99.0436 143.806 99.0836 143.099 99.1369C142.393 99.1769 141.753 99.2302 141.179 99.2969C141.126 100.044 141.099 100.644 141.099 101.097C141.099 101.75 141.186 102.23 141.359 102.537C141.533 102.844 141.819 103.044 142.219 103.137C142.633 103.217 143.173 103.257 143.839 103.257C145.026 103.257 146.299 103.157 147.659 102.957C149.033 102.757 150.386 102.444 151.719 102.017L151.939 105.497C150.339 105.937 148.886 106.23 147.579 106.377C146.286 106.537 145.186 106.617 144.279 106.617Z"/>
</mask>
<path d="M97.86 106.717C97.1267 106.717 96.52 106.557 96.04 106.237C95.5733 105.93 95.2 105.504 94.92 104.957C94.6533 104.41 94.4533 103.784 94.32 103.077C94.2 102.37 94.12 101.617 94.08 100.817C94.0533 100.004 94.04 99.1902 94.04 98.3769C94.04 97.6702 94.06 96.8969 94.1 96.0569C94.14 95.2036 94.1867 94.3436 94.24 93.4769C94.3067 92.5969 94.3733 91.7702 94.44 90.9969C94.52 90.2236 94.5933 89.5502 94.66 88.9769L98.28 89.0169C98.1733 89.6969 98.0733 90.4702 97.98 91.3369C97.8867 92.1902 97.8067 93.0569 97.74 93.9369C97.6867 94.8169 97.64 95.6302 97.6 96.3769C97.5733 97.1236 97.56 97.7169 97.56 98.1569C97.56 99.3702 97.58 100.324 97.62 101.017C97.6733 101.71 97.7467 102.204 97.84 102.497C97.9467 102.777 98.0867 102.917 98.26 102.917C98.4867 102.917 98.7333 102.777 99 102.497C99.2667 102.204 99.5267 101.877 99.78 101.517L101.48 104.897C101.067 105.35 100.573 105.764 100 106.137C99.4267 106.524 98.7133 106.717 97.86 106.717ZM111.638 106.477C110.385 106.477 109.245 106.244 108.218 105.777C107.192 105.324 106.305 104.69 105.558 103.877C104.812 103.064 104.238 102.137 103.838 101.097C103.438 100.057 103.238 98.9569 103.238 97.7969C103.238 96.7302 103.398 95.6836 103.718 94.6569C104.038 93.6169 104.525 92.6769 105.178 91.8369C105.832 90.9836 106.658 90.3036 107.658 89.7969C108.672 89.2902 109.865 89.0369 111.238 89.0369C112.665 89.0369 113.905 89.2836 114.958 89.7769C116.012 90.2569 116.878 90.9036 117.558 91.7169C118.238 92.5302 118.745 93.4502 119.078 94.4769C119.412 95.5036 119.578 96.5569 119.578 97.6369C119.578 98.9302 119.385 100.117 118.998 101.197C118.612 102.277 118.065 103.217 117.358 104.017C116.652 104.804 115.812 105.41 114.838 105.837C113.865 106.264 112.798 106.477 111.638 106.477ZM111.638 103.137C112.438 103.137 113.178 102.944 113.858 102.557C114.538 102.157 115.085 101.537 115.498 100.697C115.912 99.8569 116.118 98.7636 116.118 97.4169C116.118 96.2569 115.892 95.3036 115.438 94.5569C114.985 93.8102 114.398 93.2569 113.678 92.8969C112.958 92.5369 112.205 92.3569 111.418 92.3569C110.525 92.3569 109.772 92.5169 109.158 92.8369C108.545 93.1569 108.052 93.5902 107.678 94.1369C107.305 94.6702 107.038 95.2702 106.878 95.9369C106.718 96.6036 106.638 97.2902 106.638 97.9969C106.638 98.6902 106.772 99.3502 107.038 99.9769C107.305 100.59 107.665 101.137 108.118 101.617C108.585 102.084 109.118 102.457 109.718 102.737C110.318 103.004 110.958 103.137 111.638 103.137ZM129.118 106.737C127.998 106.737 126.958 106.57 125.998 106.237C125.038 105.904 124.171 105.464 123.398 104.917C122.638 104.357 121.971 103.757 121.398 103.117L123.398 99.9369C123.571 100.39 123.858 100.824 124.258 101.237C124.671 101.65 125.151 102.017 125.698 102.337C126.245 102.657 126.818 102.91 127.418 103.097C128.031 103.284 128.631 103.377 129.218 103.377C130.098 103.377 130.798 103.237 131.318 102.957C131.838 102.664 132.098 102.277 132.098 101.797C132.098 101.424 131.978 101.117 131.738 100.877C131.511 100.624 131.245 100.424 130.938 100.277C130.645 100.117 130.391 99.9769 130.178 99.8569C130.018 99.7769 129.725 99.6569 129.298 99.4969C128.885 99.3236 128.418 99.1369 127.898 98.9369C127.378 98.7369 126.885 98.5502 126.418 98.3769C125.951 98.1902 125.585 98.0369 125.318 97.9169C123.331 97.0236 122.338 95.6436 122.338 93.7769C122.338 93.1769 122.451 92.5902 122.678 92.0169C122.918 91.4302 123.278 90.8969 123.758 90.4169C124.238 89.9369 124.851 89.5569 125.598 89.2769C126.345 88.9969 127.238 88.8569 128.278 88.8569C129.411 88.8569 130.418 88.9836 131.298 89.2369C132.178 89.4769 132.951 89.7836 133.618 90.1569C134.298 90.5302 134.878 90.9236 135.358 91.3369L133.518 94.4169C132.038 92.9502 130.365 92.2169 128.498 92.2169C127.711 92.2169 127.111 92.3036 126.698 92.4769C126.298 92.6369 126.025 92.8236 125.878 93.0369C125.745 93.2369 125.678 93.4036 125.678 93.5369C125.678 93.7636 125.758 93.9902 125.918 94.2169C126.091 94.4436 126.471 94.6836 127.058 94.9369C127.298 95.0436 127.618 95.1769 128.018 95.3369C128.431 95.4836 128.885 95.6502 129.378 95.8369C129.885 96.0236 130.378 96.2236 130.858 96.4369C131.351 96.6369 131.798 96.8436 132.198 97.0569C132.678 97.3236 133.171 97.6502 133.678 98.0369C134.185 98.4236 134.611 98.9036 134.958 99.4769C135.318 100.037 135.498 100.724 135.498 101.537C135.498 102.03 135.405 102.577 135.218 103.177C135.031 103.764 134.705 104.33 134.238 104.877C133.771 105.424 133.125 105.87 132.298 106.217C131.471 106.564 130.411 106.737 129.118 106.737ZM144.279 106.617C143.266 106.617 142.353 106.544 141.539 106.397C140.739 106.264 140.059 105.997 139.499 105.597C138.939 105.21 138.513 104.637 138.219 103.877C137.926 103.117 137.779 102.124 137.779 100.897C137.779 100.004 137.826 99.0769 137.919 98.1169C138.013 97.1569 138.126 96.2302 138.259 95.3369C138.406 94.4302 138.546 93.6236 138.679 92.9169C138.413 92.9569 138.186 92.9969 137.999 93.0369L137.619 89.8569C138.273 89.7369 139.026 89.6369 139.879 89.5569C140.746 89.4636 141.659 89.3836 142.619 89.3169C143.593 89.2502 144.559 89.2036 145.519 89.1769C146.479 89.1369 147.379 89.1169 148.219 89.1169C148.886 89.1169 149.493 89.1302 150.039 89.1569C150.599 89.1702 151.059 89.1969 151.419 89.2369L151.259 92.5769C150.899 92.5102 150.413 92.4636 149.799 92.4369C149.186 92.3969 148.499 92.3769 147.739 92.3769C146.846 92.3769 145.893 92.3969 144.879 92.4369C143.866 92.4769 142.899 92.5236 141.979 92.5769C141.873 93.1369 141.779 93.7102 141.699 94.2969C141.619 94.8836 141.546 95.4636 141.479 96.0369C142.253 95.9302 143.099 95.8502 144.019 95.7969C144.953 95.7302 145.879 95.6836 146.799 95.6569C147.719 95.6169 148.546 95.5969 149.279 95.5969C149.706 95.5969 150.086 95.6036 150.419 95.6169C150.753 95.6169 151.026 95.6302 151.239 95.6569L151.159 98.9369C150.986 98.9236 150.746 98.9169 150.439 98.9169C150.146 98.9036 149.799 98.8969 149.399 98.8969C148.826 98.8969 148.186 98.9102 147.479 98.9369C146.773 98.9502 146.039 98.9769 145.279 99.0169C144.533 99.0436 143.806 99.0836 143.099 99.1369C142.393 99.1769 141.753 99.2302 141.179 99.2969C141.126 100.044 141.099 100.644 141.099 101.097C141.099 101.75 141.186 102.23 141.359 102.537C141.533 102.844 141.819 103.044 142.219 103.137C142.633 103.217 143.173 103.257 143.839 103.257C145.026 103.257 146.299 103.157 147.659 102.957C149.033 102.757 150.386 102.444 151.719 102.017L151.939 105.497C150.339 105.937 148.886 106.23 147.579 106.377C146.286 106.537 145.186 106.617 144.279 106.617Z" fill="white"/>
<path d="M96.04 106.237L96.5947 105.405L96.5892 105.401L96.04 106.237ZM94.92 104.957L94.0212 105.395L94.0255 105.404L94.03 105.413L94.92 104.957ZM94.32 103.077L93.3341 103.244L93.3356 103.253L93.3373 103.262L94.32 103.077ZM94.08 100.817L93.0805 100.85L93.0808 100.858L93.0812 100.867L94.08 100.817ZM94.1 96.0569L95.0989 96.1045L95.0989 96.1037L94.1 96.0569ZM94.24 93.4769L93.2429 93.4014L93.2423 93.4084L93.2419 93.4155L94.24 93.4769ZM94.44 90.9969L93.4453 90.894L93.4444 90.9025L93.4437 90.911L94.44 90.9969ZM94.66 88.9769L94.671 87.977L93.7707 87.967L93.6667 88.8614L94.66 88.9769ZM98.28 89.0169L99.2679 89.1719L99.4471 88.0297L98.291 88.017L98.28 89.0169ZM97.98 91.3369L98.9741 91.4456L98.9743 91.444L97.98 91.3369ZM97.74 93.9369L96.7429 93.8614L96.7423 93.8689L96.7418 93.8764L97.74 93.9369ZM97.6 96.3769L96.6014 96.3234L96.601 96.3323L96.6006 96.3412L97.6 96.3769ZM97.62 101.017L96.6217 101.074L96.6222 101.084L96.6229 101.094L97.62 101.017ZM97.84 102.497L96.8871 102.8L96.8956 102.827L96.9055 102.853L97.84 102.497ZM99 102.497L99.7241 103.187L99.7321 103.178L99.7399 103.17L99 102.497ZM99.78 101.517L100.673 101.068L99.9231 99.5759L98.9622 100.941L99.78 101.517ZM101.48 104.897L102.219 105.571L102.683 105.062L102.373 104.448L101.48 104.897ZM100 106.137L99.4543 105.299L99.4476 105.303L99.4409 105.308L100 106.137ZM97.86 105.717C97.2708 105.717 96.8711 105.589 96.5947 105.405L95.4853 107.069C96.1689 107.525 96.9826 107.717 97.86 107.717V105.717ZM96.5892 105.401C96.2812 105.199 96.0193 104.91 95.81 104.501L94.03 105.413C94.3807 106.098 94.8655 106.662 95.4908 107.073L96.5892 105.401ZM95.8188 104.518C95.5976 104.065 95.4224 103.526 95.3027 102.891L93.3373 103.262C93.4843 104.041 93.7091 104.755 94.0212 105.395L95.8188 104.518ZM95.3059 102.909C95.1932 102.246 95.117 101.532 95.0788 100.767L93.0812 100.867C93.123 101.702 93.2068 102.495 93.3341 103.244L95.3059 102.909ZM95.0795 100.784C95.0532 99.9817 95.04 99.1793 95.04 98.3769H93.04C93.04 99.2012 93.0535 100.025 93.0805 100.85L95.0795 100.784ZM95.04 98.3769C95.04 97.6887 95.0595 96.9315 95.0989 96.1045L93.1011 96.0093C93.0605 96.8623 93.04 97.6517 93.04 98.3769H95.04ZM95.0989 96.1037C95.1387 95.2553 95.1851 94.4002 95.2381 93.5383L93.2419 93.4155C93.1883 94.2869 93.1413 95.1518 93.1011 96.0101L95.0989 96.1037ZM95.2371 93.5524C95.3036 92.6754 95.37 91.8522 95.4363 91.0828L93.4437 90.911C93.3767 91.6882 93.3098 92.5184 93.2429 93.4014L95.2371 93.5524ZM95.4347 91.0998C95.5144 90.3293 95.5873 89.6604 95.6533 89.0924L93.6667 88.8614C93.5994 89.4401 93.5256 90.1178 93.4453 90.894L95.4347 91.0998ZM94.649 89.9768L98.269 90.0168L98.291 88.017L94.671 87.977L94.649 89.9768ZM97.2921 88.8619C97.1824 89.5614 97.0804 90.3511 96.9857 91.2298L98.9743 91.444C99.0663 90.5893 99.1643 89.8324 99.2679 89.1719L97.2921 88.8619ZM96.9859 91.2282C96.8914 92.0929 96.8103 92.9706 96.7429 93.8614L98.7371 94.0124C98.803 93.1432 98.882 92.2876 98.9741 91.4456L96.9859 91.2282ZM96.7418 93.8764C96.6884 94.7583 96.6416 95.574 96.6014 96.3234L98.5986 96.4304C98.6384 95.6864 98.685 94.8755 98.7382 93.9974L96.7418 93.8764ZM96.6006 96.3412C96.5738 97.0928 96.56 97.6996 96.56 98.1569H98.56C98.56 97.7342 98.5729 97.1543 98.5994 96.4126L96.6006 96.3412ZM96.56 98.1569C96.56 99.3776 96.58 100.353 96.6217 101.074L98.6183 100.959C98.58 100.294 98.56 99.3629 98.56 98.1569H96.56ZM96.6229 101.094C96.6767 101.792 96.7556 102.387 96.8871 102.8L98.7929 102.194C98.7377 102.02 98.67 101.628 98.6171 100.94L96.6229 101.094ZM96.9055 102.853C97.0418 103.211 97.4175 103.917 98.26 103.917V101.917C98.3558 101.917 98.4537 101.937 98.5442 101.978C98.6322 102.017 98.6939 102.067 98.7321 102.105C98.7996 102.172 98.801 102.21 98.7745 102.141L96.9055 102.853ZM98.26 103.917C98.9006 103.917 99.3943 103.533 99.7241 103.187L98.2759 101.807C98.2332 101.852 98.1979 101.884 98.1705 101.907C98.143 101.929 98.1265 101.939 98.1214 101.942C98.1113 101.948 98.1619 101.917 98.26 101.917V103.917ZM99.7399 103.17C100.037 102.842 100.323 102.483 100.598 102.092L98.9622 100.941C98.7302 101.271 98.4959 101.565 98.2601 101.824L99.7399 103.17ZM98.8866 101.966L100.587 105.346L102.373 104.448L100.673 101.068L98.8866 101.966ZM100.741 104.223C100.391 104.607 99.9646 104.967 99.4543 105.299L100.546 106.975C101.182 106.56 101.742 106.093 102.219 105.571L100.741 104.223ZM99.4409 105.308C99.0678 105.559 98.561 105.717 97.86 105.717V107.717C98.8656 107.717 99.7856 107.488 100.559 106.966L99.4409 105.308ZM108.218 105.777L108.632 104.866L108.622 104.862L108.218 105.777ZM105.558 103.877L104.822 104.553L105.558 103.877ZM103.838 101.097L104.772 100.738H104.772L103.838 101.097ZM103.718 94.6569L104.673 94.9545L104.674 94.951L103.718 94.6569ZM105.178 91.8369L105.968 92.4509L105.972 92.4448L105.178 91.8369ZM107.658 89.7969L107.211 88.9025L107.206 88.9049L107.658 89.7969ZM114.958 89.7769L114.534 90.6825L114.544 90.6869L114.958 89.7769ZM117.558 91.7169L116.791 92.3583L117.558 91.7169ZM119.078 94.4769L120.029 94.1681V94.1681L119.078 94.4769ZM118.998 101.197L119.94 101.534L119.94 101.534L118.998 101.197ZM117.358 104.017L118.102 104.685L118.108 104.679L117.358 104.017ZM114.838 105.837L115.24 106.753L114.838 105.837ZM113.858 102.557L114.353 103.426L114.359 103.423L114.365 103.419L113.858 102.557ZM115.498 100.697L116.396 101.138L115.498 100.697ZM115.438 94.5569L116.293 94.0379L115.438 94.5569ZM109.158 92.8369L109.621 93.7235V93.7235L109.158 92.8369ZM107.678 94.1369L108.498 94.7104L108.504 94.7009L107.678 94.1369ZM106.878 95.9369L105.906 95.7035L106.878 95.9369ZM107.038 99.9769L106.118 100.368L106.121 100.376L107.038 99.9769ZM108.118 101.617L107.391 102.304L107.401 102.314L107.411 102.324L108.118 101.617ZM109.718 102.737L109.295 103.643L109.304 103.647L109.312 103.651L109.718 102.737ZM111.638 105.477C110.512 105.477 109.515 105.268 108.632 104.867L107.804 106.687C108.975 107.219 110.258 107.477 111.638 107.477V105.477ZM108.622 104.862C107.72 104.464 106.947 103.911 106.295 103.201L104.822 104.553C105.663 105.47 106.664 106.184 107.814 106.692L108.622 104.862ZM106.295 103.201C105.634 102.481 105.127 101.662 104.772 100.738L102.905 101.456C103.35 102.612 103.989 103.646 104.822 104.553L106.295 103.201ZM104.772 100.738C104.417 99.8172 104.238 98.8393 104.238 97.7969H102.238C102.238 99.0745 102.459 100.297 102.905 101.456L104.772 100.738ZM104.238 97.7969C104.238 96.832 104.383 95.8856 104.673 94.9545L102.764 94.3593C102.414 95.4815 102.238 96.6285 102.238 97.7969H104.238ZM104.674 94.951C104.959 94.0242 105.39 93.193 105.968 92.4508L104.389 91.223C103.66 92.1608 103.117 93.2097 102.763 94.3628L104.674 94.951ZM105.972 92.4448C106.53 91.7158 107.238 91.1308 108.11 90.6889L107.206 88.9049C106.078 89.4764 105.133 90.2513 104.384 91.229L105.972 92.4448ZM108.105 90.6913C108.954 90.2673 109.988 90.0369 111.238 90.0369V88.0369C109.742 88.0369 108.39 88.3132 107.211 88.9025L108.105 90.6913ZM111.238 90.0369C112.551 90.0369 113.64 90.2638 114.534 90.6825L115.382 88.8713C114.17 88.3033 112.779 88.0369 111.238 88.0369V90.0369ZM114.544 90.6869C115.474 91.1106 116.216 91.67 116.791 92.3583L118.325 91.0755C117.541 90.1372 116.55 89.4032 115.373 88.8669L114.544 90.6869ZM116.791 92.3583C117.388 93.0718 117.833 93.8784 118.127 94.7857L120.029 94.1681C119.657 93.0221 119.089 91.9887 118.325 91.0755L116.791 92.3583ZM118.127 94.7857C118.428 95.7126 118.578 96.6617 118.578 97.6369H120.578C120.578 96.4521 120.395 95.2946 120.029 94.1681L118.127 94.7857ZM118.578 97.6369C118.578 98.8298 118.4 99.9008 118.057 100.86L119.94 101.534C120.37 100.333 120.578 99.0306 120.578 97.6369H118.578ZM118.057 100.86C117.71 101.829 117.225 102.657 116.609 103.355L118.108 104.679C118.905 103.777 119.514 102.724 119.94 101.534L118.057 100.86ZM116.614 103.349C116.003 104.029 115.28 104.551 114.437 104.921L115.24 106.753C116.343 106.269 117.3 105.578 118.102 104.685L116.614 103.349ZM114.437 104.921C113.601 105.287 112.673 105.477 111.638 105.477V107.477C112.924 107.477 114.129 107.24 115.24 106.753L114.437 104.921ZM111.638 104.137C112.607 104.137 113.518 103.901 114.353 103.426L113.364 101.688C112.838 101.987 112.269 102.137 111.638 102.137V104.137ZM114.365 103.419C115.243 102.903 115.912 102.12 116.396 101.138L114.601 100.255C114.258 100.953 113.834 101.411 113.351 101.695L114.365 103.419ZM116.396 101.138C116.899 100.114 117.118 98.8543 117.118 97.4169H115.118C115.118 98.6728 114.924 99.5995 114.601 100.255L116.396 101.138ZM117.118 97.4169C117.118 96.1323 116.868 94.9844 116.293 94.0379L114.583 95.0759C114.916 95.6228 115.118 96.3815 115.118 97.4169H117.118ZM116.293 94.0379C115.751 93.1445 115.028 92.4539 114.125 92.0025L113.231 93.7913C113.768 94.0599 114.219 94.476 114.583 95.0759L116.293 94.0379ZM114.125 92.0025C113.27 91.5747 112.364 91.3569 111.418 91.3569V93.3569C112.046 93.3569 112.647 93.4991 113.231 93.7913L114.125 92.0025ZM111.418 91.3569C110.409 91.3569 109.487 91.5373 108.696 91.9503L109.621 93.7235C110.056 93.4965 110.641 93.3569 111.418 93.3569V91.3569ZM108.696 91.9503C107.943 92.3428 107.323 92.8843 106.852 93.5729L108.504 94.7009C108.78 94.2962 109.146 93.971 109.621 93.7235L108.696 91.9503ZM106.859 93.5634C106.41 94.2049 106.094 94.9215 105.906 95.7035L107.851 96.1703C107.983 95.619 108.2 95.1356 108.498 94.7104L106.859 93.5634ZM105.906 95.7035C105.727 96.449 105.638 97.2141 105.638 97.9969H107.638C107.638 97.3664 107.71 96.7582 107.851 96.1703L105.906 95.7035ZM105.638 97.9969C105.638 98.8223 105.798 99.6157 106.118 100.368L107.958 99.5853C107.745 99.0848 107.638 98.5582 107.638 97.9969H105.638ZM106.121 100.376C106.433 101.094 106.857 101.738 107.391 102.304L108.845 100.93C108.473 100.536 108.176 100.087 107.955 99.5782L106.121 100.376ZM107.411 102.324C107.961 102.873 108.59 103.314 109.295 103.643L110.141 101.831C109.646 101.6 109.209 101.294 108.825 100.91L107.411 102.324ZM109.312 103.651C110.045 103.976 110.823 104.137 111.638 104.137V102.137C111.093 102.137 110.592 102.031 110.124 101.823L109.312 103.651ZM125.998 106.237L126.326 105.292L125.998 106.237ZM123.398 104.917L122.805 105.722L122.813 105.728L122.821 105.733L123.398 104.917ZM121.398 103.117L120.552 102.585L120.15 103.223L120.653 103.784L121.398 103.117ZM123.398 99.9369L124.332 99.5798L123.617 97.7101L122.552 99.4045L123.398 99.9369ZM124.258 101.237L123.54 101.932L123.545 101.938L123.551 101.944L124.258 101.237ZM125.698 102.337L125.193 103.2L125.698 102.337ZM127.418 103.097L127.121 104.052L127.127 104.054L127.418 103.097ZM131.318 102.957L131.792 103.837L131.801 103.833L131.809 103.828L131.318 102.957ZM131.738 100.877L130.993 101.544L131.011 101.564L131.031 101.584L131.738 100.877ZM130.938 100.277L130.459 101.155L130.483 101.168L130.507 101.179L130.938 100.277ZM130.178 99.8569L130.668 98.9853L130.647 98.9734L130.625 98.9625L130.178 99.8569ZM129.298 99.4969L128.911 100.419L128.929 100.427L128.947 100.433L129.298 99.4969ZM127.898 98.9369L127.539 99.8702V99.8702L127.898 98.9369ZM126.418 98.3769L126.047 99.3054L126.058 99.31L126.07 99.3143L126.418 98.3769ZM125.318 97.9169L125.728 97.005L125.728 97.0049L125.318 97.9169ZM122.678 92.0169L121.753 91.6382L121.748 91.6492L122.678 92.0169ZM123.758 90.4169L123.051 89.7098L123.051 89.7098L123.758 90.4169ZM125.598 89.2769L125.247 88.3406L125.598 89.2769ZM131.298 89.2369L131.021 90.198L131.035 90.2017L131.298 89.2369ZM133.618 90.1569L133.13 91.0294L133.137 91.0335L133.618 90.1569ZM135.358 91.3369L136.217 91.8498L136.648 91.1278L136.011 90.5791L135.358 91.3369ZM133.518 94.4169L132.814 95.1272L133.722 96.0263L134.377 94.9298L133.518 94.4169ZM126.698 92.4769L127.07 93.4054L127.077 93.4023L127.085 93.3991L126.698 92.4769ZM125.878 93.0369L125.054 92.4704L125.05 92.4763L125.046 92.4822L125.878 93.0369ZM125.918 94.2169L125.101 94.7936L125.112 94.8092L125.124 94.8244L125.918 94.2169ZM127.058 94.9369L127.464 94.023L127.455 94.0188L127.058 94.9369ZM128.018 95.3369L127.647 96.2654L127.665 96.2727L127.684 96.2793L128.018 95.3369ZM129.378 95.8369L129.024 96.7722L129.032 96.7752L129.378 95.8369ZM130.858 96.4369L130.452 97.3507L130.467 97.3574L130.482 97.3636L130.858 96.4369ZM132.198 97.0569L132.684 96.1827L132.676 96.1786L132.669 96.1745L132.198 97.0569ZM133.678 98.0369L134.285 97.242L133.678 98.0369ZM134.958 99.4769L134.102 99.9943L134.11 100.006L134.117 100.018L134.958 99.4769ZM135.218 103.177L136.171 103.48L136.173 103.474L135.218 103.177ZM132.298 106.217L131.911 105.295L132.298 106.217ZM129.118 105.737C128.098 105.737 127.17 105.585 126.326 105.292L125.67 107.182C126.746 107.555 127.898 107.737 129.118 107.737V105.737ZM126.326 105.292C125.448 104.987 124.667 104.589 123.975 104.1L122.821 105.733C123.676 106.338 124.628 106.82 125.67 107.182L126.326 105.292ZM123.991 104.112C123.281 103.589 122.666 103.034 122.143 102.45L120.653 103.784C121.277 104.48 121.995 105.125 122.805 105.722L123.991 104.112ZM122.245 103.649L124.245 100.469L122.552 99.4045L120.552 102.585L122.245 103.649ZM122.464 100.294C122.694 100.895 123.063 101.44 123.54 101.932L124.977 100.541C124.654 100.208 124.449 99.8858 124.332 99.5798L122.464 100.294ZM123.551 101.944C124.03 102.423 124.579 102.84 125.193 103.2L126.203 101.474C125.724 101.193 125.313 100.878 124.965 100.53L123.551 101.944ZM125.193 103.2C125.805 103.558 126.448 103.842 127.121 104.052L127.715 102.142C127.188 101.978 126.685 101.756 126.203 101.474L125.193 103.2ZM127.127 104.054C127.826 104.266 128.524 104.377 129.218 104.377V102.377C128.739 102.377 128.237 102.301 127.709 102.14L127.127 104.054ZM129.218 104.377C130.189 104.377 131.072 104.225 131.792 103.837L130.844 102.076C130.524 102.249 130.007 102.377 129.218 102.377V104.377ZM131.809 103.828C132.554 103.408 133.098 102.73 133.098 101.797H131.098C131.098 101.844 131.089 101.866 131.073 101.889C131.051 101.922 130.988 101.995 130.827 102.086L131.809 103.828ZM133.098 101.797C133.098 101.187 132.892 100.617 132.445 100.17L131.031 101.584C131.064 101.617 131.098 101.66 131.098 101.797H133.098ZM132.483 100.21C132.169 99.8584 131.795 99.5784 131.37 99.3748L130.507 101.179C130.694 101.269 130.854 101.389 130.993 101.544L132.483 100.21ZM131.417 99.399C131.126 99.2404 130.877 99.1026 130.668 98.9853L129.688 100.728C129.906 100.851 130.163 100.993 130.459 101.155L131.417 99.399ZM130.625 98.9625C130.413 98.8562 130.074 98.7198 129.649 98.5606L128.947 100.433C129.376 100.594 129.624 100.698 129.731 100.751L130.625 98.9625ZM129.685 98.5747C129.26 98.3967 128.784 98.2063 128.257 98.0036L127.539 99.8702C128.052 100.067 128.509 100.25 128.911 100.419L129.685 98.5747ZM128.257 98.0036C127.734 97.8023 127.237 97.6143 126.766 97.4395L126.07 99.3143C126.533 99.4862 127.022 99.6715 127.539 99.8702L128.257 98.0036ZM126.79 97.4484C126.328 97.2639 125.976 97.1165 125.728 97.005L124.908 98.8288C125.193 98.9573 125.575 99.1166 126.047 99.3054L126.79 97.4484ZM125.728 97.0049C124.851 96.6104 124.264 96.1403 123.895 95.6277C123.533 95.1246 123.338 94.5221 123.338 93.7769H121.338C121.338 94.8983 121.64 95.9192 122.272 96.7961C122.896 97.6635 123.799 98.33 124.908 98.8289L125.728 97.0049ZM123.338 93.7769C123.338 93.3063 123.426 92.8441 123.608 92.3846L121.748 91.6492C121.477 92.3363 121.338 93.0475 121.338 93.7769H123.338ZM123.604 92.3955C123.79 91.9403 124.072 91.5168 124.465 91.124L123.051 89.7098C122.484 90.277 122.046 90.9202 121.753 91.6383L123.604 92.3955ZM124.465 91.124C124.828 90.7611 125.313 90.4518 125.949 90.2132L125.247 88.3406C124.39 88.662 123.648 89.1127 123.051 89.7098L124.465 91.124ZM125.949 90.2132C126.555 89.986 127.323 89.8569 128.278 89.8569V87.8569C127.153 87.8569 126.134 88.0078 125.247 88.3406L125.949 90.2132ZM128.278 89.8569C129.339 89.8569 130.25 89.9757 131.021 90.1979L131.575 88.2759C130.586 87.9914 129.484 87.8569 128.278 87.8569V89.8569ZM131.035 90.2017C131.851 90.4242 132.546 90.7027 133.13 91.0294L134.107 89.2844C133.357 88.8644 132.505 88.5296 131.561 88.2721L131.035 90.2017ZM133.137 91.0335C133.769 91.3805 134.289 91.7356 134.706 92.0947L136.011 90.5791C135.468 90.1115 134.827 89.68 134.099 89.2803L133.137 91.0335ZM134.5 90.824L132.66 93.904L134.377 94.9298L136.217 91.8498L134.5 90.824ZM134.222 93.7066C132.579 92.0779 130.66 91.2169 128.498 91.2169V93.2169C130.069 93.2169 131.498 93.8226 132.814 95.1272L134.222 93.7066ZM128.498 91.2169C127.664 91.2169 126.907 91.305 126.311 91.5547L127.085 93.3991C127.316 93.3021 127.759 93.2169 128.498 93.2169V91.2169ZM126.327 91.5484C125.853 91.738 125.365 92.0187 125.054 92.4704L126.702 93.6034C126.689 93.6225 126.695 93.6049 126.757 93.5627C126.819 93.5207 126.918 93.4659 127.07 93.4054L126.327 91.5484ZM125.046 92.4822C124.88 92.732 124.678 93.103 124.678 93.5369H126.678C126.678 93.5866 126.672 93.6244 126.667 93.6476C126.662 93.6707 126.657 93.683 126.657 93.6833C126.656 93.6838 126.66 93.676 126.669 93.6595C126.677 93.6431 126.691 93.6206 126.71 93.5916L125.046 92.4822ZM124.678 93.5369C124.678 94.0125 124.849 94.4366 125.101 94.7936L126.735 93.6402C126.7 93.5907 126.686 93.5586 126.681 93.5441C126.677 93.5311 126.678 93.5302 126.678 93.5369H124.678ZM125.124 94.8244C125.468 95.2748 126.068 95.5984 126.662 95.855L127.455 94.0188C127.191 93.9049 126.999 93.8048 126.867 93.7214C126.726 93.6325 126.698 93.5904 126.712 93.6095L125.124 94.8244ZM126.652 95.8507C126.908 95.9647 127.241 96.1032 127.647 96.2654L128.39 94.4084C127.995 94.2506 127.688 94.1225 127.464 94.0231L126.652 95.8507ZM127.684 96.2793C128.089 96.4233 128.536 96.5875 129.024 96.7722L129.732 94.9016C129.233 94.713 128.774 94.5439 128.353 94.3945L127.684 96.2793ZM129.032 96.7752C129.519 96.9546 129.992 97.1465 130.452 97.3507L131.264 95.5231C130.764 95.3007 130.25 95.0925 129.724 94.8986L129.032 96.7752ZM130.482 97.3636C130.949 97.5527 131.363 97.7449 131.728 97.9393L132.669 96.1745C132.233 95.9422 131.754 95.7211 131.234 95.5102L130.482 97.3636ZM131.712 97.9311C132.144 98.1709 132.597 98.4699 133.071 98.8319L134.285 97.242C133.746 96.8305 133.212 96.4762 132.684 96.1827L131.712 97.9311ZM133.071 98.8319C133.473 99.1386 133.817 99.5227 134.102 99.9943L135.814 98.9595C135.406 98.2844 134.896 97.7085 134.285 97.242L133.071 98.8319ZM134.117 100.018C134.352 100.384 134.498 100.873 134.498 101.537H136.498C136.498 100.575 136.284 99.69 135.799 98.9361L134.117 100.018ZM134.498 101.537C134.498 101.906 134.428 102.351 134.263 102.88L136.173 103.474C136.382 102.803 136.498 102.154 136.498 101.537H134.498ZM134.265 102.874C134.125 103.314 133.872 103.766 133.478 104.228L134.999 105.526C135.538 104.895 135.938 104.213 136.171 103.48L134.265 102.874ZM133.478 104.228C133.134 104.63 132.629 104.994 131.911 105.295L132.685 107.139C133.621 106.747 134.408 106.218 134.999 105.526L133.478 104.228ZM131.911 105.295C131.249 105.573 130.333 105.737 129.118 105.737V107.737C130.49 107.737 131.694 107.555 132.685 107.139L131.911 105.295ZM141.539 106.397L141.717 105.413L141.704 105.411L141.539 106.397ZM139.499 105.597L140.081 104.783L140.074 104.779L140.068 104.774L139.499 105.597ZM138.219 103.877L137.286 104.237L138.219 103.877ZM138.259 95.3369L137.272 95.1772L137.27 95.1893L138.259 95.3369ZM138.679 92.9169L139.662 93.1023L139.923 91.7192L138.531 91.928L138.679 92.9169ZM137.999 93.0369L137.006 93.1556L137.137 94.2445L138.209 94.0147L137.999 93.0369ZM137.619 89.8569L137.439 88.8734L136.515 89.043L136.626 89.9756L137.619 89.8569ZM139.879 89.5569L139.973 90.5526L139.986 90.5512L139.879 89.5569ZM142.619 89.3169L142.551 88.3192L142.55 88.3193L142.619 89.3169ZM145.519 89.1769L145.547 90.1766L145.561 90.176L145.519 89.1769ZM150.039 89.1569L149.991 90.1557L150.003 90.1563L150.016 90.1566L150.039 89.1569ZM151.419 89.2369L152.418 89.2848L152.463 88.3467L151.53 88.243L151.419 89.2369ZM151.259 92.5769L151.077 93.5602L152.203 93.7687L152.258 92.6248L151.259 92.5769ZM149.799 92.4369L149.734 93.4348L149.745 93.4355L149.756 93.436L149.799 92.4369ZM144.879 92.4369L144.84 91.4377L144.879 92.4369ZM141.979 92.5769L141.922 91.5786L141.143 91.6237L140.997 92.3898L141.979 92.5769ZM141.699 94.2969L142.69 94.432V94.432L141.699 94.2969ZM141.479 96.0369L140.486 95.9214L140.337 97.2039L141.616 97.0275L141.479 96.0369ZM144.019 95.7969L144.077 96.7953L144.091 96.7944L144.019 95.7969ZM146.799 95.6569L146.828 96.6565L146.836 96.6563L146.843 96.656L146.799 95.6569ZM150.419 95.6169L150.379 96.6161L150.399 96.6169H150.419V95.6169ZM151.239 95.6569L152.239 95.6813L152.261 94.7768L151.363 94.6646L151.239 95.6569ZM151.159 98.9369L151.083 99.934L152.133 100.015L152.159 98.9613L151.159 98.9369ZM150.439 98.9169L150.394 99.9159L150.417 99.9169H150.439V98.9169ZM147.479 98.9369L147.498 99.9367L147.508 99.9365L147.517 99.9362L147.479 98.9369ZM145.279 99.0169L145.315 100.016L145.324 100.016L145.332 100.016L145.279 99.0169ZM143.099 99.1369L143.156 100.135L143.165 100.135L143.175 100.134L143.099 99.1369ZM141.179 99.2969L141.064 98.3036L140.241 98.3993L140.182 99.2257L141.179 99.2969ZM141.359 102.537L140.489 103.029L141.359 102.537ZM142.219 103.137L141.992 104.111L142.011 104.115L142.029 104.119L142.219 103.137ZM147.659 102.957L147.515 101.967L147.514 101.968L147.659 102.957ZM151.719 102.017L152.717 101.954L152.636 100.673L151.415 101.064L151.719 102.017ZM151.939 105.497L152.205 106.461L152.989 106.245L152.937 105.434L151.939 105.497ZM147.579 106.377L147.468 105.383L147.457 105.384L147.579 106.377ZM144.279 105.617C143.313 105.617 142.46 105.547 141.717 105.413L141.362 107.381C142.245 107.54 143.219 107.617 144.279 107.617V105.617ZM141.704 105.411C141.027 105.298 140.496 105.08 140.081 104.783L138.918 106.411C139.622 106.914 140.451 107.229 141.375 107.383L141.704 105.411ZM140.068 104.774C139.703 104.522 139.388 104.127 139.152 103.517L137.286 104.237C137.638 105.147 138.176 105.898 138.931 106.42L140.068 104.774ZM139.152 103.517C138.92 102.914 138.779 102.057 138.779 100.897H136.779C136.779 102.191 136.932 103.319 137.286 104.237L139.152 103.517ZM138.779 100.897C138.779 100.038 138.824 99.144 138.915 98.2137L136.924 98.0201C136.828 99.0098 136.779 99.9688 136.779 100.897H138.779ZM138.915 98.2137C139.006 97.2695 139.118 96.3599 139.248 95.4845L137.27 95.1893C137.134 96.1006 137.019 97.0443 136.924 98.0201L138.915 98.2137ZM139.247 95.4966C139.392 94.5963 139.531 93.7985 139.662 93.1023L137.697 92.7315C137.561 93.4487 137.42 94.2642 137.272 95.1772L139.247 95.4966ZM138.531 91.928C138.251 91.9699 138.003 92.0134 137.79 92.0591L138.209 94.0147C138.369 93.9804 138.574 93.9439 138.828 93.9058L138.531 91.928ZM138.992 92.9182L138.612 89.7382L136.626 89.9756L137.006 93.1556L138.992 92.9182ZM137.8 90.8404C138.418 90.727 139.141 90.6305 139.973 90.5525L139.786 88.5613C138.911 88.6433 138.128 88.7468 137.439 88.8734L137.8 90.8404ZM139.986 90.5512C140.839 90.4593 141.74 90.3804 142.689 90.3145L142.55 88.3193C141.579 88.3868 140.653 88.4678 139.772 88.5626L139.986 90.5512ZM142.688 90.3146C143.648 90.2488 144.601 90.2028 145.547 90.1765L145.492 88.1773C144.518 88.2043 143.538 88.2517 142.551 88.3192L142.688 90.3146ZM145.561 90.176C146.509 90.1365 147.395 90.1169 148.219 90.1169V88.1169C147.364 88.1169 146.45 88.1373 145.478 88.1778L145.561 90.176ZM148.219 90.1169C148.873 90.1169 149.463 90.13 149.991 90.1557L150.088 88.1581C149.522 88.1305 148.899 88.1169 148.219 88.1169V90.1169ZM150.016 90.1566C150.56 90.1696 150.989 90.1952 151.309 90.2308L151.53 88.243C151.13 88.1986 150.638 88.1709 150.063 88.1572L150.016 90.1566ZM150.421 89.1891L150.261 92.5291L152.258 92.6248L152.418 89.2848L150.421 89.1891ZM151.441 91.5936C151.015 91.5147 150.476 91.4654 149.843 91.4378L149.756 93.436C150.349 93.4618 150.783 93.5058 151.077 93.5602L151.441 91.5936ZM149.864 91.439C149.225 91.3973 148.516 91.3769 147.739 91.3769V93.3769C148.483 93.3769 149.147 93.3965 149.734 93.4348L149.864 91.439ZM147.739 91.3769C146.831 91.3769 145.865 91.3972 144.84 91.4377L144.919 93.4361C145.921 93.3966 146.861 93.3769 147.739 93.3769V91.3769ZM144.84 91.4377C143.821 91.4779 142.848 91.5249 141.922 91.5786L142.037 93.5752C142.951 93.5223 143.911 93.4759 144.919 93.4361L144.84 91.4377ZM140.997 92.3898C140.887 92.9677 140.791 93.5584 140.709 94.1618L142.69 94.432C142.768 93.8621 142.858 93.3061 142.962 92.764L140.997 92.3898ZM140.709 94.1618C140.628 94.7548 140.554 95.3414 140.486 95.9214L142.473 96.1524C142.539 95.5858 142.611 95.0123 142.69 94.432L140.709 94.1618ZM141.616 97.0275C142.359 96.925 143.179 96.8473 144.077 96.7952L143.962 94.7986C143.02 94.8532 142.146 94.9354 141.343 95.0463L141.616 97.0275ZM144.091 96.7944C145.01 96.7287 145.923 96.6827 146.828 96.6565L146.77 94.6573C145.836 94.6844 144.895 94.7318 143.948 94.7994L144.091 96.7944ZM146.843 96.656C147.752 96.6164 148.564 96.5969 149.279 96.5969V94.5969C148.528 94.5969 147.687 94.6174 146.756 94.6578L146.843 96.656ZM149.279 96.5969C149.696 96.5969 150.062 96.6034 150.379 96.6161L150.459 94.6177C150.11 94.6037 149.716 94.5969 149.279 94.5969V96.5969ZM150.419 96.6169C150.731 96.6169 150.959 96.6296 151.115 96.6492L151.363 94.6646C151.093 94.6308 150.774 94.6169 150.419 94.6169V96.6169ZM150.24 95.6325L150.16 98.9125L152.159 98.9613L152.239 95.6813L150.24 95.6325ZM151.236 97.9398C151.025 97.9236 150.756 97.9169 150.439 97.9169V99.9169C150.737 99.9169 150.947 99.9235 151.083 99.934L151.236 97.9398ZM150.485 97.9179C150.172 97.9037 149.81 97.8969 149.399 97.8969V99.8969C149.789 99.8969 150.12 99.9034 150.394 99.9159L150.485 97.9179ZM149.399 97.8969C148.811 97.8969 148.158 97.9106 147.442 97.9376L147.517 99.9362C148.214 99.9099 148.841 99.8969 149.399 99.8969V97.8969ZM147.461 97.9371C146.742 97.9506 145.997 97.9777 145.227 98.0183L145.332 100.016C146.082 99.9761 146.804 99.9498 147.498 99.9367L147.461 97.9371ZM145.244 98.0175C144.485 98.0447 143.745 98.0854 143.024 98.1397L143.175 100.134C143.867 100.082 144.581 100.042 145.315 100.016L145.244 98.0175ZM143.043 98.1385C142.321 98.1794 141.661 98.2342 141.064 98.3036L141.295 100.29C141.845 100.226 142.465 100.174 143.156 100.135L143.043 98.1385ZM140.182 99.2257C140.128 99.9829 140.099 100.61 140.099 101.097H142.099C142.099 100.678 142.124 100.104 142.177 99.3681L140.182 99.2257ZM140.099 101.097C140.099 101.798 140.185 102.492 140.489 103.029L142.23 102.045C142.187 101.968 142.099 101.702 142.099 101.097H140.099ZM140.489 103.029C140.823 103.62 141.369 103.965 141.992 104.111L142.447 102.163C142.269 102.122 142.242 102.067 142.23 102.045L140.489 103.029ZM142.029 104.119C142.531 104.216 143.141 104.257 143.839 104.257V102.257C143.204 102.257 142.735 102.218 142.409 102.155L142.029 104.119ZM143.839 104.257C145.082 104.257 146.404 104.152 147.805 103.946L147.514 101.968C146.195 102.162 144.97 102.257 143.839 102.257V104.257ZM147.803 103.946C149.232 103.738 150.639 103.413 152.024 102.969L151.415 101.064C150.133 101.475 148.834 101.775 147.515 101.967L147.803 103.946ZM150.721 102.08L150.941 105.56L152.937 105.434L152.717 101.954L150.721 102.08ZM151.674 104.533C150.112 104.962 148.711 105.244 147.468 105.383L147.691 107.371C149.061 107.217 150.567 106.912 152.205 106.461L151.674 104.533ZM147.457 105.384C146.188 105.541 145.132 105.617 144.279 105.617V107.617C145.241 107.617 146.384 107.532 147.702 107.369L147.457 105.384Z" fill="#B20D78" mask="url(#path-19-outside-4_215_4253)"/>
</g>
<path d="M114.14 81.9625C114.132 81.7065 114.124 81.4385 114.116 81.1585C114.116 80.8785 114.116 80.5785 114.116 80.2585C114.116 79.8425 114.12 79.4105 114.128 78.9625C114.136 78.5145 114.152 78.0705 114.176 77.6305C113.736 77.4065 113.312 77.0825 112.904 76.6585C112.504 76.2265 112.124 75.7505 111.764 75.2305C111.404 74.7025 111.08 74.1745 110.792 73.6465C110.504 73.1185 110.26 72.6425 110.06 72.2185L112.04 71.4145C112.176 71.7665 112.352 72.1465 112.568 72.5545C112.784 72.9545 113.02 73.3505 113.276 73.7425C113.532 74.1345 113.784 74.4905 114.032 74.8105C114.288 75.1225 114.516 75.3745 114.716 75.5665C114.924 75.7585 115.084 75.8545 115.196 75.8545C115.316 75.8545 115.464 75.7705 115.64 75.6025C115.824 75.4345 116.016 75.2145 116.216 74.9425C116.424 74.6625 116.632 74.3585 116.84 74.0305C117.056 73.6945 117.256 73.3585 117.44 73.0225C117.632 72.6785 117.796 72.3625 117.932 72.0745C118.076 71.7785 118.18 71.5385 118.244 71.3545L120.26 72.1225C120.036 72.5545 119.78 73.0425 119.492 73.5865C119.204 74.1225 118.888 74.6585 118.544 75.1945C118.2 75.7305 117.836 76.2145 117.452 76.6465C117.068 77.0785 116.668 77.4065 116.252 77.6305C116.236 78.0305 116.228 78.5025 116.228 79.0465C116.228 79.5825 116.232 80.1145 116.24 80.6425C116.256 81.1705 116.268 81.6225 116.276 81.9985C116.132 81.9985 115.96 81.9985 115.76 81.9985C115.56 82.0065 115.356 82.0105 115.148 82.0105C114.94 82.0185 114.748 82.0225 114.572 82.0225C114.404 82.0305 114.284 82.0345 114.212 82.0345L114.14 81.9625ZM124.864 82.1665C124.224 82.1665 123.664 82.0625 123.184 81.8545C122.712 81.6465 122.32 81.3625 122.008 81.0025C121.696 80.6345 121.464 80.2145 121.312 79.7425C121.16 79.2705 121.084 78.7745 121.084 78.2545C121.084 77.7265 121.176 77.2385 121.36 76.7905C121.552 76.3345 121.812 75.9385 122.14 75.6025C122.476 75.2665 122.868 75.0065 123.316 74.8225C123.764 74.6305 124.252 74.5345 124.78 74.5345C125.332 74.5345 125.844 74.6305 126.316 74.8225C126.788 75.0145 127.2 75.2825 127.552 75.6265C127.904 75.9705 128.176 76.3745 128.368 76.8385C128.568 77.3025 128.668 77.8065 128.668 78.3505C128.668 79.5585 128.336 80.4985 127.672 81.1705C127.008 81.8345 126.072 82.1665 124.864 82.1665ZM124.852 80.2225C125.436 80.2225 125.88 80.0585 126.184 79.7305C126.496 79.4025 126.652 78.9305 126.652 78.3145C126.652 77.7625 126.484 77.3185 126.148 76.9825C125.812 76.6465 125.372 76.4785 124.828 76.4785C124.5 76.4785 124.2 76.5665 123.928 76.7425C123.656 76.9105 123.436 77.1385 123.268 77.4265C123.108 77.7065 123.028 78.0185 123.028 78.3625C123.028 78.6665 123.088 78.9625 123.208 79.2505C123.336 79.5385 123.536 79.7745 123.808 79.9585C124.08 80.1345 124.428 80.2225 124.852 80.2225ZM132.273 82.1665C131.761 82.1665 131.337 82.0745 131.001 81.8905C130.673 81.7145 130.409 81.4705 130.209 81.1585C130.017 80.8465 129.873 80.4985 129.777 80.1145C129.689 79.7225 129.629 79.3185 129.597 78.9025C129.573 78.4785 129.561 78.0705 129.561 77.6785C129.561 77.2305 129.573 76.7745 129.597 76.3105C129.629 75.8465 129.661 75.3385 129.693 74.7865L131.889 74.6545C131.865 74.8225 131.829 75.0745 131.781 75.4105C131.733 75.7465 131.689 76.1305 131.649 76.5625C131.609 76.9945 131.589 77.4465 131.589 77.9185C131.589 78.6945 131.657 79.2705 131.793 79.6465C131.929 80.0145 132.133 80.1985 132.405 80.1985C132.949 80.1985 133.349 79.8025 133.605 79.0105C133.861 78.2185 133.989 76.9665 133.989 75.2545V74.7025L135.009 74.6785L136.245 74.6545C136.133 75.4065 136.049 76.0985 135.993 76.7305C135.937 77.3625 135.901 77.8945 135.885 78.3265C135.869 78.7505 135.861 79.0345 135.861 79.1785C135.861 79.5465 135.893 79.8105 135.957 79.9705C136.021 80.1225 136.133 80.1985 136.293 80.1985C136.373 80.1985 136.461 80.1825 136.557 80.1505C136.653 80.1185 136.765 80.0625 136.893 79.9825L136.809 82.0465C136.505 82.0945 136.241 82.1185 136.017 82.1185C135.633 82.1185 135.317 82.0465 135.069 81.9025C134.829 81.7585 134.637 81.5665 134.493 81.3265C134.245 81.5905 133.937 81.7945 133.569 81.9385C133.209 82.0905 132.777 82.1665 132.273 82.1665Z" fill="#B20D78"/>
<defs>
<filter id="filter0_d_215_4253" x="22.7271" y="64.1938" width="195.677" height="70.8062" filterUnits="userSpaceOnUse" color-interpolation-filters="sRGB">
<feFlood flood-opacity="0" result="BackgroundImageFix"/>
<feColorMatrix in="SourceAlpha" type="matrix" values="0 0 0 0 0 0 0 0 0 0 0 0 0 0 0 0 0 0 127 0" result="hardAlpha"/>
<feOffset dy="3"/>
<feComposite in2="hardAlpha" operator="out"/>
<feColorMatrix type="matrix" values="0 0 0 0 0.827451 0 0 0 0 0.847059 0 0 0 0 1 0 0 0 1 0"/>
<feBlend mode="normal" in2="BackgroundImageFix" result="effect1_dropShadow_215_4253"/>
<feBlend mode="normal" in="SourceGraphic" in2="effect1_dropShadow_215_4253" result="shape"/>
</filter>
<filter id="filter1_d_215_4253" x="97.9604" y="21.3759" width="43.2188" height="44.5226" filterUnits="userSpaceOnUse" color-interpolation-filters="sRGB">
<feFlood flood-opacity="0" result="BackgroundImageFix"/>
<feColorMatrix in="SourceAlpha" type="matrix" values="0 0 0 0 0 0 0 0 0 0 0 0 0 0 0 0 0 0 127 0" result="hardAlpha"/>
<feOffset dy="3"/>
<feComposite in2="hardAlpha" operator="out"/>
<feColorMatrix type="matrix" values="0 0 0 0 1 0 0 0 0 0.392 0 0 0 0 0.2 0 0 0 1 0"/>
<feBlend mode="normal" in2="BackgroundImageFix" result="effect1_dropShadow_215_4253"/>
<feBlend mode="normal" in="SourceGraphic" in2="effect1_dropShadow_215_4253" result="shape"/>
</filter>
<filter id="filter2_d_215_4253" x="62.519" y="38.3274" width="34.4868" height="36.2102" filterUnits="userSpaceOnUse" color-interpolation-filters="sRGB">
<feFlood flood-opacity="0" result="BackgroundImageFix"/>
<feColorMatrix in="SourceAlpha" type="matrix" values="0 0 0 0 0 0 0 0 0 0 0 0 0 0 0 0 0 0 127 0" result="hardAlpha"/>
<feOffset dy="3"/>
<feComposite in2="hardAlpha" operator="out"/>
<feColorMatrix type="matrix" values="0 0 0 0 1 0 0 0 0 0.392 0 0 0 0 0.2 0 0 0 1 0"/>
<feBlend mode="normal" in2="BackgroundImageFix" result="effect1_dropShadow_215_4253"/>
<feBlend mode="normal" in="SourceGraphic" in2="effect1_dropShadow_215_4253" result="shape"/>
</filter>
<filter id="filter3_d_215_4253" x="141.217" y="38.3274" width="34.4868" height="36.2102" filterUnits="userSpaceOnUse" color-interpolation-filters="sRGB">
<feFlood flood-opacity="0" result="BackgroundImageFix"/>
<feColorMatrix in="SourceAlpha" type="matrix" values="0 0 0 0 0 0 0 0 0 0 0 0 0 0 0 0 0 0 127 0" result="hardAlpha"/>
<feOffset dy="3"/>
<feComposite in2="hardAlpha" operator="out"/>
<feColorMatrix type="matrix" values="0 0 0 0 1 0 0 0 0 0.392 0 0 0 0 0.2 0 0 0 1 0"/>
<feBlend mode="normal" in2="BackgroundImageFix" result="effect1_dropShadow_215_4253"/>
<feBlend mode="normal" in="SourceGraphic" in2="effect1_dropShadow_215_4253" result="shape"/>
</filter>
<filter id="filter4_d_215_4253" x="93.04" y="87.8569" width="59.9487" height="21.88" filterUnits="userSpaceOnUse" color-interpolation-filters="sRGB">
<feFlood flood-opacity="0" result="BackgroundImageFix"/>
<feColorMatrix in="SourceAlpha" type="matrix" values="0 0 0 0 0 0 0 0 0 0 0 0 0 0 0 0 0 0 127 0" result="hardAlpha"/>
<feOffset dy="2"/>
<feComposite in2="hardAlpha" operator="out"/>
<feColorMatrix type="matrix" values="0 0 0 0 0.698039 0 0 0 0 0.0509804 0 0 0 0 0.470588 0 0 0 1 0"/>
<feBlend mode="normal" in2="BackgroundImageFix" result="effect1_dropShadow_215_4253"/>
<feBlend mode="normal" in="SourceGraphic" in2="effect1_dropShadow_215_4253" result="shape"/>
</filter>
<radialGradient id="paint0_radial_215_4253" cx="0" cy="0" r="1" gradientUnits="userSpaceOnUse" gradientTransform="translate(123.014 64.9945) rotate(89.8423) scale(54.3081 122.837)">
<stop stop-color="#FFEE37" stop-opacity="0.56"/>
<stop offset="1" stop-color="#FFF8AC" stop-opacity="0"/>
</radialGradient>
<linearGradient id="paint1_linear_215_4253" x1="40.8716" y1="81.1453" x2="40.8716" y2="130.006" gradientUnits="userSpaceOnUse">
<stop stop-color="#FE56E1"/>
<stop offset="1" stop-color="#D81091"/>
</linearGradient>
<linearGradient id="paint2_linear_215_4253" x1="200.26" y1="81.1453" x2="200.26" y2="130.006" gradientUnits="userSpaceOnUse">
<stop stop-color="#FE56E1"/>
<stop offset="1" stop-color="#D81091"/>
</linearGradient>
<linearGradient id="paint3_linear_215_4253" x1="120.067" y1="64.1938" x2="120.067" y2="115.048" gradientUnits="userSpaceOnUse">
<stop stop-color="#FFA4EB"/>
<stop offset="1" stop-color="#ED36CA"/>
</linearGradient>
<linearGradient id="paint4_linear_215_4253" x1="119.397" y1="17.2628" x2="119.397" y2="70.7233" gradientUnits="userSpaceOnUse">
<stop offset="0.25" stop-color="#FFEE37"/>
<stop offset="1" stop-color="#F78A3B"/>
</linearGradient>
<linearGradient id="paint5_linear_215_4253" x1="119.57" y1="16.3306" x2="119.57" y2="71.4703" gradientUnits="userSpaceOnUse">
<stop offset="0.25" stop-color="#FFEE37"/>
<stop offset="1" stop-color="#F78A3B"/>
</linearGradient>
<linearGradient id="paint6_linear_215_4253" x1="79.619" y1="35.0291" x2="79.619" y2="77.8893" gradientUnits="userSpaceOnUse">
<stop offset="0.25" stop-color="#FFEE37"/>
<stop offset="1" stop-color="#F78A3B"/>
</linearGradient>
<linearGradient id="paint7_linear_215_4253" x1="79.7625" y1="33.2821" x2="79.7625" y2="79.2319" gradientUnits="userSpaceOnUse">
<stop offset="0.25" stop-color="#FFEE37"/>
<stop offset="1" stop-color="#F78A3B"/>
</linearGradient>
<linearGradient id="paint8_linear_215_4253" x1="158.317" y1="35.0291" x2="158.317" y2="77.8893" gradientUnits="userSpaceOnUse">
<stop offset="0.25" stop-color="#FFEE37"/>
<stop offset="1" stop-color="#F78A3B"/>
</linearGradient>
<linearGradient id="paint9_linear_215_4253" x1="158.461" y1="33.2821" x2="158.461" y2="79.2319" gradientUnits="userSpaceOnUse">
<stop offset="0.25" stop-color="#FFEE37"/>
<stop offset="1" stop-color="#F78A3B"/>
</linearGradient>
</defs>
</svg>
