<svg width="38" height="38" viewBox="0 0 38 38" fill="none" xmlns="http://www.w3.org/2000/svg">
<g clip-path="url(#clip0_215_3716)">
<circle cx="21.0126" cy="17.5102" r="15.0224" fill="#CA73FF" stroke="#6C0CA7" stroke-width="0.789133"/>
<circle cx="21.013" cy="17.5102" r="8.77669" fill="#B959F2"/>
<path fill-rule="evenodd" clip-rule="evenodd" d="M21.0126 32.138C29.0913 32.138 35.6404 25.5889 35.6404 17.5102C35.6404 9.43145 29.0913 2.88235 21.0126 2.88235C18.6596 2.88235 16.4363 3.43793 14.4668 4.42508C16.1272 3.66916 17.9723 3.24807 19.9157 3.24807C27.1865 3.24807 33.0807 9.14226 33.0807 16.4131C33.0807 23.684 27.1865 29.5781 19.9157 29.5781C12.6448 29.5781 6.75064 23.684 6.75064 16.4131C6.75064 14.4691 7.17202 12.6234 7.92842 10.9626C6.9407 12.9325 6.38477 15.1564 6.38477 17.5102C6.38477 25.5889 12.9339 32.138 21.0126 32.138Z" fill="#BD5EF7"/>
<path fill-rule="evenodd" clip-rule="evenodd" d="M20.281 31.7724C28.3598 31.7724 34.9089 25.2233 34.9089 17.1446C34.9089 11.5595 31.7789 6.70557 27.1773 4.24111C32.1754 6.56718 35.6403 11.6341 35.6403 17.5103C35.6403 25.589 29.0912 32.1381 21.0125 32.1381C18.5188 32.1381 16.1708 31.5141 14.1162 30.4137C15.9896 31.2856 18.0785 31.7724 20.281 31.7724Z" fill="#A03FDC"/>
<circle cx="23.9384" cy="18.2416" r="0.731391" fill="#FF91E0"/>
<circle cx="27.9609" cy="21.1671" r="0.731391" fill="#9B3DD5"/>
<circle cx="27.5952" cy="17.8759" r="0.365696" fill="#9B3DD5"/>
<circle cx="25.7666" cy="19.3387" r="0.365696" fill="#9B3DD5"/>
<circle cx="30.8862" cy="21.5329" r="0.365696" fill="#9B3DD5"/>
<circle cx="28.6919" cy="28.8467" r="0.365696" fill="#9B3DD5"/>
<circle cx="24.3042" cy="24.4584" r="0.365696" fill="#9B3DD5"/>
<circle cx="22.1098" cy="27.0182" r="0.365696" fill="#9B3DD5"/>
<circle cx="20.6469" cy="22.2643" r="0.365696" fill="#9B3DD5"/>
<circle cx="22.4751" cy="20.07" r="0.365696" fill="#9B3DD5"/>
<circle cx="28.6919" cy="18.973" r="0.365696" fill="#9B3DD5"/>
<circle cx="28.6919" cy="16.413" r="0.365696" fill="#9B3DD5"/>
<circle cx="20.6469" cy="20.4357" r="0.731391" fill="#FF91E0"/>
<circle cx="17.5383" cy="22.8128" r="0.548543" fill="#FF91E0"/>
<circle cx="30.3376" cy="23.9099" r="0.548543" fill="#FF91E0"/>
<circle cx="30.7033" cy="19.1558" r="0.548543" fill="#FF91E0"/>
<circle cx="29.6062" cy="17.693" r="0.548543" fill="#FF91E0"/>
<circle cx="24.8523" cy="15.4989" r="0.548543" fill="#FF91E0"/>
<circle cx="20.8298" cy="16.9616" r="0.548543" fill="#FF91E0"/>
<circle cx="29.2404" cy="26.8353" r="0.548543" fill="#FF91E0"/>
<circle cx="23.0241" cy="29.0296" r="0.548543" fill="#FF91E0"/>
<circle cx="25.7666" cy="27.7496" r="0.365696" fill="#FF91E0"/>
<circle cx="24.3042" cy="20.4357" r="0.365696" fill="#FF91E0"/>
<circle cx="25.4009" cy="22.9956" r="0.365696" fill="#FF91E0"/>
<circle cx="22.8413" cy="21.5329" r="0.365696" fill="#FF91E0"/>
<circle cx="23.2065" cy="19.7043" r="0.365696" fill="#FF91E0"/>
<circle cx="29.4233" cy="20.07" r="0.365696" fill="#FF91E0"/>
<circle cx="31.2519" cy="17.1444" r="0.365696" fill="#FF91E0"/>
<circle cx="29.0576" cy="22.63" r="0.365696" fill="#FF91E0"/>
<circle cx="29.789" cy="25.1899" r="0.365696" fill="#FF91E0"/>
<circle cx="27.5952" cy="19.3387" r="0.365696" fill="#FF91E0"/>
<circle cx="21.3784" cy="24.0927" r="0.731391" fill="#FF91E0"/>
<circle cx="23.9384" cy="21.8986" r="0.731391" fill="#9B3DD5"/>
<circle cx="26.6808" cy="24.6413" r="0.914239" fill="#9B3DD5"/>
<circle cx="23.3898" cy="26.1041" r="0.914239" fill="#FF91E0"/>
<path d="M7.11621 17.5102C7.11621 9.83541 13.3379 3.61377 21.0126 3.61377" stroke="#E5BAFF" stroke-width="0.789133" stroke-linecap="round" stroke-linejoin="round"/>
<path d="M11.8604 9.10973C16.6061 3.94387 24.6409 3.60319 29.8067 8.3488" stroke="#E692FB" stroke-width="0.789133" stroke-linecap="round" stroke-linejoin="round"/>
<path d="M14.43 5.26868C13.3634 5.84339 12.3806 6.55341 11.5044 7.37575" stroke="#F3DFFF" stroke-width="0.789133" stroke-linecap="round" stroke-linejoin="round"/>
<path d="M13.4622 13.1484C14.6632 11.089 17.9678 7.20424 23.6269 8.52398" stroke="#F2BCFF" stroke-width="0.789133" stroke-linecap="round" stroke-linejoin="round"/>
<path d="M18.3315 8.63383V12.1849" stroke="white" stroke-width="0.789133" stroke-linecap="round" stroke-linejoin="round"/>
<path d="M17.1479 10.2121H19.5153" stroke="white" stroke-width="0.789133" stroke-linecap="round" stroke-linejoin="round"/>
<path d="M11.6235 19.287V22.049" stroke="white" stroke-width="0.789133" stroke-linecap="round" stroke-linejoin="round"/>
<path d="M10.8345 20.4708H12.4127" stroke="white" stroke-width="0.789133" stroke-linecap="round" stroke-linejoin="round"/>
<path d="M21.0933 27.573V30.335" stroke="white" stroke-width="0.789133" stroke-linecap="round" stroke-linejoin="round"/>
<path d="M20.3042 28.7566H21.8825" stroke="white" stroke-width="0.789133" stroke-linecap="round" stroke-linejoin="round"/>
<path d="M17.2041 12.3904C15.2598 14.152 13.3564 18.6452 16.3741 23.7408" stroke="#ECA4FE" stroke-width="0.789133" stroke-linecap="round" stroke-linejoin="round"/>
<path d="M24.8884 16.8485C24.2715 16.2317 23.2743 16.2228 22.6466 16.8285L8.73111 30.2557C7.94836 31.011 7.93719 32.2614 8.70633 33.0306C9.47547 33.7997 10.7259 33.7885 11.4812 33.0058L24.9084 19.0903C25.5141 18.4626 25.5052 17.4653 24.8884 16.8485Z" fill="#57F0CB" stroke="#167F86" stroke-width="0.789132"/>
<path fill-rule="evenodd" clip-rule="evenodd" d="M8.80583 32.5363C8.85824 32.612 8.91817 32.6841 8.98564 32.7516C9.59874 33.3647 10.5955 33.3558 11.1975 32.7319L24.6247 18.8164C25.081 18.3435 25.0743 17.5922 24.6097 17.1276C24.5419 17.0598 24.468 17.0018 24.3898 16.9535C24.672 17.4114 24.6199 18.0181 24.2304 18.4218L10.8032 32.3373C10.2672 32.8928 9.41827 32.9608 8.80583 32.5363Z" fill="#2CCDC3"/>
<path d="M23.2634 17.7087L9.65088 30.9268" stroke="white" stroke-width="0.789132" stroke-linecap="round" stroke-linejoin="round"/>
<path d="M25.9914 8.99518L24.4057 7.93805C23.6191 7.41362 22.5654 7.97753 22.5654 8.92294L22.5654 11.1635C22.5654 11.2954 22.4995 11.4186 22.3897 11.4918L20.9806 12.4312C20.161 12.9776 20.3284 14.2276 21.2628 14.539L23.2366 15.197C23.3544 15.2362 23.4469 15.3287 23.4862 15.4465L24.1441 17.4203C24.4556 18.3548 25.7056 18.5222 26.2519 17.7026L27.1914 16.2934C27.2645 16.1837 27.3877 16.1177 27.5197 16.1177H29.7602C30.7056 16.1177 31.2695 15.0641 30.7451 14.2775L29.688 12.6917C29.6263 12.5992 29.6065 12.485 29.6335 12.3772L30.2642 9.85443C30.4809 8.98751 29.6956 8.20225 28.8287 8.41898L28.036 8.61716L26.306 9.04967C26.1981 9.07663 26.0839 9.05685 25.9914 8.99518Z" fill="#FFD78A" stroke="#BD5E07" stroke-width="0.789133" stroke-linecap="round" stroke-linejoin="round"/>
<path fill-rule="evenodd" clip-rule="evenodd" d="M20.8529 13.4985C20.8834 13.7867 21.0685 14.058 21.3882 14.1646L23.1877 14.7644L23.1296 14.5902C23.0511 14.3545 22.8662 14.1696 22.6305 14.0911L20.8529 13.4985ZM24.4536 17.0992L24.519 17.2954C24.7266 17.9183 25.5599 18.0299 25.9242 17.4836L26.8636 16.0744C27.01 15.8549 27.2564 15.723 27.5202 15.723H29.7607C30.391 15.723 30.767 15.0206 30.4173 14.4962L29.3602 12.9105C29.2369 12.7255 29.1973 12.497 29.2512 12.2813L29.8819 9.75858C30.0053 9.2651 29.6417 8.81131 29.173 8.77915C29.1785 8.85938 29.1716 8.94269 29.1505 9.02716L28.5198 11.5499C28.4659 11.7656 28.5054 11.994 28.6288 12.179L29.6859 13.7647C30.0355 14.2892 29.6596 14.9916 29.0293 14.9916H26.7888C26.5249 14.9916 26.2785 15.1235 26.1322 15.343L25.1928 16.7521C25.0154 17.0181 24.7269 17.1282 24.4536 17.0992Z" fill="#FFC045"/>
<path d="M25.8281 9.81789L27.9982 11.1989L31.3521 10.4097" stroke="#FFFBF4" stroke-width="0.789132" stroke-linecap="round" stroke-linejoin="round"/>
</g>
<defs>
<clipPath id="clip0_215_3716">
<rect width="38" height="38" fill="white"/>
</clipPath>
</defs>
</svg>
