<svg width="8" height="8" viewBox="0 0 8 8" fill="none" xmlns="http://www.w3.org/2000/svg">
<g clip-path="url(#clip0_39_576)">
<path fill-rule="evenodd" clip-rule="evenodd" d="M4.83366 1H5.64318L4.40509 3.16667L5.83366 5.66667H4.33366L4.14318 5.33333H4.83366L4.00033 3.875L3.16699 5.33333H3.85747L3.66699 5.66667H2.16699L3.59556 3.16667L2.35747 1H3.16699L4.00033 2.45833L4.83366 1Z" fill="#AF3838"/>
<path fill-rule="evenodd" clip-rule="evenodd" d="M5.78701 0.916356C5.81683 0.967742 5.81704 1.03112 5.78756 1.0827L4.59672 3.16668L5.97804 5.58399C6.00752 5.63557 6.00731 5.69895 5.97749 5.75033C5.94766 5.80172 5.89275 5.83334 5.83333 5.83334H4.33333C4.27352 5.83334 4.2183 5.8013 4.18863 5.74937L4 5.41927L3.81137 5.74937C3.7817 5.8013 3.72648 5.83334 3.66667 5.83334H2.16667C2.10725 5.83334 2.05234 5.80172 2.02251 5.75033C1.99269 5.69895 1.99248 5.63557 2.02196 5.58399L3.40328 3.16668L2.21243 1.0827C2.18296 1.03112 2.18317 0.967742 2.21299 0.916356C2.24281 0.86497 2.29773 0.833344 2.35714 0.833344H3.16667C3.22648 0.833344 3.2817 0.865391 3.31137 0.91732L4 2.12242L4.68863 0.91732C4.7183 0.865391 4.77352 0.833344 4.83333 0.833344H5.64286C5.70227 0.833344 5.75719 0.86497 5.78701 0.916356ZM4 2.45834L3.16667 1.00001H2.35714L3.59524 3.16668L2.16667 5.66668H3.66667L3.85714 5.33334H3.16667L4 3.87501L4.83333 5.33334H4.14286L4.33333 5.66668H5.83333L4.40476 3.16668L5.64286 1.00001H4.83333L4 2.45834ZM4.54614 5.16668L4 4.21094L3.45386 5.16668H3.85714C3.91571 5.16668 3.9699 5.19741 4 5.2475C4.0301 5.19741 4.08429 5.16668 4.14286 5.16668H4.54614Z" fill="#6F0808"/>
<path fill-rule="evenodd" clip-rule="evenodd" d="M2.33398 0.666656H0.833984L2.27598 3.19015C2.59055 2.89029 2.98319 2.67161 3.4203 2.5677L2.33398 0.666656ZM4.58101 2.5677C5.01811 2.67161 5.41075 2.89029 5.72532 3.19015L7.16732 0.666656H5.66732L4.58101 2.5677Z" fill="#D14848"/>
<path fill-rule="evenodd" clip-rule="evenodd" d="M0.689507 0.583012C0.719328 0.531626 0.774247 0.5 0.833659 0.5H2.33366C2.39347 0.5 2.44869 0.532048 2.47837 0.583977L3.56468 2.48502C3.59073 2.53062 3.59377 2.58583 3.57288 2.63401C3.55199 2.6822 3.50961 2.71771 3.45851 2.72986C3.05086 2.82677 2.68442 3.03077 2.39065 3.3108C2.35356 3.34615 2.30226 3.36248 2.25156 3.35507C2.20085 3.34766 2.15637 3.31734 2.13095 3.27285L0.688952 0.749356C0.659475 0.697773 0.659687 0.634398 0.689507 0.583012ZM4.42777 2.63401C4.40688 2.58583 4.40992 2.53062 4.43597 2.48502L5.52228 0.583977C5.55196 0.532048 5.60718 0.5 5.66699 0.5H7.16699C7.2264 0.5 7.28132 0.531626 7.31114 0.583012C7.34096 0.634398 7.34118 0.697773 7.3117 0.749356L5.8697 3.27285C5.84428 3.31734 5.7998 3.34766 5.7491 3.35507C5.69839 3.36248 5.64709 3.34615 5.61 3.3108C5.31623 3.03077 4.94979 2.82677 4.54214 2.72986C4.49104 2.71771 4.44866 2.6822 4.42777 2.63401ZM0.833659 0.666667L2.27565 3.19016C2.31675 3.15098 2.35918 3.11319 2.40287 3.07686C2.65069 2.87078 2.93898 2.7117 3.25405 2.61328C3.30858 2.59625 3.36391 2.58104 3.41997 2.56771L2.33366 0.666667H0.833659ZM5.59778 3.07686C5.64147 3.11319 5.6839 3.15098 5.725 3.19016L7.16699 0.666667H5.66699L4.58068 2.56771C4.63674 2.58104 4.69207 2.59625 4.7466 2.61328C5.06167 2.7117 5.34996 2.87078 5.59778 3.07686Z" fill="#6F0808"/>
<path fill-rule="evenodd" clip-rule="evenodd" d="M1.04154 0.761261C1.08135 0.73817 1.13234 0.751725 1.15543 0.791537L2.36377 2.87487C2.38686 2.91468 2.3733 2.96568 2.33349 2.98877C2.29368 3.01186 2.24269 2.9983 2.21959 2.95849L1.01126 0.875157C0.98817 0.835345 1.00173 0.784352 1.04154 0.761261Z" fill="#FF7E7E"/>
<path fill-rule="evenodd" clip-rule="evenodd" d="M5.7922 0.761105C5.8321 0.784047 5.84585 0.834988 5.82291 0.874887L4.86457 2.54155C4.84163 2.58145 4.79069 2.5952 4.75079 2.57226C4.71089 2.54931 4.69715 2.49837 4.72009 2.45847L5.67842 0.791808C5.70136 0.75191 5.75231 0.738164 5.7922 0.761105Z" fill="#FF7E7E"/>
<path d="M6.33366 4.99999C6.33366 6.28865 5.28899 7.33332 4.00033 7.33332C2.71166 7.33332 1.66699 6.28865 1.66699 4.99999C1.66699 3.71133 2.71166 2.66666 4.00033 2.66666C5.28899 2.66666 6.33366 3.71133 6.33366 4.99999Z" fill="#FFB423"/>
<path fill-rule="evenodd" clip-rule="evenodd" d="M6.5 5C6.5 6.38071 5.38071 7.5 4 7.5C2.61929 7.5 1.5 6.38071 1.5 5C1.5 3.61929 2.61929 2.5 4 2.5C5.38071 2.5 6.5 3.61929 6.5 5ZM4 7.33333C5.28866 7.33333 6.33333 6.28866 6.33333 5C6.33333 3.71134 5.28866 2.66667 4 2.66667C2.71134 2.66667 1.66667 3.71134 1.66667 5C1.66667 6.28866 2.71134 7.33333 4 7.33333Z" fill="#5B3303"/>
<path d="M5.91732 5.00001C5.91732 6.05856 5.0592 6.91668 4.00065 6.91668C2.94211 6.91668 2.08398 6.05856 2.08398 5.00001C2.08398 3.94146 2.94211 3.08334 4.00065 3.08334C5.0592 3.08334 5.91732 3.94146 5.91732 5.00001Z" fill="#FFDD65"/>
<path d="M5.222 6.51312C5.23524 6.60421 5.17213 6.68879 5.08104 6.70203C4.98995 6.71527 4.90537 6.65216 4.89214 6.56107C4.8789 6.46998 4.94201 6.3854 5.0331 6.37216C5.12419 6.35892 5.20876 6.42203 5.222 6.51312Z" fill="#FBCD2C"/>
<path d="M5.15135 6.02846C5.16377 6.11393 5.10455 6.19329 5.01908 6.20571C4.93361 6.21813 4.85425 6.15891 4.84183 6.07344C4.82941 5.98797 4.88862 5.90862 4.97409 5.89619C5.05956 5.88377 5.13892 5.94299 5.15135 6.02846Z" fill="#FBCD2C"/>
<path d="M5.84839 5.54036C5.85832 5.60868 5.81098 5.67211 5.74267 5.68204C5.67435 5.69197 5.61092 5.64464 5.60099 5.57632C5.59106 5.508 5.63839 5.44457 5.70671 5.43464C5.77503 5.42471 5.83846 5.47205 5.84839 5.54036Z" fill="#FBCD2C"/>
<path d="M4.3265 6.72742C4.33973 6.81851 4.27662 6.90308 4.18553 6.91632C4.09444 6.92956 4.00987 6.86645 3.99663 6.77536C3.98339 6.68427 4.0465 6.5997 4.13759 6.58646C4.22868 6.57322 4.31326 6.63633 4.3265 6.72742Z" fill="#FBCD2C"/>
<path d="M5.60254 5.88467C5.61449 5.96687 5.55753 6.0432 5.47532 6.05515C5.39311 6.0671 5.31679 6.01014 5.30484 5.92793C5.29289 5.84573 5.34985 5.7694 5.43205 5.75745C5.51426 5.7455 5.59059 5.80246 5.60254 5.88467Z" fill="#FBCD2C"/>
<path d="M5.50993 5.3325C5.51655 5.37804 5.48499 5.42033 5.43945 5.42695C5.3939 5.43357 5.35161 5.40201 5.34499 5.35647C5.33837 5.31092 5.36993 5.26864 5.41547 5.26202C5.46102 5.2554 5.50331 5.28695 5.50993 5.3325Z" fill="#FBCD2C"/>
<path d="M4.50993 6.41575C4.51655 6.46129 4.48499 6.50358 4.43945 6.5102C4.3939 6.51682 4.35161 6.48527 4.34499 6.43972C4.33837 6.39418 4.36993 6.35189 4.41547 6.34527C4.46102 6.33865 4.50331 6.3702 4.50993 6.41575Z" fill="#FBCD2C"/>
<path d="M5.61051 6.28822C5.61713 6.33376 5.58558 6.37605 5.54003 6.38267C5.49449 6.38929 5.4522 6.35773 5.44558 6.31219C5.43896 6.26664 5.47052 6.22435 5.51606 6.21774C5.56161 6.21112 5.60389 6.24267 5.61051 6.28822Z" fill="#FBCD2C"/>
<path d="M4.67692 6.66581C4.68354 6.71136 4.65198 6.75364 4.60644 6.76026C4.56089 6.76688 4.51861 6.73533 4.51199 6.68978C4.50537 6.64424 4.53692 6.60195 4.58247 6.59533C4.62801 6.58871 4.6703 6.62027 4.67692 6.66581Z" fill="#FBCD2C"/>
<path d="M3.7609 6.89378C3.76752 6.93932 3.73597 6.98161 3.69042 6.98823C3.64488 6.99485 3.60259 6.96329 3.59597 6.91775C3.58935 6.8722 3.62091 6.82992 3.66645 6.8233C3.712 6.81668 3.75428 6.84823 3.7609 6.89378Z" fill="#FBCD2C"/>
<path fill-rule="evenodd" clip-rule="evenodd" d="M4.00033 3.08332C2.94178 3.08332 2.08366 3.94144 2.08366 4.99999C2.08366 6.05854 2.94178 6.91666 4.00033 6.91666C5.05887 6.91666 5.91699 6.05854 5.91699 4.99999C5.91699 3.94144 5.05887 3.08332 4.00033 3.08332ZM1.91699 4.99999C1.91699 3.8494 2.84973 2.91666 4.00033 2.91666C5.15092 2.91666 6.08366 3.8494 6.08366 4.99999C6.08366 6.15058 5.15092 7.08332 4.00033 7.08332C2.84973 7.08332 1.91699 6.15058 1.91699 4.99999Z" fill="#DF8D12"/>
<path fill-rule="evenodd" clip-rule="evenodd" d="M4 2.91667C2.84941 2.91667 1.91667 3.84941 1.91667 5C1.91667 5.04602 1.87936 5.08333 1.83333 5.08333C1.78731 5.08333 1.75 5.04602 1.75 5C1.75 3.75736 2.75736 2.75 4 2.75C4.04602 2.75 4.08333 2.78731 4.08333 2.83333C4.08333 2.87936 4.04602 2.91667 4 2.91667Z" fill="#FFCF72"/>
<path d="M5.41732 5.00001C5.41732 5.78241 4.78305 6.41668 4.00065 6.41668C3.21825 6.41668 2.58398 5.78241 2.58398 5.00001C2.58398 4.21761 3.21825 3.58334 4.00065 3.58334C4.78305 3.58334 5.41732 4.21761 5.41732 5.00001Z" fill="#FFCF23"/>
<path fill-rule="evenodd" clip-rule="evenodd" d="M5.58366 4.99999C5.58366 5.87444 4.87478 6.58332 4.00033 6.58332C3.12587 6.58332 2.41699 5.87444 2.41699 4.99999C2.41699 4.12554 3.12587 3.41666 4.00033 3.41666C4.87478 3.41666 5.58366 4.12554 5.58366 4.99999ZM4.00033 6.41666C4.78273 6.41666 5.41699 5.78239 5.41699 4.99999C5.41699 4.21759 4.78273 3.58332 4.00033 3.58332C3.21792 3.58332 2.58366 4.21759 2.58366 4.99999C2.58366 5.78239 3.21792 6.41666 4.00033 6.41666Z" fill="#DF8D12"/>
<path fill-rule="evenodd" clip-rule="evenodd" d="M4.00065 3.75001C3.3103 3.75001 2.75065 4.30965 2.75065 5.00001C2.75065 5.04603 2.71334 5.08334 2.66732 5.08334C2.62129 5.08334 2.58398 5.04603 2.58398 5.00001C2.58398 4.21761 3.21825 3.58334 4.00065 3.58334C4.04667 3.58334 4.08398 3.62065 4.08398 3.66668C4.08398 3.7127 4.04667 3.75001 4.00065 3.75001Z" fill="#FFF4CD"/>
<path d="M3.16699 4.79999L3.68783 4.69443L3.84408 4.43055L4.00033 4.16666L4.31283 4.69443L4.83366 4.79999L4.41699 5.22221L4.52116 5.74999L4.00033 5.4861L3.47949 5.74999L3.58366 5.22221L3.16699 4.79999Z" fill="#FFE9AF"/>
<path fill-rule="evenodd" clip-rule="evenodd" d="M3.6875 4.69444L4 4.16667L4.3125 4.69444L4.83334 4.8L4.41667 5.22222L4.52084 5.75L4 5.48611L3.47917 5.75L3.58334 5.22222L3.16667 4.8L3.6875 4.69444ZM3.40274 5.2765L3.04804 4.91707C3.00506 4.87351 2.9894 4.80991 3.00725 4.75138C3.0251 4.69285 3.07359 4.64881 3.13357 4.63665L3.58182 4.54581L3.85659 4.08175C3.8866 4.03108 3.94111 4 4 4C4.05889 4 4.11341 4.03108 4.14342 4.08175L4.41819 4.54581L4.86644 4.63665C4.92641 4.64881 4.9749 4.69285 4.99275 4.75138C5.01061 4.80991 4.99495 4.87351 4.95197 4.91707L4.59727 5.2765L4.68435 5.71773C4.69669 5.78026 4.67229 5.84436 4.62148 5.88285C4.57068 5.92134 4.50237 5.92748 4.44551 5.89867L4 5.67295L3.5545 5.89867C3.49764 5.92748 3.42933 5.92134 3.37853 5.88285C3.32772 5.84436 3.30332 5.78026 3.31566 5.71773L3.40274 5.2765Z" fill="#C37808"/>
<path d="M6.41764 1.00002C6.41764 1.04604 6.38033 1.08335 6.33431 1.08335C6.28829 1.08335 6.25098 1.04604 6.25098 1.00002C6.25098 0.953997 6.28829 0.916687 6.33431 0.916687C6.38033 0.916687 6.41764 0.953997 6.41764 1.00002Z" fill="#A63434"/>
<path d="M6.75065 1.00002C6.75065 1.04604 6.71334 1.08335 6.66732 1.08335C6.62129 1.08335 6.58398 1.04604 6.58398 1.00002C6.58398 0.953997 6.62129 0.916687 6.66732 0.916687C6.71334 0.916687 6.75065 0.953997 6.75065 1.00002Z" fill="#A63434"/>
<path d="M6.33366 1.83336C6.33366 1.87939 6.29635 1.9167 6.25033 1.9167C6.2043 1.9167 6.16699 1.87939 6.16699 1.83336C6.16699 1.78734 6.2043 1.75003 6.25033 1.75003C6.29635 1.75003 6.33366 1.78734 6.33366 1.83336Z" fill="#A63434"/>
<path d="M6.00065 2.33336C6.00065 2.37939 5.96334 2.4167 5.91732 2.4167C5.87129 2.4167 5.83398 2.37939 5.83398 2.33336C5.83398 2.28734 5.87129 2.25003 5.91732 2.25003C5.96334 2.25003 6.00065 2.28734 6.00065 2.33336Z" fill="#A63434"/>
<path d="M6.08366 1.25002C6.08366 1.29604 6.04635 1.33335 6.00033 1.33335C5.9543 1.33335 5.91699 1.29604 5.91699 1.25002C5.91699 1.204 5.9543 1.16669 6.00033 1.16669C6.04635 1.16669 6.08366 1.204 6.08366 1.25002Z" fill="#A63434"/>
<path d="M6.41699 1.45837C6.41699 1.52741 6.36103 1.58337 6.29199 1.58337C6.22296 1.58337 6.16699 1.52741 6.16699 1.45837C6.16699 1.38934 6.22296 1.33337 6.29199 1.33337C6.36103 1.33337 6.41699 1.38934 6.41699 1.45837Z" fill="#A63434"/>
<path d="M6.08398 1.87503C6.08398 1.94407 6.02802 2.00003 5.95898 2.00003C5.88995 2.00003 5.83398 1.94407 5.83398 1.87503C5.83398 1.80599 5.88995 1.75003 5.95898 1.75003C6.02802 1.75003 6.08398 1.80599 6.08398 1.87503Z" fill="#A63434"/>
</g>
<defs>
<clipPath id="clip0_39_576">
<rect width="8" height="8" fill="white"/>
</clipPath>
</defs>
</svg>
