<svg width="22" height="18" viewBox="0 0 22 18" fill="none" xmlns="http://www.w3.org/2000/svg">
<path d="M3.18517 6.26123L3.86486 7.44873C4.29768 8.20655 4.5133 8.58468 4.5133 9.0003C4.5133 9.41593 4.29768 9.79406 3.86486 10.5503L3.18517 11.7394C1.25079 15.1253 0.283593 16.8175 1.03672 17.6582C1.79141 18.4972 3.57892 17.716 7.15082 16.1535L16.9571 11.8628C19.7618 10.6363 21.165 10.0222 21.165 9.0003C21.165 7.97842 19.7618 7.36436 16.9571 6.13779L7.15082 1.84714C3.57892 0.284632 1.79141 -0.496622 1.03672 0.342445C0.28203 1.18151 1.25079 2.87371 3.18517 6.26123Z" fill="white"/>
</svg>
