<svg width="39" height="36" viewBox="0 0 39 36" fill="none" xmlns="http://www.w3.org/2000/svg">
<path d="M11.081 11.712L3.24092 13.285C1.45889 13.6425 0.792289 15.8403 2.07545 17.1275L8.55999 23.6326C8.88194 23.9556 9.02165 24.4179 8.93249 24.8651L7.45961 32.2528C7.08877 34.113 9.02026 35.5854 10.7157 34.735L18.5263 30.8172C18.912 30.6238 19.3665 30.6238 19.7522 30.8172L27.5628 34.735C29.2582 35.5854 31.1897 34.113 30.8189 32.2528L29.346 24.8651C29.2568 24.4179 29.3965 23.9556 29.7185 23.6326L36.203 17.1275C37.4862 15.8403 36.8196 13.6425 35.0376 13.285L27.1975 11.712C26.8195 11.6362 26.4911 11.4042 26.2932 11.0733L21.0947 2.38159C20.2103 0.903001 18.0682 0.903001 17.1838 2.38159L15.1596 5.76609L11.9853 11.0733C11.7874 11.4042 11.459 11.6362 11.081 11.712Z" fill="#F7B307" stroke="#5B3303" stroke-width="0.911392" stroke-linecap="round" stroke-linejoin="round"/>
<path d="M17.3161 18.6836L13.2148 25.0634" stroke="#FFC530" stroke-width="0.911392" stroke-linecap="round" stroke-linejoin="round"/>
<path d="M35.8802 16.806L30.356 22.3478C29.7863 22.9192 28.9088 23.0482 28.1989 22.6648L19.1392 17.7723L26.3974 11.8482C26.6069 11.9999 26.8486 12.107 27.1078 12.159L34.9479 13.732C36.3735 14.018 36.9068 15.7762 35.8802 16.806Z" fill="#FFC01D"/>
<path d="M22.7847 16.4051L30.0758 15.4937" stroke="#FFD363" stroke-width="0.911392" stroke-linecap="round" stroke-linejoin="round"/>
<path d="M18.322 30.4101L10.5114 34.3278C9.85019 34.6594 9.14412 34.5495 8.62842 34.1773L19.1392 17.7722L36.4134 15.4937C36.422 15.9568 36.2551 16.43 35.8803 16.806L29.3958 23.3111C28.9665 23.7417 28.7802 24.358 28.8991 24.9543L30.372 32.3421C30.6687 33.8302 29.1235 35.0081 27.7671 34.3278L19.9565 30.4101C19.4422 30.1521 18.8363 30.1521 18.322 30.4101Z" fill="#CF9500"/>
<path d="M28.8991 24.9542L30.372 32.3419C30.524 33.1046 30.1923 33.7858 29.6501 34.1771L19.1392 17.772L29.3957 23.3109C28.9665 23.7416 28.7802 24.3579 28.8991 24.9542Z" fill="#B97D08"/>
<path d="M3.33027 13.7319L11.1703 12.1589C11.6743 12.0577 12.1122 11.7485 12.3761 11.3073L17.5746 2.61558C17.9283 2.02416 18.5336 1.72844 19.1389 1.72842V17.7721L1.93066 15.038C2.10204 14.4132 2.59865 13.8786 3.33027 13.7319Z" fill="#FFD056"/>
<path d="M5.46826 14.5823L17.9999 16.1773L18.2278 4.55701" stroke="#FFE39A" stroke-width="0.911392" stroke-linecap="round" stroke-linejoin="round"/>
<path d="M18.0001 16.1772L15.0381 15.8003" stroke="#FFFBF0" stroke-width="0.911392" stroke-linecap="round" stroke-linejoin="round"/>
<circle cx="18.9116" cy="21.1899" r="0.683544" fill="#BA8600"/>
<circle cx="20.7342" cy="23.0128" r="0.227848" fill="#BA8600"/>
<circle cx="17.5443" cy="24.8357" r="0.227848" fill="#BA8600"/>
<circle cx="20.2786" cy="24.3798" r="0.227848" fill="#BA8600"/>
<circle cx="23.4686" cy="26.2027" r="0.227848" fill="#BA8600"/>
<circle cx="20.2786" cy="21.1899" r="0.227848" fill="#BA8600"/>
<circle cx="18.9114" cy="19.3673" r="0.227848" fill="#BA8600"/>
<circle cx="21.1903" cy="25.747" r="0.227848" fill="#BA8600"/>
<circle cx="19.5953" cy="22.785" r="0.455696" fill="#BA8600"/>
<circle cx="19.1393" cy="24.6076" r="0.455696" fill="#BA8600"/>
<circle cx="21.8737" cy="24.6076" r="0.455696" fill="#BA8600"/>
<circle cx="17.7721" cy="23.2406" r="0.455696" fill="#BA8600"/>
</svg>
