<svg width="152" height="152" viewBox="0 0 152 152" fill="none" xmlns="http://www.w3.org/2000/svg">
<path fill-rule="evenodd" clip-rule="evenodd" d="M22.6831 21.8569L74.4541 72.035L51.28 4.11103C51.6278 3.99128 51.9766 3.87398 52.3266 3.75915L69.02 0.305354C70.8258 0.139699 72.6499 0.0371719 74.4901 0L77.5509 69.6332L108.468 7.21647C112.894 9.30437 117.086 11.8066 120.994 14.6731L85.6624 69.6332L143.603 41.0491C147.321 48.2125 149.934 56.0422 151.214 64.3121L85.6624 75.2374L150.838 89.9795C149.857 95.2767 148.327 100.381 146.309 105.232L85.6624 79.2403L125.814 133.563C120.544 138.127 114.639 141.978 108.251 144.967L82.46 82.4427L72.1845 152C69.2638 151.854 66.3864 151.542 63.5616 151.075L60.844 150.493L77.6565 82.4427L26.0068 133.31C18.9612 127.147 13.0628 119.706 8.67418 111.347L74.4541 79.2403H0.0660932C0.0221756 78.1792 0 77.1124 0 76.0405C0 72.0418 0.308595 68.1151 0.90327 64.283L74.4541 75.2374L11.1104 36.4393C14.3661 31.1114 18.2589 26.2153 22.6831 21.8569Z" fill="url(#paint0_radial_22_199)" fill-opacity="0.5"/>
<g filter="url(#filter0_d_22_199)">
<path d="M30.4667 56.6672L44.4144 77.4592H104.69L117.007 56.037L30.4667 56.6672Z" fill="url(#paint1_linear_22_199)"/>
<path d="M104.692 46.3081H44.4139V77.4592H104.692V46.3081Z" fill="url(#paint2_linear_22_199)"/>
<path d="M43.6551 78.6768L29.8715 57.9371H32.6681L46.6182 78.6768H43.6551Z" fill="#ED920D"/>
<path d="M105.577 78.6763L118.424 57.1875H115.627L102.614 78.6763H105.577Z" fill="#ED920D"/>
<path d="M104.693 76.2415H43.656V78.6743H104.693V76.2415Z" fill="#ED920D"/>
<path d="M113.147 86.0396H36.9114V93.6852H113.147V86.0396Z" fill="#3B276F"/>
<path d="M40.395 34.7434C40.395 34.7434 72.7066 33.1477 106.692 34.7434L111.189 35.6946L113.765 56.8433L31.1132 56.206L34.9348 36.6506L40.395 34.7434Z" fill="url(#paint3_linear_22_199)"/>
<path d="M29.6439 92.2628L43.6559 78.6765V87.3924L38.4668 92.0226L29.6439 92.2628Z" fill="#DA6313"/>
<path d="M119.114 92.3507L105.578 78.6765L105.58 87.3923L110.23 92.0226L119.114 92.3507Z" fill="#DA6313"/>
<path d="M105.58 78.6765H43.656V87.3947H105.58V78.6765Z" fill="#DA5917"/>
<path d="M115.192 35.7728C114.877 35.2415 114.429 34.8015 113.893 34.4963C113.356 34.191 112.749 34.031 112.131 34.032H107.278C107.152 34.032 107.028 34.0667 106.92 34.1324C106.813 34.198 106.726 34.2921 106.668 34.4042C106.611 34.5163 106.585 34.6421 106.594 34.7678C106.604 34.8934 106.648 35.0141 106.721 35.1164C114.074 45.3424 111.715 54.7621 111.715 54.7621H36.4023C36.4023 54.7621 34.0527 45.3376 41.3964 35.1164C41.47 35.0139 41.5138 34.893 41.5231 34.7672C41.5324 34.6413 41.5067 34.5153 41.4489 34.4031C41.3911 34.2909 41.3034 34.1969 41.1955 34.1314C41.0876 34.0659 40.9637 34.0315 40.8375 34.032H35.9956C35.3785 34.0311 34.7718 34.1912 34.2355 34.4965C33.6991 34.8018 33.2517 35.2417 32.9374 35.7728C30.7495 39.4731 26.2501 47.378 28.2929 56.3483C28.4504 57.0318 28.8356 57.6413 29.3853 58.077C29.935 58.5126 30.6165 58.7483 31.3179 58.7455H116.812C117.513 58.7476 118.194 58.5113 118.743 58.0753C119.292 57.6392 119.677 57.0294 119.834 56.346C121.879 47.378 117.378 39.4827 115.192 35.7728Z" fill="url(#paint4_linear_22_199)"/>
<path d="M105.58 78.6765H43.6559L29.6439 92.2628H119.114L105.58 78.6765ZM45.8651 79.535H102.683C103.969 79.5382 105.2 80.0514 106.108 80.9619L115.34 90.1962C115.436 90.2916 115.501 90.4132 115.529 90.5459C115.556 90.6785 115.543 90.8162 115.492 90.9417C115.442 91.0671 115.355 91.1748 115.243 91.2512C115.131 91.3276 114.999 91.3692 114.864 91.371H34.0316C33.8571 91.3704 33.6868 91.3179 33.5422 91.2203C33.3976 91.1227 33.2853 90.9843 33.2195 90.8227C33.1537 90.6611 33.1375 90.4836 33.1728 90.3128C33.2082 90.1419 33.2935 89.9855 33.418 89.8632L42.6618 80.8477C43.5177 80.0095 44.6671 79.5385 45.8651 79.535Z" fill="#FFEE39"/>
<path d="M111.19 94.7959H34.9541V126.953H111.19V94.7959Z" fill="url(#paint5_linear_22_199)"/>
<path d="M117.718 92.0225H30.8926C30.6534 92.0225 30.4165 92.0696 30.1955 92.1611C29.9745 92.2527 29.7737 92.3869 29.6045 92.556C29.4354 92.7252 29.3012 92.926 29.2097 93.147C29.1181 93.368 29.071 93.6049 29.071 93.8441V98.3625C29.0675 98.3918 29.0675 98.4213 29.071 98.4505L34.467 128.039C34.5964 128.75 34.9716 129.392 35.5267 129.854C36.0819 130.315 36.7818 130.567 37.5038 130.565H111.19C111.911 130.565 112.608 130.312 113.161 129.85C113.715 129.389 114.088 128.748 114.217 128.039L119.616 98.4601C119.618 98.4308 119.618 98.4013 119.616 98.3721V93.9273C119.616 93.4232 119.417 92.9394 119.061 92.5822C118.705 92.225 118.222 92.0237 117.718 92.0225ZM106.065 124.182H42.6287C42.5126 124.183 42.4001 124.141 42.3125 124.065C42.2249 123.989 42.1682 123.883 42.1531 123.768L38.2625 98.9713C38.2494 98.902 38.2519 98.8305 38.2699 98.7622C38.2879 98.6939 38.3208 98.6305 38.3664 98.5765C38.4119 98.5226 38.4689 98.4794 38.5332 98.4502C38.5975 98.421 38.6675 98.4065 38.7381 98.4077H109.949C110.019 98.4065 110.089 98.421 110.154 98.4502C110.218 98.4794 110.275 98.5226 110.32 98.5765C110.366 98.6305 110.399 98.6939 110.417 98.7622C110.435 98.8305 110.437 98.902 110.424 98.9713L106.546 123.768C106.53 123.884 106.473 123.99 106.384 124.067C106.296 124.143 106.182 124.184 106.065 124.182Z" fill="url(#paint6_linear_22_199)"/>
<path d="M111.19 126.715C111.19 127.024 111.098 127.327 110.925 127.585C110.753 127.843 110.508 128.044 110.222 128.162C109.936 128.281 109.621 128.312 109.317 128.252C109.013 128.191 108.733 128.042 108.514 127.823C108.295 127.604 108.146 127.324 108.085 127.02C108.025 126.716 108.056 126.401 108.174 126.115C108.293 125.828 108.494 125.584 108.752 125.411C109.009 125.239 109.312 125.147 109.622 125.147C109.828 125.147 110.032 125.188 110.222 125.267C110.412 125.345 110.585 125.461 110.731 125.606C110.876 125.752 110.991 125.925 111.07 126.115C111.149 126.305 111.19 126.509 111.19 126.715Z" fill="#FFD217"/>
<path d="M113.527 116.058C113.527 116.369 113.436 116.672 113.264 116.931C113.091 117.189 112.846 117.391 112.56 117.51C112.273 117.629 111.957 117.661 111.653 117.6C111.348 117.54 111.068 117.391 110.848 117.171C110.629 116.952 110.479 116.672 110.418 116.368C110.357 116.063 110.388 115.747 110.507 115.46C110.626 115.174 110.827 114.928 111.085 114.756C111.343 114.583 111.647 114.491 111.957 114.491C112.373 114.491 112.772 114.656 113.066 114.95C113.361 115.244 113.526 115.642 113.527 116.058Z" fill="#FFD217"/>
<path d="M115.121 105.39C115.121 105.7 115.029 106.003 114.857 106.26C114.685 106.518 114.44 106.719 114.153 106.838C113.867 106.956 113.552 106.987 113.248 106.927C112.944 106.866 112.665 106.717 112.446 106.498C112.226 106.279 112.077 105.999 112.017 105.695C111.956 105.391 111.987 105.076 112.106 104.79C112.224 104.504 112.425 104.259 112.683 104.087C112.941 103.914 113.244 103.823 113.554 103.823C113.969 103.823 114.368 103.988 114.662 104.282C114.956 104.575 115.121 104.974 115.121 105.39Z" fill="#FFD217"/>
<path d="M116.343 95.4378C116.343 95.7478 116.251 96.0507 116.079 96.3085C115.907 96.5662 115.662 96.7671 115.376 96.8857C115.089 97.0043 114.774 97.0353 114.47 96.9749C114.166 96.9144 113.887 96.7651 113.668 96.546C113.448 96.3268 113.299 96.0475 113.239 95.7435C113.178 95.4395 113.209 95.1244 113.328 94.8381C113.447 94.5517 113.647 94.3069 113.905 94.1347C114.163 93.9625 114.466 93.8706 114.776 93.8706C115.191 93.8706 115.59 94.0357 115.884 94.3296C116.178 94.6235 116.343 95.0221 116.343 95.4378Z" fill="#FFD217"/>
<path d="M37.0275 126.715C37.0275 127.024 37.1194 127.327 37.2916 127.585C37.4638 127.843 37.7085 128.044 37.9949 128.162C38.2813 128.281 38.5964 128.312 38.9004 128.252C39.2044 128.191 39.4836 128.042 39.7028 127.823C39.922 127.604 40.0713 127.324 40.1317 127.02C40.1922 126.716 40.1612 126.401 40.0425 126.115C39.9239 125.828 39.7231 125.584 39.4653 125.411C39.2076 125.239 38.9046 125.147 38.5947 125.147C38.179 125.147 37.7804 125.312 37.4865 125.606C37.1926 125.9 37.0275 126.299 37.0275 126.715Z" fill="#FFD217"/>
<path d="M51.0109 126.715C51.0109 127.024 51.1028 127.327 51.275 127.585C51.4472 127.843 51.6919 128.044 51.9783 128.162C52.2647 128.281 52.5798 128.312 52.8838 128.252C53.1878 128.191 53.4671 128.042 53.6862 127.823C53.9054 127.604 54.0547 127.324 54.1151 127.02C54.1756 126.716 54.1446 126.401 54.026 126.115C53.9073 125.828 53.7065 125.584 53.4487 125.411C53.191 125.239 52.888 125.147 52.5781 125.147C52.3723 125.147 52.1685 125.188 51.9783 125.267C51.7882 125.345 51.6154 125.461 51.4699 125.606C51.3244 125.752 51.2089 125.925 51.1302 126.115C51.0514 126.305 51.0109 126.509 51.0109 126.715Z" fill="#FFD217"/>
<path d="M64.9944 126.715C64.9944 127.024 65.0863 127.327 65.2585 127.585C65.4307 127.843 65.6755 128.044 65.9618 128.162C66.2482 128.281 66.5633 128.312 66.8673 128.252C67.1713 128.191 67.4506 128.042 67.6697 127.823C67.8889 127.604 68.0382 127.324 68.0986 127.02C68.1591 126.716 68.1281 126.401 68.0095 126.115C67.8908 125.828 67.69 125.584 67.4322 125.411C67.1745 125.239 66.8715 125.147 66.5616 125.147C66.3558 125.147 66.152 125.188 65.9618 125.267C65.7717 125.345 65.5989 125.461 65.4534 125.606C65.3079 125.752 65.1924 125.925 65.1137 126.115C65.0349 126.305 64.9944 126.509 64.9944 126.715Z" fill="#FFD217"/>
<path d="M78.9778 126.715C78.9778 127.024 79.0697 127.327 79.2419 127.585C79.4141 127.843 79.6589 128.044 79.9452 128.162C80.2316 128.281 80.5467 128.312 80.8507 128.252C81.1547 128.191 81.434 128.042 81.6531 127.823C81.8723 127.604 82.0216 127.324 82.082 127.02C82.1425 126.716 82.1115 126.401 81.9929 126.115C81.8742 125.828 81.6734 125.584 81.4157 125.411C81.1579 125.239 80.8549 125.147 80.545 125.147C80.3392 125.147 80.1354 125.188 79.9452 125.267C79.7551 125.345 79.5823 125.461 79.4368 125.606C79.2913 125.752 79.1758 125.925 79.0971 126.115C79.0183 126.305 78.9778 126.509 78.9778 126.715Z" fill="#FFD217"/>
<path d="M92.9612 126.715C92.9612 127.024 93.0531 127.327 93.2253 127.585C93.3975 127.843 93.6423 128.044 93.9286 128.162C94.215 128.281 94.5301 128.312 94.8341 128.252C95.1381 128.191 95.4174 128.042 95.6365 127.823C95.8557 127.604 96.005 127.324 96.0654 127.02C96.1259 126.716 96.0949 126.401 95.9763 126.115C95.8576 125.828 95.6568 125.584 95.3991 125.411C95.1413 125.239 94.8383 125.147 94.5284 125.147C94.3226 125.147 94.1188 125.188 93.9286 125.267C93.7385 125.345 93.5657 125.461 93.4202 125.606C93.2747 125.752 93.1592 125.925 93.0805 126.115C93.0017 126.305 92.9612 126.509 92.9612 126.715Z" fill="#FFD217"/>
<path d="M44.4185 95.214C44.4185 95.524 44.5104 95.827 44.6826 96.0847C44.8548 96.3424 45.0995 96.5433 45.3859 96.6619C45.6723 96.7805 45.9874 96.8116 46.2914 96.7511C46.5954 96.6906 46.8746 96.5414 47.0938 96.3222C47.313 96.103 47.4622 95.8238 47.5227 95.5198C47.5832 95.2158 47.5521 94.9007 47.4335 94.6143C47.3149 94.3279 47.1141 94.0832 46.8563 93.911C46.5986 93.7388 46.2956 93.6469 45.9856 93.6469C45.57 93.6469 45.1714 93.812 44.8775 94.1059C44.5836 94.3998 44.4185 94.7984 44.4185 95.214Z" fill="#FFD217"/>
<path d="M59.9646 96.7812C60.8302 96.7812 61.5318 96.0796 61.5318 95.214C61.5318 94.3485 60.8302 93.6469 59.9646 93.6469C59.0991 93.6469 58.3975 94.3485 58.3975 95.214C58.3975 96.0796 59.0991 96.7812 59.9646 96.7812Z" fill="#FFD217"/>
<path d="M87.9314 96.7812C88.797 96.7812 89.4986 96.0796 89.4986 95.214C89.4986 94.3485 88.797 93.6469 87.9314 93.6469C87.0659 93.6469 86.3643 94.3485 86.3643 95.214C86.3643 96.0796 87.0659 96.7812 87.9314 96.7812Z" fill="#FFD217"/>
<path d="M100.507 95.214C100.507 95.524 100.599 95.827 100.772 96.0847C100.944 96.3424 101.189 96.5433 101.475 96.6619C101.761 96.7805 102.076 96.8116 102.38 96.7511C102.684 96.6906 102.964 96.5414 103.183 96.3222C103.402 96.103 103.551 95.8238 103.612 95.5198C103.672 95.2158 103.641 94.9007 103.523 94.6143C103.404 94.3279 103.203 94.0832 102.945 93.911C102.688 93.7388 102.385 93.6469 102.075 93.6469C101.659 93.6469 101.26 93.812 100.966 94.1059C100.673 94.3998 100.507 94.7984 100.507 95.214Z" fill="#FFD217"/>
<path d="M34.6903 116.058C34.6903 116.368 34.7822 116.671 34.9544 116.929C35.1266 117.187 35.3714 117.387 35.6578 117.506C35.9441 117.625 36.2592 117.656 36.5632 117.595C36.8672 117.535 37.1465 117.386 37.3657 117.166C37.5848 116.947 37.7341 116.668 37.7946 116.364C37.855 116.06 37.824 115.745 37.7054 115.458C37.5868 115.172 37.3859 114.927 37.1282 114.755C36.8705 114.583 36.5675 114.491 36.2575 114.491C35.8418 114.491 35.4432 114.656 35.1493 114.95C34.8554 115.244 34.6903 115.643 34.6903 116.058Z" fill="#FFD217"/>
<path d="M33.0946 105.39C33.0946 105.7 33.1865 106.003 33.3587 106.26C33.5309 106.518 33.7757 106.719 34.0621 106.838C34.3484 106.956 34.6635 106.987 34.9675 106.927C35.2715 106.866 35.5508 106.717 35.77 106.498C35.9891 106.279 36.1384 105.999 36.1989 105.695C36.2593 105.391 36.2283 105.076 36.1097 104.79C35.9911 104.504 35.7902 104.259 35.5325 104.087C35.2747 103.914 34.9717 103.823 34.6618 103.823C34.2461 103.823 33.8475 103.988 33.5536 104.282C33.2597 104.575 33.0946 104.974 33.0946 105.39Z" fill="#FFD217"/>
<path d="M31.8726 95.4378C31.8726 95.7478 31.9645 96.0507 32.1367 96.3085C32.3089 96.5662 32.5536 96.7671 32.84 96.8857C33.1264 97.0043 33.4415 97.0353 33.7455 96.9749C34.0495 96.9144 34.3287 96.7651 34.5479 96.546C34.7671 96.3268 34.9163 96.0475 34.9768 95.7435C35.0373 95.4395 35.0063 95.1244 34.8876 94.8381C34.769 94.5517 34.5682 94.3069 34.3104 94.1347C34.0527 93.9625 33.7497 93.8706 33.4397 93.8706C33.0241 93.8706 32.6255 94.0357 32.3316 94.3296C32.0377 94.6235 31.8726 95.0221 31.8726 95.4378Z" fill="#FFD217"/>
<path d="M108.359 110.874H40.3709L40.1616 109.687H108.566L108.359 110.874Z" fill="#4A30AA"/>
<path d="M111.094 44.7335H37.2083L37.6268 43.4421H110.573L111.094 44.7335Z" fill="#4A30AA"/>
<path d="M70.2353 78.6905V76.2957H69.548C68.359 74.3052 65.6907 72.9211 62.6087 72.9211C59.5266 72.9211 56.8726 74.3052 55.6717 76.2957H54.9844V78.6905C54.9844 81.8772 58.3994 84.4598 62.6087 84.4598C66.8179 84.4598 70.2353 81.8772 70.2353 78.6905Z" fill="#E86124"/>
<path d="M57.2365 78.6905V76.2957H57.9237C58.9772 74.5525 61.1437 73.2755 63.7359 72.9854C63.3617 72.9422 62.9853 72.9207 62.6087 72.9211C59.5171 72.9211 56.8726 74.3052 55.6717 76.2957H54.9844V78.6905C54.9844 81.8772 58.3994 84.4598 62.6087 84.4598C62.9852 84.4598 63.3615 84.4391 63.7359 84.398C60.0593 83.9842 57.2365 81.587 57.2365 78.6905Z" fill="#DC4A26"/>
<path d="M62.6087 82.0654C66.8194 82.0654 70.2329 79.4824 70.2329 76.2961C70.2329 73.1097 66.8194 70.5267 62.6087 70.5267C58.3979 70.5267 54.9844 73.1097 54.9844 76.2961C54.9844 79.4824 58.3979 82.0654 62.6087 82.0654Z" fill="#F0E92D"/>
<path d="M62.6098 80.4722C65.6569 80.4722 68.127 78.6026 68.127 76.2962C68.127 73.9899 65.6569 72.1202 62.6098 72.1202C59.5627 72.1202 57.0925 73.9899 57.0925 76.2962C57.0925 78.6026 59.5627 80.4722 62.6098 80.4722Z" fill="#EF8521"/>
<path d="M58.712 77.0188C58.712 74.6953 60.4671 72.7381 62.8619 72.127C62.7786 72.127 62.6954 72.127 62.6098 72.127C59.5634 72.127 57.0925 73.9962 57.0925 76.3006C57.0925 77.7845 58.1175 79.0877 59.6585 79.8273C59.0471 79.0184 58.7149 78.0328 58.712 77.0188Z" fill="#E86124"/>
<path d="M85.5604 84.7338V82.339H84.8755C83.6579 80.3462 81.0063 78.9597 77.9242 78.9597C74.8422 78.9597 72.1882 80.3414 70.9848 82.3343H70.2999V84.7291C70.2999 87.9134 73.7125 90.496 77.9242 90.496C82.1359 90.496 85.5604 87.9181 85.5604 84.7338Z" fill="#E86124"/>
<path d="M72.552 84.7336V82.3388H73.2393C74.2928 80.5933 76.4593 79.3162 79.0514 79.0261C78.6771 78.9849 78.3008 78.9643 77.9242 78.9642C74.8326 78.9642 72.1882 80.3459 70.9848 82.3388H70.2999V84.7336C70.2999 87.9179 73.7125 90.5005 77.9242 90.5005C78.3008 90.5005 78.6771 90.4798 79.0514 90.4387C75.3748 90.0273 72.552 87.6301 72.552 84.7336Z" fill="#DC4A26"/>
<path d="M77.9242 88.1078C82.135 88.1078 85.5485 85.5247 85.5485 82.3384C85.5485 79.1521 82.135 76.5691 77.9242 76.5691C73.7134 76.5691 70.2999 79.1521 70.2999 82.3384C70.2999 85.5247 73.7134 88.1078 77.9242 88.1078Z" fill="#F0E92D"/>
<path d="M77.9252 86.5146C80.9723 86.5146 83.4425 84.6449 83.4425 82.3386C83.4425 80.0323 80.9723 78.1626 77.9252 78.1626C74.8781 78.1626 72.408 80.0323 72.408 82.3386C72.408 84.6449 74.8781 86.5146 77.9252 86.5146Z" fill="#EF8521"/>
<path d="M74.0275 83.062C74.0275 80.7362 75.7801 78.7814 78.1773 78.1678H77.9252C74.8788 78.1678 72.408 80.0371 72.408 82.3438C72.408 83.8278 73.4305 85.1286 74.974 85.8682C74.3619 85.0605 74.0297 84.0754 74.0275 83.062Z" fill="#E86124"/>
<path d="M88.1772 77.7708V75.3713H87.4899C86.289 73.3808 83.635 71.9967 80.5529 71.9967C77.4709 71.9967 74.8169 73.3808 73.6136 75.3713H72.9263V77.7708C72.9263 80.9575 76.3413 83.5401 80.5529 83.5401C84.7646 83.5401 88.1772 80.9527 88.1772 77.7708Z" fill="#E86124"/>
<path d="M75.1733 77.7708V75.3713H75.8606C76.9117 73.6281 79.0782 72.351 81.6703 72.0609C81.2969 72.0177 80.9213 71.9963 80.5455 71.9967C77.4539 71.9967 74.8094 73.3808 73.6061 75.3713H72.9188V77.7708C72.9188 80.9575 76.3338 83.5401 80.5455 83.5401C80.9213 83.5402 81.2968 83.5195 81.6703 83.4783C77.9937 83.0598 75.1733 80.6626 75.1733 77.7708Z" fill="#DC4A26"/>
<path d="M80.5446 81.1402C84.7553 81.1402 88.1688 78.5572 88.1688 75.3709C88.1688 72.1846 84.7553 69.6016 80.5446 69.6016C76.3338 69.6016 72.9203 72.1846 72.9203 75.3709C72.9203 78.5572 76.3338 81.1402 80.5446 81.1402Z" fill="#F0E92D"/>
<path d="M80.5456 79.5471C83.5927 79.5471 86.0628 77.6774 86.0628 75.3711C86.0628 73.0647 83.5927 71.1951 80.5456 71.1951C77.4985 71.1951 75.0283 73.0647 75.0283 75.3711C75.0283 77.6774 77.4985 79.5471 80.5456 79.5471Z" fill="#EF8521"/>
<path d="M76.6449 76.1057C76.6449 73.7799 78.3999 71.8251 80.7971 71.2115C80.7139 71.2115 80.6282 71.2115 80.545 71.2115C77.4963 71.2115 75.0254 73.0808 75.0254 75.3852C75.0254 76.8691 76.0504 78.1723 77.5914 78.9119C76.9803 78.1037 76.6482 77.1189 76.6449 76.1057Z" fill="#E86124"/>
<path d="M72.5761 76.3625V73.9654H71.8912C70.6878 71.9749 68.0338 70.5908 64.9518 70.5908C61.8697 70.5908 59.2157 71.9749 58.0124 73.9654H57.3275V76.3602C57.3275 79.5469 60.7401 82.1295 64.9518 82.1295C69.1635 82.1295 72.5761 79.5492 72.5761 76.3625Z" fill="#E86124"/>
<path d="M59.5796 76.3625V73.9654H60.2669C61.318 72.2222 63.4869 70.9428 66.079 70.6527C65.7047 70.6115 65.3284 70.5909 64.9518 70.5908C61.8602 70.5908 59.2157 71.9749 58.0124 73.9654H57.3275V76.3602C57.3275 79.5469 60.7401 82.1295 64.9518 82.1295C65.3285 82.1298 65.7048 82.1084 66.079 82.0653C62.4024 81.6562 59.5796 79.2591 59.5796 76.3625Z" fill="#DC4A26"/>
<path d="M64.9518 79.7374C69.1626 79.7374 72.5761 77.1544 72.5761 73.9681C72.5761 70.7818 69.1626 68.1987 64.9518 68.1987C60.741 68.1987 57.3275 70.7818 57.3275 73.9681C57.3275 77.1544 60.741 79.7374 64.9518 79.7374Z" fill="#F0E92D"/>
<path d="M64.9513 78.1441C67.9984 78.1441 70.4686 76.2744 70.4686 73.9681C70.4686 71.6618 67.9984 69.7921 64.9513 69.7921C61.9042 69.7921 59.4341 71.6618 59.4341 73.9681C59.4341 76.2744 61.9042 78.1441 64.9513 78.1441Z" fill="#EF8521"/>
<path d="M61.0512 74.6908C61.0512 72.365 62.8063 70.4102 65.2034 69.7966H64.9513C61.9026 69.7966 59.4341 71.6658 59.4341 73.9726C59.4341 75.4566 60.4567 76.7574 62.0001 77.4994C61.3869 76.6912 61.0538 75.7053 61.0512 74.6908Z" fill="#E86124"/>
<path d="M75.7534 85.5442V83.1495H75.0661C73.877 81.159 71.2112 79.7749 68.1291 79.7749C65.047 79.7749 62.3931 81.159 61.1897 83.1495H60.5024V85.5442C60.5024 88.7286 63.9198 91.3255 68.1291 91.3255C72.3384 91.3255 75.7534 88.7286 75.7534 85.5442Z" fill="#E86124"/>
<path d="M62.7576 85.5442V83.1495H63.4449C64.4984 81.4063 66.6648 80.1269 69.257 79.8367C68.8835 79.7955 68.508 79.7749 68.1322 79.7749C65.0406 79.7749 62.3961 81.159 61.1928 83.1495H60.5055V85.5442C60.5031 88.7286 63.9205 91.3255 68.1298 91.3255C68.5056 91.3247 68.8811 91.3033 69.2546 91.2613C65.5852 90.8498 62.7576 88.4408 62.7576 85.5442Z" fill="#DC4A26"/>
<path d="M68.1298 88.9193C72.3405 88.9193 75.754 86.3363 75.754 83.15C75.754 79.9636 72.3405 77.3806 68.1298 77.3806C63.919 77.3806 60.5055 79.9636 60.5055 83.15C60.5055 86.3363 63.919 88.9193 68.1298 88.9193Z" fill="#F0E92D"/>
<path d="M68.1293 87.326C71.1764 87.326 73.6466 85.4563 73.6466 83.15C73.6466 80.8437 71.1764 78.974 68.1293 78.974C65.0822 78.974 62.6121 80.8437 62.6121 83.15C62.6121 85.4563 65.0822 87.326 68.1293 87.326Z" fill="#EF8521"/>
<path d="M64.2285 83.8727C64.2285 81.5469 65.9836 79.5921 68.3807 78.9785H68.1286C65.0799 78.9785 62.609 80.8477 62.609 83.1545C62.609 84.6385 63.634 85.9393 65.175 86.6813C64.5639 85.8722 64.2318 84.8867 64.2285 83.8727Z" fill="#E86124"/>
<path d="M95.9411 85.6587V83.2616H95.2562C94.0528 81.2711 91.3988 79.8894 88.3168 79.8894C85.2347 79.8894 82.5807 81.2711 81.3774 83.2616H80.6925V85.6587C80.6925 88.8431 84.1051 91.4257 88.3168 91.4257C92.5284 91.4257 95.9411 88.8431 95.9411 85.6587Z" fill="#E86124"/>
<path d="M82.9446 85.6587V83.2616H83.6319C84.6854 81.5184 86.8519 80.2414 89.444 79.9512C89.0697 79.9101 88.6934 79.8895 88.3168 79.8894C85.2252 79.8894 82.5807 81.2711 81.3774 83.2616H80.6925V85.6587C80.6925 88.8431 84.1051 91.4257 88.3168 91.4257C88.6934 91.4257 89.0697 91.405 89.444 91.3639C85.7674 90.9525 82.9446 88.5553 82.9446 85.6587Z" fill="#DC4A26"/>
<path d="M88.3168 89.0307C92.5276 89.0307 95.9411 86.4477 95.9411 83.2614C95.9411 80.0751 92.5276 77.4921 88.3168 77.4921C84.106 77.4921 80.6925 80.0751 80.6925 83.2614C80.6925 86.4477 84.106 89.0307 88.3168 89.0307Z" fill="#F0E92D"/>
<path d="M88.3179 87.4376C91.365 87.4376 93.8352 85.5679 93.8352 83.2616C93.8352 80.9552 91.365 79.0856 88.3179 79.0856C85.2708 79.0856 82.8007 80.9552 82.8007 83.2616C82.8007 85.5679 85.2708 87.4376 88.3179 87.4376Z" fill="#EF8521"/>
<path d="M84.4178 83.9865C84.4178 81.6607 86.1728 79.7058 88.57 79.0923H88.3179C85.2715 79.0923 82.8007 80.9615 82.8007 83.2659C82.8007 84.7522 83.8232 86.0531 85.3667 86.7927C84.7539 85.9852 84.4209 85.0001 84.4178 83.9865Z" fill="#E86124"/>
<path d="M103.568 81.0855V78.6907H102.881C101.68 76.7002 99.0235 75.3162 95.9414 75.3162C92.8594 75.3162 90.2054 76.7002 89.0044 78.6907H88.3171V81.0855C88.3171 84.2722 91.7321 86.8548 95.9414 86.8548C100.151 86.8548 103.568 84.2722 103.568 81.0855Z" fill="#E86124"/>
<path d="M90.5694 81.0855V78.6907H91.2686C92.3221 76.9476 94.4886 75.6705 97.0807 75.3804C96.7065 75.3372 96.3302 75.3157 95.9535 75.3162C92.8619 75.3162 90.2175 76.7002 89.0165 78.6907H88.3292V81.0855C88.3292 84.2722 91.7442 86.8548 95.9535 86.8548C96.3301 86.8548 96.7064 86.8342 97.0807 86.793C93.3923 86.3792 90.5694 83.9821 90.5694 81.0855Z" fill="#DC4A26"/>
<path d="M95.9414 84.4598C100.152 84.4598 103.566 81.8768 103.566 78.6905C103.566 75.5042 100.152 72.9211 95.9414 72.9211C91.7306 72.9211 88.3171 75.5042 88.3171 78.6905C88.3171 81.8768 91.7306 84.4598 95.9414 84.4598Z" fill="#F0E92D"/>
<path d="M95.941 82.8665C98.9881 82.8665 101.458 80.9969 101.458 78.6905C101.458 76.3842 98.9881 74.5145 95.941 74.5145C92.8939 74.5145 90.4237 76.3842 90.4237 78.6905C90.4237 80.9969 92.8939 82.8665 95.941 82.8665Z" fill="#EF8521"/>
<path d="M92.0432 79.4163C92.0432 77.0905 93.7983 75.1357 96.193 74.5221C96.1098 74.5221 96.0266 74.5221 95.941 74.5221C92.8946 74.5221 90.4237 76.3913 90.4237 78.6957C90.4237 80.1797 91.4487 81.4829 92.9897 82.2225C92.3786 81.4143 92.0465 80.4295 92.0432 79.4163Z" fill="#E86124"/>
<path d="M56.4071 85.5442V83.1495H55.7198C54.5307 81.159 51.8648 79.7749 48.7828 79.7749C45.7007 79.7749 43.0467 81.159 41.8434 83.1495H41.1561V85.5442C41.1561 88.7286 44.5711 91.3136 48.7828 91.3136C52.9944 91.3136 56.4071 88.7286 56.4071 85.5442Z" fill="#E86124"/>
<path d="M43.4106 85.5442V83.1495H44.0955C45.149 81.4063 47.3155 80.1269 49.9076 79.8367C49.5341 79.7955 49.1586 79.7749 48.7828 79.7749C45.6912 79.7749 43.0467 81.159 41.8434 83.1495H41.1561V85.5442C41.1561 88.7286 44.5711 91.3136 48.7828 91.3136C49.1586 91.3128 49.5342 91.2914 49.9076 91.2494C46.2311 90.8498 43.4106 88.4408 43.4106 85.5442Z" fill="#DC4A26"/>
<path d="M48.7834 88.9193C52.9942 88.9193 56.4077 86.3363 56.4077 83.15C56.4077 79.9636 52.9942 77.3806 48.7834 77.3806C44.5727 77.3806 41.1592 79.9636 41.1592 83.15C41.1592 86.3363 44.5727 88.9193 48.7834 88.9193Z" fill="#F0E92D"/>
<path d="M48.783 87.326C51.8301 87.326 54.3003 85.4563 54.3003 83.15C54.3003 80.8437 51.8301 78.974 48.783 78.974C45.7359 78.974 43.2657 80.8437 43.2657 83.15C43.2657 85.4563 45.7359 87.326 48.783 87.326Z" fill="#EF8521"/>
<path d="M44.8943 83.8727C44.8943 81.5469 46.6493 79.5921 49.0465 78.9785H48.7944C45.7457 78.9785 43.2748 80.8477 43.2748 83.1545C43.2748 84.6385 44.2997 85.9393 45.8408 86.6813C45.2297 85.8722 44.8975 84.8867 44.8943 83.8727Z" fill="#E86124"/>
<path d="M60.2028 77.4397V75.045H59.5156C58.3146 73.0545 55.6606 71.6704 52.5786 71.6704C49.4965 71.6704 46.8401 73.0545 45.6392 75.045H44.9519V77.4397C44.9519 80.6264 48.3669 83.2091 52.5786 83.2091C56.7902 83.2091 60.2028 80.6241 60.2028 77.4397Z" fill="#E86124"/>
<path d="M47.2064 77.4397V75.045H47.8913C48.9448 73.3018 51.1113 72.0224 53.7034 71.7322C53.3299 71.691 52.9544 71.6704 52.5786 71.6704C49.487 71.6704 46.8401 73.0545 45.6392 75.045H44.9519V77.4397C44.9519 80.6264 48.3669 83.2091 52.5786 83.2091C52.9544 83.2095 53.33 83.1881 53.7034 83.1449C50.0268 82.7335 47.2064 80.3363 47.2064 77.4397Z" fill="#DC4A26"/>
<path d="M52.5792 80.8147C56.79 80.8147 60.2035 78.2317 60.2035 75.0453C60.2035 71.859 56.79 69.276 52.5792 69.276C48.3685 69.276 44.955 71.859 44.955 75.0453C44.955 78.2317 48.3685 80.8147 52.5792 80.8147Z" fill="#F0E92D"/>
<path d="M52.5788 79.2215C55.6259 79.2215 58.096 77.3518 58.096 75.0455C58.096 72.7392 55.6259 70.8695 52.5788 70.8695C49.5317 70.8695 47.0615 72.7392 47.0615 75.0455C47.0615 77.3518 49.5317 79.2215 52.5788 79.2215Z" fill="#EF8521"/>
<path d="M48.678 75.7682C48.678 73.4424 50.433 71.4876 52.8302 70.874H52.5781C49.5294 70.874 47.0585 72.7432 47.0585 75.05C47.0585 76.534 48.0835 77.8348 49.6245 78.5768C49.0131 77.7678 48.6809 76.7822 48.678 75.7682Z" fill="#E86124"/>
<path d="M65.6083 85.93V83.5352H64.921C63.7177 81.5447 61.0637 80.1606 57.9817 80.1606C54.8996 80.1606 52.2456 81.5447 51.0446 83.5352H50.3645V85.93C50.3645 89.1167 53.7795 91.6993 57.9888 91.6993C62.1981 91.6993 65.6083 89.1167 65.6083 85.93Z" fill="#E86124"/>
<path d="M52.6095 85.93V83.5352H53.2967C54.3502 81.792 56.5167 80.515 59.1089 80.2249C58.7347 80.1817 58.3583 80.1603 57.9817 80.1606C54.8901 80.1606 52.2456 81.5447 51.0446 83.5352H50.3645V85.93C50.3645 89.1167 53.7795 91.6993 57.9888 91.6993C58.3654 91.6993 58.7417 91.6786 59.116 91.6375C55.4323 91.2237 52.6095 88.8265 52.6095 85.93Z" fill="#DC4A26"/>
<path d="M57.9812 89.3043C62.192 89.3043 65.6055 86.7213 65.6055 83.535C65.6055 80.3486 62.192 77.7656 57.9812 77.7656C53.7705 77.7656 50.3569 80.3486 50.3569 83.535C50.3569 86.7213 53.7705 89.3043 57.9812 89.3043Z" fill="#F0E92D"/>
<path d="M57.9808 87.711C61.0279 87.711 63.498 85.8413 63.498 83.535C63.498 81.2287 61.0279 79.359 57.9808 79.359C54.9337 79.359 52.4635 81.2287 52.4635 83.535C52.4635 85.8413 54.9337 87.711 57.9808 87.711Z" fill="#EF8521"/>
<path d="M54.083 84.2584C54.083 81.935 55.8381 79.9778 58.2328 79.3666C58.1496 79.3666 58.0664 79.3666 57.9808 79.3666C54.9344 79.3666 52.4635 81.2334 52.4635 83.5402C52.4635 85.0241 53.4885 86.3274 55.0295 87.067C54.4181 86.258 54.0859 85.2724 54.083 84.2584Z" fill="#E86124"/>
<path d="M108.312 85.93V83.5352H107.627C106.424 81.5447 103.77 80.1606 100.688 80.1606C97.6059 80.1606 94.952 81.5447 93.7486 83.5352H93.0637V85.93C93.0637 89.1167 96.4763 91.6993 100.688 91.6993C104.9 91.6993 108.312 89.1167 108.312 85.93Z" fill="#E86124"/>
<path d="M95.3113 85.93V83.5352H95.9986C97.0497 81.792 99.2186 80.515 101.811 80.2249C101.437 80.1817 101.06 80.1603 100.683 80.1606C97.5919 80.1606 94.9474 81.5447 93.7441 83.5352H93.0592V85.93C93.0592 89.1167 96.4718 91.6993 100.683 91.6993C101.06 91.6993 101.436 91.6786 101.811 91.6375C98.1389 91.2237 95.3113 88.8265 95.3113 85.93Z" fill="#DC4A26"/>
<path d="M100.688 89.3043C104.899 89.3043 108.312 86.7213 108.312 83.535C108.312 80.3486 104.899 77.7656 100.688 77.7656C96.4772 77.7656 93.0637 80.3486 93.0637 83.535C93.0637 86.7213 96.4772 89.3043 100.688 89.3043Z" fill="#F0E92D"/>
<path d="M100.688 87.711C103.735 87.711 106.205 85.8413 106.205 83.535C106.205 81.2287 103.735 79.359 100.688 79.359C97.6405 79.359 95.1703 81.2287 95.1703 83.535C95.1703 85.8413 97.6405 87.711 100.688 87.711Z" fill="#EF8521"/>
<path d="M96.7874 84.2584C96.7874 81.935 98.5425 79.9778 100.94 79.3666C100.856 79.3666 100.773 79.3666 100.688 79.3666C97.6388 79.3666 95.1703 81.2334 95.1703 83.5402C95.1703 85.0241 96.1929 86.3274 97.7363 87.067C97.1231 86.2588 96.79 85.2728 96.7874 84.2584Z" fill="#E86124"/>
<path d="M116.586 91.6992H33.0946V88.9192H115.782L116.586 91.6992Z" fill="#FFEE39"/>
<path d="M78.8392 91.5328H68.3944C67.6609 91.5328 66.9574 91.8242 66.4387 92.3429C65.9201 92.8616 65.6287 93.5651 65.6287 94.2986V100.02C65.6287 101.547 66.0781 102.182 68.3944 102.182H78.8392C80.7964 102.182 81.6049 101.547 81.6049 100.02V94.2986C81.6049 93.5651 81.3135 92.8616 80.7948 92.3429C80.2762 91.8242 79.5727 91.5328 78.8392 91.5328Z" fill="#EF8412"/>
<path d="M78.8392 90.0869H68.3944C66.8669 90.0869 65.6287 91.3252 65.6287 92.8527V98.5745C65.6287 100.102 66.8669 101.34 68.3944 101.34H78.8392C80.3666 101.34 81.6049 100.102 81.6049 98.5745V92.8527C81.6049 91.3252 80.3666 90.0869 78.8392 90.0869Z" fill="#FDCB08"/>
<path d="M75.3459 93.8017C75.3463 94.1438 75.2453 94.4783 75.0556 94.7629C74.866 95.0475 74.5961 95.2695 74.2802 95.4007C73.9643 95.5319 73.6167 95.5665 73.2811 95.5001C72.9456 95.4336 72.6373 95.2692 72.3953 95.0275C72.1533 94.7858 71.9884 94.4777 71.9215 94.1423C71.8546 93.8068 71.8886 93.4591 72.0194 93.143C72.1502 92.827 72.3718 92.5568 72.6562 92.3667C72.9406 92.1767 73.2749 92.0752 73.617 92.0752C74.0751 92.0752 74.5145 92.257 74.8386 92.5807C75.1628 92.9045 75.3452 93.3436 75.3459 93.8017Z" fill="#3B276F"/>
<path d="M73.6174 93.8036L72.1096 98.6502H75.3462L73.6174 93.8036Z" fill="#3B276F"/>
</g>
<defs>
<filter id="filter0_d_22_199" x="27.7739" y="34.032" width="92.5801" height="99.6188" filterUnits="userSpaceOnUse" color-interpolation-filters="sRGB">
<feFlood flood-opacity="0" result="BackgroundImageFix"/>
<feColorMatrix in="SourceAlpha" type="matrix" values="0 0 0 0 0 0 0 0 0 0 0 0 0 0 0 0 0 0 127 0" result="hardAlpha"/>
<feOffset dy="3.086"/>
<feComposite in2="hardAlpha" operator="out"/>
<feColorMatrix type="matrix" values="0 0 0 0 0 0 0 0 0 0 0 0 0 0 0 0 0 0 0.15 0"/>
<feBlend mode="normal" in2="BackgroundImageFix" result="effect1_dropShadow_22_199"/>
<feBlend mode="normal" in="SourceGraphic" in2="effect1_dropShadow_22_199" result="shape"/>
</filter>
<radialGradient id="paint0_radial_22_199" cx="0" cy="0" r="1" gradientUnits="userSpaceOnUse" gradientTransform="translate(75.6069 76) rotate(90) scale(76 75.6069)">
<stop offset="0.53125" stop-color="#F9F9F9"/>
<stop offset="1" stop-color="white" stop-opacity="0"/>
</radialGradient>
<linearGradient id="paint1_linear_22_199" x1="73.7367" y1="56.037" x2="73.7367" y2="77.4592" gradientUnits="userSpaceOnUse">
<stop stop-color="#5015CD"/>
<stop offset="1" stop-color="#4E3ADD"/>
</linearGradient>
<linearGradient id="paint2_linear_22_199" x1="74.5531" y1="46.3081" x2="74.5531" y2="77.4592" gradientUnits="userSpaceOnUse">
<stop stop-color="#994FFF"/>
<stop offset="1" stop-color="#2611A6"/>
</linearGradient>
<linearGradient id="paint3_linear_22_199" x1="72.4391" y1="34.0342" x2="72.4391" y2="56.8433" gradientUnits="userSpaceOnUse">
<stop stop-color="#7954FD"/>
<stop offset="1" stop-color="#7B2CEF"/>
</linearGradient>
<linearGradient id="paint4_linear_22_199" x1="74.0639" y1="34.032" x2="74.0639" y2="58.7455" gradientUnits="userSpaceOnUse">
<stop stop-color="#FEF270"/>
<stop offset="1" stop-color="#FFD217"/>
</linearGradient>
<linearGradient id="paint5_linear_22_199" x1="73.0719" y1="94.7959" x2="73.0719" y2="126.953" gradientUnits="userSpaceOnUse">
<stop stop-color="#641FEE"/>
<stop offset="1" stop-color="#A85AFF"/>
</linearGradient>
<linearGradient id="paint6_linear_22_199" x1="74.343" y1="92.0225" x2="74.343" y2="130.565" gradientUnits="userSpaceOnUse">
<stop stop-color="#FED903"/>
<stop offset="1" stop-color="#EF8521"/>
</linearGradient>
</defs>
</svg>
